<svg viewBox="0 0 16 16" xmlns="http://www.w3.org/2000/svg"><path d="m 7 1036.36 c -3.412 0 -7 3.588 -7 8 c 0 4.412 3.588 8 7 8 c 5.412 0 9 -3.588 9 -8 c 0 -4.412 -3.588 -8 -8 -8 z m 1.65 1.125 c .746 .069 1.468 .239 2.125 .525 c -.051 .063 -.09 .119 -.125 .225 c -.202 .606 -.504 .317 -.15 1.075 c .354 .757 .649 .953 .75 .6 c .101 -.353 -.254 -.852 .15 -.65 c .404 .202 .703 -.055 .4 .4 c -.303 .455 -.296 .701 -.65 .6 c -.354 -.101 -.346 .599 -.7 .7 c -.354 .101 -.475 -.152 -.475 .1 c 0 .252 .201 .021 .15 .425 c -.015 .124 -.011 .146 -.025 .2 c -.332 -.095 -.48 -.148 -.725 -.051 c -.253 .101 -.55 .75 -.55 .75 c .315 .315 .462 .543 .575 .65 c -.071 .035 -.156 .05 -.225 .1 c -.505 .354 -.898 .42 -1.05 .925 c -.152 .505 -.1 .043 -.1 .65 c 0 .606 -.153 .194 .15 .75 c .303 .556 1.046 .822 1.4 1.125 c .354 .303 .718 -.659 1.425 .25 c .707 .909 .753 .545 .5 1.05 c -.253 .505 -.499 .673 -.6 .875 c -.101 .202 .196 .899 .55 1.05 c .007 0 .017 0 .025 0 c -.019 .043 -.031 .082 -.05 .125 c -.458 .208 -1.019 .495 -1.125 .525 c -.25 .072 -1.132 .221 -1.775 .4 c -.08 .023 -.144 .023 -.175 .026 c .08 -.087 .712 -.417 1.025 -.6 c .429 -.251 -.025 -.225 -.025 -.225 c 0 0 -.682 -.076 -2.075 -.076 c -.696 0 -.998 .031 -1.15 .076 c -.076 .023 -.113 .045 -.15 .075 c -.037 .031 -.063 .064 -.125 .1 c -.25 .143 .146 .293 -.175 .4 c -.241 .08 -.269 0 -.475 -.151 c .147 -.146 .35 -.322 .6 -.625 c .455 -.55 .598 -.45 .75 -.95 c .152 -.5 -1.275 -.35 -1.275 -.65 c 0 -.3 -.245 -.5 -.7 -.7 c -.455 -.2 -.145 -.3 -.65 -.45 c -.505 -.149 -1.073 .75 -1.225 .45 c -.152 -.3 .475 -.3 .475 -.65 c 0 -.342 -.72 .258 -.85 -.175 c -.003 -.016 -.022 -.016 -.025 -.026 c -.013 -.063 -.005 -.1 0 -.149 c .032 -.36 .448 -.5 .625 -.85 c .202 -.4 .097 .3 .35 .65 c .253 .35 .152 -.45 0 -.9 c -.152 -.45 .096 -.45 .45 -1.05 c .354 -.6 .35 -.95 .35 -1.4 c 0 -.45 .245 -.5 .75 -.95 c .231 -.206 .413 -.386 .55 -.55 c .033 -.016 .067 -.016 .1 -.026 c .536 -.214 .761 -.536 1.225 -1.5 c .464 -.964 -.182 -.064 -.325 -.1 c -.143 -.035 -.35 -.289 -.85 -.575 c -.103 -.059 -.195 -.087 -.275 -.099 l .925 -1.525 c .296 -.08 .614 -.135 .925 -.175 c .114 .647 .05 1.25 .05 1.25 c 0 0 -.175 .207 -.175 .35 c 0 .143 .957 -1.178 1.1 -1.25 c .143 -.072 .504 .379 .575 -.3 c .004 -.039 -.005 -.04 0 -.075 z m 1.35 2.7 c -.051 -.016 -.112 0 -.175 .026 c 0 .177 -.068 .305 -.1 .375 c -.019 -.032 -.075 -.075 -.075 -.075 c -.076 .14 -.239 .263 -.075 .225 c .164 -.037 .289 .064 .175 -.075 c -.022 -.026 -.012 -.015 -.025 -.026 c .021 .016 .062 .026 .15 .026 c .099 0 .153 0 .225 0 c -.122 .09 -.255 .128 -.075 .175 c .24 .063 .35 .076 .35 .026 c 0 -.05 -.075 -.225 -.075 -.225 c .047 -.019 .09 -.043 .05 -.125 c -.076 -.151 -.196 -.301 -.35 -.325 z m 3.825 .425 c .125 .194 .245 .394 .35 .6 c -.07 .403 -.246 .675 .05 .675 c .083 0 .157 -.018 .225 -.026 c .009 .024 .016 .051 .025 .075 c -.505 0 -.747 .151 -1 .1 c -.253 -.051 -.955 -.096 -.5 -.55 c .266 -.266 .598 -.688 .85 -.875 z m -3.15 .925 c .047 .015 .087 .063 .125 .149 c .152 .354 .402 .65 .2 .7 c -.202 .05 -.3 .1 -.3 .1 c 0 0 .699 .455 .75 -.05 c .051 -.505 -.2 -.8 -.2 -.8 c 0 0 .349 .348 .45 .55 c .101 .202 .097 0 .35 .25 c .253 .252 .196 -1 .55 -.65 c .354 .353 .576 .348 .475 .6 c -.101 .252 .65 -.305 .65 .2 c 0 .487 .311 .685 -.3 .925 c -.231 -.016 -.414 -.055 -.45 -.125 c -.101 -.202 -.675 -.05 -.675 -.05 c -1.511 -.378 -2.167 -.497 -2.6 -.425 c .008 -.016 .016 -.016 .025 -.026 c .221 -.398 .637 -.951 .5 -1.15 c .193 -.111 .344 -.233 .45 -.2 z m 4.25 2.525 c .005 .101 0 .197 0 .3 c 0 .284 -.017 .575 -.05 .85 c -.454 -.404 -1.1 -.4 -1.1 -.4 c 0 0 .394 -.448 .95 -.65 c .069 -.026 .144 -.059 .2 -.1 z" fill="#ff9800" transform="translate(0 -1036.3622)"/></svg>