<svg viewBox="0 0 16 16" xmlns="http://www.w3.org/2000/svg"><g transform="translate(0 -1036.3622)"><path d="m 0 1037.36 l 0 13 l 16 0 l 0 -7 l -1 -5 l -5 0 l -1 -2 l -8 0 c -.5 0 -1 .5 -1 1 z" fill="#ef6c00"/><path d="M 1 0 C .5 0 0 .5 0 1 L 0 2 C 0 1.5 .5 1 1 1 L 8 1 L 9 3 L 15 3 L 16 8 L 16 7 L 15 2 L 10 2 L 9 0 z" opacity=".03" transform="translate(0 1036.3622)"/><path d="M 2 1039.36 H 12 V 1042.36 H 2 Z" fill="#fffdf0"/><path d="m 16 1039.36 l 0 13 l -16 0 l 0 -12 l 7 0 l 1 -2 l 7 0 c .5 0 1 .5 1 1 z" fill="#ffa726"/><path d="m 0 1051.36 l 0 1 l 16 0 l 0 -1 z" opacity=".15"/><path d="M 8 2 L 7 4 L 0 4 L 0 5 L 8 5 L 9 3 L 15 3 c .5 0 1 .5 1 1 L 16 3 C 16 2.5 15.5 2 15 2 z" opacity=".03" transform="translate(0 1036.3622)"/></g></svg>