<svg height="16" viewBox="0 0 12.8 12.8" width="16" xmlns="http://www.w3.org/2000/svg"><path d="M 5.6 6.4 H 8 V 9.599999 H 5.6 Z" fill="#42a5f5"/><path d="M 5.6 2.4 H 8 V 5.6 H 5.6 Z" fill="#42a5f5"/><rect fill="#09b69e" height="2.4" rx=".5" width="10.4" x="1.6" y="8.8"/><rect fill="#42a5f5" height="2.4" rx=".5" width="10.4" x="1.6" y="4.8"/><rect fill="#486cd7" height="2.4" rx=".5" width="10.4" x="1.6" y=".8"/><g fill="#f9f9f9"><path d="M 2.4 1.6 H 7.6 V 2.4 H 2.4 Z"/><path d="m -5 17 a 2 2 0 1 1 -4 0 a 2 2 0 1 1 4 0 z" transform="matrix(.20000001 0 0 .2 10.2 -1.4)"/><path d="M 2.4 5.6 H 7.6 V 6.4 H 2.4 Z"/><path d="M 2.4 9.6 H 7.6 V 10.4 H 2.4 Z"/><path d="m -5 17 a 2 2 0 1 1 -4 0 a 2 2 0 1 1 4 0 z" transform="matrix(.20000001 0 0 .2 11.8 -1.4)"/><path d="m -5 17 a 2 2 0 1 1 -4 0 a 2 2 0 1 1 4 0 z" transform="matrix(.20000001 0 0 .2 10.2 2.6)"/><path d="m -5 17 a 2 2 0 1 1 -4 0 a 2 2 0 1 1 4 0 z" transform="matrix(.20000001 0 0 .2 11.8 2.6)"/><path d="m -5 17 a 2 2 0 1 1 -4 0 a 2 2 0 1 1 4 0 z" transform="matrix(.20000001 0 0 .2 10.2 6.6)"/><path d="m -5 17 a 2 2 0 1 1 -4 0 a 2 2 0 1 1 4 0 z" transform="matrix(.20000001 0 0 .2 11.8 6.6)"/></g></svg>