<svg viewBox="0 0 16 16" xmlns="http://www.w3.org/2000/svg"><g enable-background="new" fill="#ff9800" transform=""><path d="m 4 4 l 0 5 c 0 1 1 1 1 1 l 4 0 c 1 0 1 -1 1 -1 l 0 -4 l -2 -2 l -3 0 c 0 0 -1 0 -1 1 z m 1 0 l 2 0 l 0 2 l 2 0 l 0 3 l -4 0 z"/><path d="m 6 13 l -2 2 c -1 1 -1 1 0 1 l 8 0 c 1 0 1 0 0 -1 l -2 -2 l 0 -1 l -4 0 z"/><path d="M 2 0 C .892 0 0 .892 0 2 l 0 9 c 0 1.108 .892 2 2 2 l 12 0 c 1.108 0 2 -.892 2 -2 L 16 2 C 16 .892 15.108 0 14 0 L 2 0 z m 0 2 l 12 0 l 0 9 l -12 0 l 0 -9 z"/></g></svg>