<svg height="16" viewBox="0 0 16 16" width="16" xmlns="http://www.w3.org/2000/svg" xmlns:xlink="http://www.w3.org/1999/xlink"><radialGradient id="a" cx="8" cy="14.31257" gradientTransform="matrix(1 0 0 .16407123 0 11.964289)" gradientUnits="userSpaceOnUse" r="8"><stop offset="0"/><stop offset="1" stop-opacity="0"/></radialGradient><path d="m 16 14.31257 a 8 1.3125699 0 1 1 -16 0 a 8 1.3125699 0 1 1 16 0 z" fill="url(#a)" opacity=".35" transform="matrix(1 0 0 1.1427963 0 -1.856352)"/><path d="M 6.7954545 0 C 6.251496 0 6 .5 6 1 l 0 1 l 0 1 l 1 0 l 0 -.999786 l 0 -.5 c 0 -.515619 .054854 -.5 1 -.5 l 1 0 c 1 0 1 0 1 .5 l 0 .5 L 10 3 L 11 3 L 11 2 L 11 1 C 11 .5 10.771933 0 10.204546 0 z" fill="#8f98a8"/><rect fill="#8f98a8" height="12" rx="1" width="10" x="3" y="3"/><path d="M 0 5 C 0 3 2 2 3 2 l 10 0 c 1 0 3 1 3 3 z" fill="#b0b6c5"/><rect fill="#687385" height="6" rx=".5" width="2" x="4" y="7"/><path d="M 3 5 H 13 V 9 H 3 Z" opacity=".1"/><g fill="#687385"><rect height="6" rx=".5" width="2" x="7" y="7"/><rect height="6" rx=".5" width="2" x="10" y="7"/></g></svg>