<?xml version="1.0" encoding="UTF-8" standalone="no"?>
<svg
   xmlns:dc="http://purl.org/dc/elements/1.1/"
   xmlns:cc="http://creativecommons.org/ns#"
   xmlns:rdf="http://www.w3.org/1999/02/22-rdf-syntax-ns#"
   xmlns:svg="http://www.w3.org/2000/svg"
   xmlns="http://www.w3.org/2000/svg"
   xmlns:sodipodi="http://sodipodi.sourceforge.net/DTD/sodipodi-0.dtd"
   xmlns:inkscape="http://www.inkscape.org/namespaces/inkscape"
   width="16"
   height="16"
   viewBox="0 0 16 16"
   id="svg2"
   version="1.1"
   inkscape:version="0.91 r13725"
   sodipodi:docname="auto-follow.svg">
  <metadata
     id="metadata16">
    <rdf:RDF>
      <cc:Work
         rdf:about="">
        <dc:format>image/svg+xml</dc:format>
        <dc:type
           rdf:resource="http://purl.org/dc/dcmitype/StillImage" />
      </cc:Work>
    </rdf:RDF>
  </metadata>
  <defs
     id="defs14" />
  <sodipodi:namedview
     pagecolor="#ffffff"
     bordercolor="#666666"
     borderopacity="1"
     objecttolerance="10"
     gridtolerance="10"
     guidetolerance="10"
     inkscape:pageopacity="0"
     inkscape:pageshadow="2"
     inkscape:window-width="1366"
     inkscape:window-height="716"
     id="namedview12"
     showgrid="false"
     inkscape:zoom="29.5"
     inkscape:cx="6.4707758"
     inkscape:cy="8.2513585"
     inkscape:window-x="0"
     inkscape:window-y="27"
     inkscape:window-maximized="1"
     inkscape:current-layer="svg2" />
  <g
     id="g3359">
    <g
       style="color:#000000;fill:#bebebe"
       transform="matrix(1.25,0,0,1.24,-7,-2.85)"
       id="g6">
      <path
         d="m 16.5,10 -4.5,5 -4.5,-5 2.5,0 0,-5 4,0 0,5 z"
         id="path8"
         inkscape:connector-curvature="0" />
    </g>
    <g
       transform="matrix(1.3,0,0,1.3,-2.4,-2.2200001)"
       id="g3341">
      <path
         style="opacity:1;fill:#bebebe;fill-opacity:1;fill-rule:nonzero;stroke:none;stroke-width:0;stroke-linecap:butt;stroke-linejoin:miter;stroke-miterlimit:4;stroke-dasharray:none;stroke-opacity:1"
         id="path3353-1"
         sodipodi:type="arc"
         sodipodi:cx="8"
         sodipodi:cy="4.4000001"
         sodipodi:rx="2.5"
         sodipodi:ry="2.5"
         sodipodi:start="6.23004"
         sodipodi:end="6.2228667"
         sodipodi:open="true"
         d="M 10.49647,4.2671994 A 2.5,2.5 0 0 1 8.1372775,6.8962282 2.5,2.5 0 0 1 5.5040221,4.5417539 2.5,2.5 0 0 1 7.8537703,1.9042804 2.5,2.5 0 0 1 10.495453,4.249295" />
      <path
         style="opacity:1;fill:#969696;fill-opacity:1;fill-rule:nonzero;stroke:none;stroke-width:0;stroke-linecap:butt;stroke-linejoin:miter;stroke-miterlimit:4;stroke-dasharray:none;stroke-opacity:1"
         id="path3353"
         sodipodi:type="arc"
         sodipodi:cx="8"
         sodipodi:cy="4.4000001"
         sodipodi:rx="1.5"
         sodipodi:ry="1.5"
         sodipodi:start="6.23004"
         sodipodi:end="6.2228667"
         sodipodi:open="true"
         d="M 9.4978822,4.3203197 A 1.5,1.5 0 0 1 8.0823665,5.897737 1.5,1.5 0 0 1 6.5024132,4.4850524 1.5,1.5 0 0 1 7.9122622,2.9025683 1.5,1.5 0 0 1 9.4972721,4.309577" />
    </g>
  </g>
</svg>
