<svg height="16" viewBox="0 0 16 16" width="16" xmlns="http://www.w3.org/2000/svg"><path d="m 16.5 10 l -4.5 5 l -4.5 -5 l 2.5 0 l 0 -5 l 4 0 l 0 5 z" fill="#bebebe" transform="matrix(1.25 0 0 1.24 -7 -2.85)"/><g transform="matrix(1.3 0 0 1.3 -2.4 -2.22)"><path d="M 10.49647 4.2671994 A 2.5 2.5 0 0 1 8.1372775 6.8962282 A 2.5 2.5 0 0 1 5.5040221 4.5417539 A 2.5 2.5 0 0 1 7.8537703 1.9042804 A 2.5 2.5 0 0 1 10.495453 4.249295" fill="#bebebe"/><path d="M 9.4978822 4.3203197 A 1.5 1.5 0 0 1 8.0823665 5.897737 A 1.5 1.5 0 0 1 6.5024132 4.4850524 A 1.5 1.5 0 0 1 7.9122622 2.9025683 A 1.5 1.5 0 0 1 9.4972721 4.309577" fill="#969696"/></g></svg>