<svg viewBox="0 0 16 16" xmlns="http://www.w3.org/2000/svg"><path d="m 25.933 35.19 c 0 6.909 -5.487 12.509 -12.255 12.509 c -6.768 0 -12.255 -5.6 -12.255 -12.509 c 0 -6.909 5.487 -12.509 12.255 -12.509 c 6.768 0 12.255 5.6 12.255 12.509 Z" fill="#fff" stroke="#777" stroke-width=".5" transform="matrix(.53326 0 0 .52242 .70606 -10.3822)"/><path d="m 7.5 3 c -.277 0 -.5 .223 -.5 .5 l 0 5 c 0 .277 .223 .5 .5 .5 l 1 0 c .277 0 .5 -.223 .5 -.5 l 0 -5 c 0 -.277 -.234 -.414 -.5 -.5 m -1 8 c -.277 0 -.5 .223 -.5 .5 l 0 1 c 0 .277 .234 .414 .5 .5 l 1 0 c .277 0 .5 -.223 .5 -.5 l 0 -1 c 0 -.277 -.223 -.5 -.5 -.5" fill="#dc322f"/></svg>