<svg viewBox="0 0 16 16" xmlns="http://www.w3.org/2000/svg"><g stroke="#777"><path d="m 25.933 35.19 c 0 6.909 -5.487 12.509 -12.255 12.509 c -6.768 0 -12.255 -5.6 -12.255 -12.509 c 0 -6.909 5.487 -12.509 12.255 -12.509 c 6.768 0 12.255 5.6 12.255 12.509 Z" fill="#fff" stroke-width=".5" transform="matrix(.53326 0 0 .52242 .70606 -10.3822)"/><path d="m 20.496 12.504 c -1.664 0 -3 1.277 -3 2.871 l 0 6.14 c -1.664 0 -3 1.277 -3 2.871 l 0 8.239 c 0 1.594 1.336 2.871 3 2.871 l 13.01 0 c 1.652 0 3 -1.277 3 -2.871 l 0 -8.239 c 0 -1.594 -1.348 -2.871 -3 -2.871 l 0 -6.14 c 0 -1.594 -1.348 -2.871 -3 -2.871 z m 1.5 2.871 l 4.01 0 c .832 0 1.5 .645 1.5 1.441 l 0 4.698 l -7.01 0 l 0 -4.698 c 0 -.797 .668 -1.441 1.5 -1.441 z" fill="#bebebe" transform="scale(.33333)"/></g></svg>