<svg height="16" viewBox="0 0 16 16" width="16" xmlns="http://www.w3.org/2000/svg"><g transform="matrix(.875 0 0 .88889 -1.625 -1.77778)"><path d="m 5 2 l 12 0 c 2 0 2 0 2 2 l 0 14 c 0 2 0 2 -2 2 L 5 20 C 3 20 3 20 3 18 L 3 4 C 3 2 3 2 5 2 z" fill="#6c71c4" fill-rule="evenodd"/><path d="m 8.2249547 6.5688748 c -.442903 1.555936 -.453114 3.7101212 .337254 4.7727082 c .332197 .504033 .7854853 1.166889 .430198 1.770103 c -.656769 .941081 -1.751616 1.448749 -2.748491 1.961464 c -.338653 .03428 -.216323 .344956 -.238999 .574085 c -.000544 .182223 -.0554 .420211 .2151 .334885 l 4.3975843 0 l .764798 0 l 4.397586 0 c .270501 .08532 .215641 -.152662 .215099 -.334885 c -.02268 -.229129 .09966 -.539792 -.238999 -.574085 c -.996876 -.512715 -2.09172 -1.020383 -2.748491 -1.961464 c -.355286 -.603214 .098 -1.26607 .430199 -1.770103 c .834921 -1.156709 .943491 -3.6734192 .334599 -4.8079792 C 13.222223 5.5500008 12.666667 5.0377958 11 4.9999998 C 9.330678 5.0664598 8.7777777 5.5500008 8.2249547 6.5688748 z" fill="#2d2d2d" fill-opacity=".533"/></g><path d="m 16 10 l -3 0 l 0 -3 l -3 0 l 0 3 l -3 0 l 0 3 l 3 0 l 0 3 l 3 0 l 0 -3 l 3 0 z" fill="#859900"/></svg>