<svg viewBox="0 0 16 16" xmlns="http://www.w3.org/2000/svg"><g transform="matrix(.8 0 0 .8 -1.59996 -1.59999)"><path d="m 21.375 12 a 9.375 9.375 0 0 1 -18.75 0 a 9.375 9.375 0 1 1 18.75 0 z" fill="#fff" fill-rule="evenodd"/><path d="m 11.984 5.484 c -.551 .008 -.992 .465 -.984 1.016 l 0 5.5 c 0 .234 .082 .461 .234 .641 l 2.5 3 c .223 .301 .59 .449 .957 .395 c .367 -.059 .672 -.313 .793 -.664 c .121 -.352 .035 -.742 -.219 -1.012 l -2.266 -2.719 l 0 -5.141 c .004 -.27 -.102 -.531 -.293 -.723 c -.191 -.191 -.453 -.297 -.723 -.293 z" fill="#268bd2"/><path d="m 12 2 c -5.512 0 -10 4.488 -10 10 c 0 5.512 4.488 10 10 10 c 5.512 0 10 -4.488 10 -10 c 0 -5.512 -4.488 -10 -10 -10 z m 0 2 c 4.43 0 8 3.57 8 8 c 0 4.43 -3.57 8 -8 8 c -4.43 0 -8 -3.57 -8 -8 c 0 -4.43 3.57 -8 8 -8 z" fill="#aaa"/></g><path d="m 16 10 l -3 0 l 0 -3 l -3 0 l 0 3 l -3 0 l 0 3 l 3 0 l 0 3 l 3 0 l 0 -3 l 3 0 z" fill="#859900"/></svg>