<svg height="16" viewBox="0 0 16 16" width="16" xmlns="http://www.w3.org/2000/svg"><g transform="matrix(.8 0 0 .875 -1.6 -4.25)"><path d="m 5.2737383 6.7954288 c -1.724897 .4631159 -2.8598762 1.766709 -3.1389286 3.9209622 c -.076913 .90532 -.4018116 2.163277 .3587346 2.76478 c 1.0161806 .680792 2.258852 .568834 3.3631379 .351882 c .8055315 -.238684 1.1502899 -.325742 1.7936734 -1.005375 c 0 0 -.07433 -1.721942 .269051 -2.664243 c 2.7708664 -1.3041406 5.4672454 -1.2074797 8.1612144 0 c .343324 .942301 .26905 2.664243 .26905 2.664243 c .643385 .679633 .988143 .766691 1.793675 1.005375 c 1.104285 .216952 2.346956 .32891 3.363138 -.351882 c .760545 -.601503 .435575 -1.85946 .358734 -2.76478 c -.279052 -2.1542532 -1.414032 -3.4578463 -3.138929 -3.9209622 c -4.50258 -.9507147 -9.0061058 -1.1650285 -13.4525507 0 z" fill="#859900"/><path d="m 16 16 l -1.333359 0 c -.342517 .000014 -.704594 .176789 -.958324 .425543 l -1.708303 1.744656 l -1.708316 -1.74467 C 10.038314 16.176366 9.6758899 15.999931 9.3333334 16 L 8 16 L 7.9999867 17.361761 C 8 17.783137 8.1203988 18.113838 8.3750763 18.383004 L 12.00004 22 L 15.62499 18.383004 C 15.879562 18.11377 16 17.783097 16 17.361734 l 0 -1.361693 z" fill="#dc322f"/></g></svg>