<svg height="16" viewBox="0 0 16 16" width="16" xmlns="http://www.w3.org/2000/svg"><path d="m 92.3 748 c -.77 0 -1.33 .7 -1.82 1.2 c -.46 .6 -.94 1.3 -1.07 2 c 0 .3 .29 .4 .41 .6 c .47 .4 .95 1 .66 1.7 c -.43 .8 -1.22 1.4 -1.84 2.1 c -.49 .5 -1.13 1.2 -1.91 .9 c -.58 -.3 -.91 -.8 -1.36 -1.1 c -.63 0 -1.17 .4 -1.69 .7 c -.67 .5 -1.36 1.1 -1.6 1.9 c -.14 .6 .54 1 .96 1.3 c 1.05 .8 2.47 .9 3.68 .5 c 1.94 -.7 3.5 -2.2 4.88 -3.6 c 1.17 -1.4 2.3 -3 2.45 -4.8 c .1 -1.3 -.55 -2.5 -1.55 -3.3 l -.1 -.1 l -.1 0 z" fill="#859900" transform="matrix(1.33347 0 0 1.33017 -109.42624 -994.96791)"/></svg>