<svg height="16" viewBox="0 0 16 16" width="16" xmlns="http://www.w3.org/2000/svg"><path d="m 3.6617763 2.281999 c -.6293875 2.2631798 -.6438976 5.3965394 .4792564 6.9421217 c .4720702 .7331376 1.1162159 1.6972923 .6113349 2.5746943 c -.9333045 1.368846 -2.4891382 2.107272 -3.90575039 2.853039 c -.48124287 .04988 -.30740629 .501754 -.33963056 .835034 c -.00077163 .265051 -.0787287 .611214 .30566748 .487105 l 6.24919927 0 l 1.0868179 0 l 6.2492007 0 c .384396 .124109 .306438 -.222054 .305668 -.487105 c -.03224 -.33328 .141613 -.785155 -.33963 -.835034 C 12.947297 13.906087 11.391465 13.167661 10.458159 11.798815 C 9.9532787 10.921413 10.597425 9.9572583 11.069493 9.2241207 C 12.25596 7.5416344 12.410244 3.8809663 11.544976 2.2306961 C 10.763158 .80000021 9.9736843 .05497504 7.6052632 .00000008 C 5.2330686 .09667384 4.4473684 .80000021 3.6617763 2.281999 z" fill="#6c71c4"/><path d="m 16 10 l -3 0 l 0 -3.0000002 l -3 0 L 10 10 l -2.9999999 0 l 0 3 L 10 13 l 0 3 l 3 0 l 0 -3 l 3 0 z" fill="#859900"/></svg>