<svg viewBox="0 0 16 16" xmlns="http://www.w3.org/2000/svg"><g transform="translate(0 -1036.3622)"><path d="M 2 1036.3622 H 14 V 1045.3622 H 2 Z" fill="#eae7d1"/><path d="M 4 1041.36 H 12 V 1042.36 H 4 Z" fill="#7a7a68"/><path d="m 16 1042.36 l 0 10 l -16 0 l 0 -9 l 7 0 l 1 -2 l 7 0 c .5 0 1 .5 1 1 z" fill="#ffa726"/><path d="m 0 1051.36 l 0 1 l 16 0 l 0 -1 z" opacity=".15"/><path d="M 8 5 L 7 7 L 0 7 L 0 8 L 8 8 L 9 6 L 15 6 c .5 0 1 .5 1 1 L 16 6 C 16 5.5 15.5 5 15 5 Z" opacity=".03" transform="translate(0 1036.3622)"/><path d="M 4 1037.36 H 12 V 1038.36 H 4 Z" fill="#7a7a68"/><path d="M 4 1039.36 H 12 V 1040.36 H 4 Z" fill="#7a7a68"/><path d="m 15.999 1048.36 a 4 3.921 0 1 1 -7.998 0 a 4 3.921 0 1 1 7.998 0 z" fill="#4caf50" fill-rule="evenodd"/><path d="m 14.187 1045.85 a .41 .406 0 0 0 -.205 .162 l -2.18 2.11 l -1.36 -1.299 a .41 .406 0 1 0 -.557 .487 l 1.639 1.623 a .41 .406 0 0 0 .557 0 l 2.459 -2.435 a .41 .406 0 0 0 -.352 -.649 z" fill="#fff"/></g></svg>