<svg height="16" viewBox="0 0 16 16" width="16" xmlns="http://www.w3.org/2000/svg"><g fill-rule="evenodd"><path d="m 4.6666667 .00394322 l 6.6666663 0 C 13 .00394322 13 -.16265773 13 1.6699527 l 0 6.6640378 C 13 10 13 10 11.333333 10 L 4.6666667 10 C 3 10 3 10 3 8.3339905 L 3 1.6699527 C 3 .00394322 3 .00394322 4.6666667 .00394322 z" fill="#aaa" fill-opacity=".94"/><path d="M 1.6 4 L 14.4 4 C 16 4 16 4 16 5.6 l 0 4.8 C 16 12 16 12 14.4 12 L 1.6 12 C 0 12 0 12 0 10.4 L 0 5.6 C 0 4 0 4 1.6 4 z" fill="#ccc"/></g><path d="m 6 11 l 12 0 l 0 10 l -12 0 z" fill="#dc322f" transform="matrix(.83333 0 0 .8 -2 -.8)"/></svg>