<svg viewBox="0 0 16 16" xmlns="http://www.w3.org/2000/svg"><g fill-rule="evenodd" transform="matrix(.77778 0 0 .8 -1.33333 -1.6)"><path d="m 7 2 l 10 0 c 3 0 4 1 4 4 l 0 12 c 0 3 -1 4 -4 4 L 7 22 C 4 22 3 21 3 18 L 3 6 C 3 3 4 2 7 2 z" fill="#268bd2"/><path d="m 7 2 l 10 0 c 3 0 4 1 4 4 l 0 8 c 0 3 -1 4.25 -4 4.25 l -10 0 C 4 18.25 3 17 3 14 L 3 6 C 3 3 4 2 7 2 Z" fill="#fff" fill-opacity=".3"/></g><path d="m 16.5 10 l -4.5 5 l -4.5 -5 l 2.5 0 l 0 -5 l 4 0 l 0 5 z" fill="#fff" fill-opacity=".9" transform="translate(-4 -3)"/></svg>