<svg height="16" viewBox="0 0 16 16" width="16" xmlns="http://www.w3.org/2000/svg"><g transform="matrix(.79976 0 0 .79976 -.79656 -1.59872)"><g fill="#888"><path d="M 6 11 L 16 5 L 16 7 L 6 13 z"/><path d="M 6 13 L 16 19 L 16 17 L 6 11 z"/></g><g fill-rule="evenodd"><path d="m 14 14.5 a 3 10.5 0 1 1 -6 0 a 3 10.5 0 1 1 6 0 z" fill="#268bd2" transform="matrix(1.333 0 0 .381 1.336 .475)"/><path d="m 14 14.5 a 3 10.5 0 1 1 -6 0 a 3 10.5 0 1 1 6 0 z" fill="#2aa198" transform="matrix(1.333 0 0 .381 -8.664 6.475)"/><path d="m 14 14.5 a 3 10.5 0 1 1 -6 0 a 3 10.5 0 1 1 6 0 z" fill="#dc322f" transform="matrix(1.333 0 0 .381 1.336 12.48)"/></g></g></svg>