<svg height="16" viewBox="0 0 16 16" width="16" xmlns="http://www.w3.org/2000/svg"><path d="m 3.714286 0 l 8.571429 0 C 14 0 14 0 14 1.7777778 L 14 14.222222 C 14 16 14 16 12.285715 16 L 3.714286 16 C 2 16 2 16 2 14.222222 L 2 1.7777778 C 2 0 2 0 3.714286 0 z" fill="#fff" fill-rule="evenodd"/><path d="m 11 14 c 1.330302 0 2.334849 0 3 0 c 0 0 2 .06235 2 -3 C 16 7.9376479 14 7.7906908 14 7.7906908 C 14 10.139844 13.660604 10 11 10 C 11 9.2169489 11.131115 8.3703517 10.465964 8.3703517 L 7 11.663572 c -.2162172 .205441 -.2208196 .599514 0 .8 L 10.44054 15.5873 C 11.105691 15.5873 11 14.762062 11 14 z" fill="#859900"/></svg>