<svg height="16" viewBox="0 0 16 16" width="16" xmlns="http://www.w3.org/2000/svg"><path d="m 3.7142856 -.0000001 l 8.5714294 0 C 14 -.0000001 14 -.0000001 14 1.7777777 L 14 14.222222 C 14 16 14 16 12.285715 16 L 3.7142855 16 C 1.9999997 16 1.9999997 16 1.9999997 14.222222 l 0 -12.4444443 c 0 -1.7777778 0 -1.7777778 1.7142858 -1.7777778 z" fill="#fff" fill-rule="evenodd"/><g fill="#aaa" stroke="#aaa" stroke-linecap="round" stroke-width="2" transform="matrix(.5 0 0 .5 -4 -5)"><path d="m 15 35 l 0 3 l 3 0"/><path d="m 33 35 l 0 3 l -3 0"/><path d="m 30 14 l 3 0 l 0 3"/><path d="m 15 17 l 0 -3 l 3 0"/></g></svg>