<svg height="16" viewBox="0 0 16 16" width="16" xmlns="http://www.w3.org/2000/svg"><g fill="#2aa198" fill-rule="evenodd" transform="matrix(.82837 0 0 .82837 -2.48512 -2.22625)"><path d="m 11 2.6875 c -4.42 0 -8 3.577 -8 8 c 0 4.42 3.58 8 8 8 c 1.22 0 2.36625 -.27 3.40625 -.75 l 3 3 c 1.41 1.42 1.42375 1.42 2.84375 0 c 1.41 -1.41 1.41 -1.42375 0 -2.84375 l -2.75 -2.75 c .94 -1.32 1.5 -2.91625 1.5 -4.65625 c 0 -4.423 -3.58 -8 -8 -8 z m -.125 4 a 4 3.999 0 0 1 4.125 4 a 4 3.999 0 0 1 -8 0 a 4 3.999 0 0 1 3.875 -4 z"/><path d="m 7 10.686 a 4 3.999 0 0 0 8 0 a 4 3.999 0 1 0 -8 0 z" fill="#fff"/><path d="m 7 10.686 a 4 3.999 0 0 0 8 0 a 4 3.999 0 1 0 -8 0 z" fill-opacity=".3"/></g><path d="m 22 6 l -12 0 l 0 10 l 12 0 z" fill="#fff" transform="matrix(.83333 0 0 1 -2.33333 -6)"/><g fill="#888" transform="matrix(.75 0 0 1 -1 -6)"><path d="m 12 8 l 0 2 l 8 0 l 0 -2 z"/><path d="m 12 12 l 0 2 l 8 0 l 0 -2 z"/></g></svg>