<svg height="16" viewBox="0 0 16 16" width="16" xmlns="http://www.w3.org/2000/svg"><path d="m 2.5555555 2.0036808 l 10.8888885 0 C 15 2.0036808 15 1.8481662 15 3.5588274 L 15 14.444853 C 15 16 15 16 13.444444 16 L 2.5555555 16 C .99999994 16 .99999994 16 .99999994 14.444853 l 0 -10.8860256 c 0 -1.5551466 0 -1.5551466 1.55555556 -1.5551466 z" fill="#e9b080" fill-rule="evenodd"/><path d="m 13 2 l -9.9999998 0 l 0 10 L 13 12 z" fill="#fff"/><path d="m 4.8888888 0 l 0 3 l 6.0000002 0 l 0 -3 z" fill="#aaa"/><g fill="#888"><path d="m 4.8888889 5 l 0 1 l 6.0000001 0 l 0 -1 z"/><path d="m 4.8888889 8 l 0 1 l 6.0000001 0 l 0 -1 z"/></g></svg>