<svg height="16" viewBox="0 0 16 16" width="16" xmlns="http://www.w3.org/2000/svg"><path d="M 6 2 C 6 13 11 11 16.78 15.66 C 16.29 16.32 16 17.11 16 18 c 0 2.21 1.79 4 4 4 c 2.21 0 4 -1.79 4 -4 c 0 -.36 -.1 -.7 -.16 -1.03 L 24 17 L 23.78 16.72 c -.3 -.88 -.91 -1.6 -1.69 -2.1 z m 14 14 c 1.1 0 2 .9 2 2 c 0 1.1 -.9 2 -2 2 c -1.1 0 -2 -.9 -2 -2 c 0 -1.1 .9 -2 2 -2 z" fill="#aaa" transform="matrix(.8 0 0 .8 -3.2 -1.6)"/><path d="M 20 2 C 20 13 15 11 9.22 15.66 C 9.71 16.32 10 17.11 10 18 C 10 20.21 8.21 22 6 22 C 3.79 22 2 20.21 2 18 C 2 17.64 2.07 17.3 2.16 16.97 L 2 17 L 2.22 16.72 c .3 -.88 .91 -1.6 1.69 -2.1 z M 6 16 c -1.1 0 -2 .9 -2 2 c 0 1.1 .9 2 2 2 c 1.1 0 2 -.9 2 -2 c 0 -1.1 -.9 -2 -2 -2 z" fill="#ccc" transform="matrix(.8 0 0 .8 -1.6 -1.6)"/></svg>