<svg viewBox="0 0 16 16" xmlns="http://www.w3.org/2000/svg"><g fill="#268bd2" transform="translate(-200.0002 -706)"><path d="m 204 709 l 0 2 l 6 0 c .42816 0 1 .61414 1 1 l 2 0 c 0 -1.63434 -1.3198 -3 -3 -3 l -6 0 z m -1 7 c .006 .72062 .26893 1.45271 .78125 2.03125 C 204.29357 718.60979 205.09172 719 206 719 l 6 0 l 1 0 l 0 -1 l 0 -2 l -2 0 l 0 1 l -5 0 c -.39787 0 -.56691 -.10979 -.71875 -.28125 C 205.12941 716.54729 205.00248 716.27938 205 716 l -2 0 z"/><path d="m 201 713 l 0 2 l 14 0 l 0 -2 l -14 0 z"/></g></svg>