<svg viewBox="0 0 16 16" xmlns="http://www.w3.org/2000/svg"><g fill="#268bd2" transform="translate(-180.0002 -706)"><path d="m 184 708 l 0 2 l 6 0 c .42816 0 1 .61414 1 1 l 0 1 l -5 0 c -.91927 0 -1.7356 .38396 -2.25 .96875 c -.5144 .58479 -.75639 1.31063 -.75 2.03125 c .006 .72062 .26893 1.45271 .78125 2.03125 C 184.29357 717.60979 185.09172 718 186 718 l 6 0 l 1 0 l 0 -1 l 0 -6 c 0 -1.63434 -1.3198 -3 -3 -3 l -6 0 z m 2 6 l 5 0 l 0 2 l -5 0 c -.39787 0 -.56691 -.10979 -.71875 -.28125 C 185.12941 715.54729 185.00248 715.27938 185 715 c -.002 -.27938 .10467 -.55354 .25 -.71875 C 185.39533 714.11604 185.57764 714 186 714 z"/><path d="m 182 719 l 0 2 l 12 0 l 0 -2 l -12 0 z"/></g></svg>