<svg viewBox="0 0 16 16" xmlns="http://www.w3.org/2000/svg"><g fill="#268bd2" transform="translate(-281.0002 -647)"><path d="m 283.00032 647 l 0 2 l 6 0 c .42816 0 1 .61414 1 1 l 0 1 l -5 0 c -.91927 0 -1.7356 .38396 -2.25 .96875 c -.5144 .58479 -.75639 1.31063 -.75 2.03125 c .006 .72062 .26893 1.45271 .78125 2.03125 c .51232 .57854 1.31047 .96875 2.21875 .96875 l 6 0 l 1 0 l 0 -1 l 0 -6 c 0 -1.63434 -1.3198 -3 -3 -3 l -6 0 z m 2 6 l 5 0 l 0 2 l -5 0 c -.39787 0 -.56691 -.10979 -.71875 -.28125 c -.15184 -.17146 -.27877 -.43937 -.28125 -.71875 c -.002 -.27938 .10467 -.55354 .25 -.71875 c .14533 -.16521 .32764 -.28125 .75 -.28125 z"/><path d="m 293.00019 662.00001 l 1 -.00001 c .26531 -.00003 .53058 -.0931 .71875 -.28124 l 2 -2.00001 l .28126 -.28125 l 0 -.87499 l -.28126 -.28126 l -2 -1.99999 c -.18818 -.18821 -.45347 -.28121 -.71876 -.28121 l -1 -.00001 l 0 1 c -.00004 .26531 .0931 .53059 .28121 .71877 l 1.28126 1.28124 l -1.28125 1.28125 c -.18815 .18817 -.28125 .45345 -.28125 .71875 l 0 1 z"/><path d="m 281.9375 658 l 0 2 l 13.0625 0 l 0 -2 l -13.0625 0 z"/></g></svg>