<svg viewBox="0 0 16 16" xmlns="http://www.w3.org/2000/svg"><path d="m 224.5 709 l 0 2 l 6 0 c .42816 0 .59383 .26733 .46875 .71875 L 230.625 713 l -5.25 0 c -1.83854 0 -3.12514 1.35237 -3.5 2.75 c -.18743 .69881 -.16219 1.47883 .25 2.15625 c .41219 .67742 1.24797 1.09375 2.15625 1.09375 l 6 0 l .75 0 l .21875 -.71875 l 1.65625 -6 C 233.34093 710.71247 232.1802 709 230.5 709 l -6 0 z m .875 6 l 4.6875 0 l -.5625 2 l -5.21875 0 c -.39787 0 -.42459 -.0837 -.46875 -.15625 c -.0442 -.0726 -.0808 -.29256 0 -.59375 c .16157 -.60237 .71778 -1.25 1.5625 -1.25 z" fill="#268bd2" transform="translate(-220.0002 -706)"/></svg>