<svg height="16" width="16" xmlns="http://www.w3.org/2000/svg"><g transform=""><path d="m 14.238 2.994 c -4.238 -.994 -8.238 -.994 -12.479 .016 c -4.179 5.236 -.457 12.981 6.242 12.99 c 6.711 -.003 10.436 -7.771 6.236 -13.01" fill="#268bd2" fill-rule="evenodd"/><path d="M 8 0 A 8 8 0 0 0 1.748 3.01 L 7 3 L 7 9.313 L 4.973 7.344 C 4.643 7.01 4.129 6.913 3.691 7.094 C 3.253 7.275 2.989 7.692 3 8.156 C 3.01 8.448 3.135 8.736 3.348 8.938 L 7.191 12.656 C 7.407 12.87 7.698 13 8 13 C 8.31 13 8.6 12.87 8.816 12.656 L 12.66 8.938 C 13.11 8.499 13.11 7.782 12.66 7.344 C 12.21 6.905 11.485 6.905 11.04 7.344 L 9 9.313 L 9 3 L 14.24 2.994 A 8 8 0 0 0 8 0 z" fill="#eaf4fb"/></g></svg>