<svg viewBox="0 0 16 16" xmlns="http://www.w3.org/2000/svg"><path d="m 8.232 .004 c -4.508 -.131 -8.233 3.488 -8.232 7.998 c .003 6.711 7.771 10.436 13.01 6.236 c .994 -4.238 .994 -8.238 -.016 -12.479 c -1.354 -1.086 -3.02 -1.702 -4.758 -1.756" fill="#268bd2" fill-rule="evenodd" transform=""/><g fill="#eaf4fb" transform="matrix(0 -1 1 0 0 16)"><path d="m 12.997 8.156 c .015 -.465 -.249 -.881 -.688 -1.063 c -.438 -.181 -.951 -.083 -1.281 .25 l -2.031 1.969 l 0 -6.313 l -2 0 l 0 6.313 l -2.031 -1.969 c -.45 -.438 -1.175 -.438 -1.625 0 c -.45 .438 -.45 1.155 0 1.594 l 3.844 3.719 c .216 .213 .506 .344 .813 .344 c .306 0 .596 -.13 .813 -.344 l 3.844 -3.719 c .213 -.202 .335 -.489 .344 -.781 z"/><path d="M 14.253 12.99 A 8 8 0 0 1 7.999 16 l 0 0 A 8 8 0 0 1 1.76 13.01" fill-rule="evenodd"/></g></svg>