<svg height="16" viewBox="0 0 16 16" width="16" xmlns="http://www.w3.org/2000/svg"><g transform="matrix(0 -1 -1 0 16 16)"><path d="M 16 8.0011832 A 8.0000001 8.0000001 0 0 1 -.00000003 8.0011832 A 8.0000001 8.0000001 0 1 1 16 8.0011832 z" fill="#268bd2" fill-rule="evenodd"/><path d="m 8.15625 3.0033955 c -.464552 -.015003 -.881354 .249416 -1.0625 .6875 c -.181146 .438085 -.083075 .951186 .25 1.28125 l 1.96875 2.03125 l -6.3125 0 l 0 2 l 6.3125 0 l -1.96875 2.0312495 c -.438257 .450086 -.438257 1.174914 0 1.625 c .438256 .450087 1.155494 .450087 1.59375 0 L 12.65625 8.8158955 C 12.869535 8.5998545 13 8.3094545 13 8.0033955 c 0 -.306059 -.130465 -.596459 -.34375 -.8125 L 8.9375 3.3471455 C 8.735903 3.1341045 8.448421 3.0123955 8.15625 3.0033955 z" fill="#fff" fill-opacity=".9"/></g></svg>