<svg height="16" viewBox="0 0 16 16" width="16" xmlns="http://www.w3.org/2000/svg"><path d="M 16 8 A 8 8 0 0 1 0 8 A 8 8 0 1 1 16 8 z" fill="#268bd2" fill-rule="evenodd"/><g fill="#fff" fill-opacity=".9"><path d="m 14 18 l -4 0 l 0 -6 l 4 0 l 0 6" transform="matrix(.5 0 0 .66667 2 .00001)"/><path d="m 13.169492 7.6271181 c 0 .9547974 -.717104 1.7288137 -1.601695 1.7288137 c -.884592 0 -1.6016952 -.7740163 -1.6016952 -1.7288137 c 0 -.9547974 .7171032 -1.7288136 1.6016952 -1.7288136 c .884591 0 1.601695 .7740162 1.601695 1.7288136 z" fill-rule="evenodd" transform="matrix(.62434 0 0 .57843 .77778 .588225)"/></g></svg>