<svg height="16" viewBox="0 0 16 16" width="16" xmlns="http://www.w3.org/2000/svg"><path d="m 16 8.0010954 a 8.0000001 8.0000001 0 0 1 -16.00000005 0 a 8.0000001 8.0000001 0 1 1 16.00000005 0 z" fill="#268bd2" fill-rule="evenodd"/><g fill="#fff" fill-opacity=".9"><path d="m 6.4237102 9.6092716 l 0 -.441059 C 6.4237084 8.7867605 6.5126449 8.4549729 6.6905215 8.1728499 C 6.8683935 7.8907361 7.1937727 7.5907376 7.6666602 7.2728523 C 8.122188 6.9748445 8.421537 6.732461 8.5647082 6.5457011 C 8.7122097 6.3589524 8.7859621 6.1503436 8.7859666 5.9198749 C 8.7859621 5.6616036 8.6818452 5.4649156 8.4736022 5.3298099 C 8.2653548 5.1947175 7.9746832 5.1271682 7.601584 5.1271611 C 6.9508228 5.1271682 6.2089581 5.3218695 5.375988 5.7112661 L 4.6666604 4.4059698 c .967461 -.4966784 1.9934903 -.7450225 3.0780915 -.7450314 c .8937042 .0000089 1.603032 .1966967 2.1279815 .5900656 c .5292776 .393384 .7939206 .9178864 .7939266 1.5735068 c -.000006 .4370908 -.108463 .8145738 -.325379 1.1324479 C 10.124356 7.274844 9.7122079 7.6324587 9.1048381 8.0298038 C 8.6883478 8.3119268 8.4237061 8.5264964 8.3109117 8.6735117 C 8.2024477 8.8205351 8.148219 9.0132498 8.1482223 9.2516558 l 0 .3576158 l -1.7245121 0" transform="translate(.33334 .39073)"/><path d="M 7 12 C 6.9999987 11.670589 7.085713 11.421571 7.2571428 11.252941 C 7.4285696 11.084315 7.6780931 11.000002 8.0057138 11 c .3161877 .000002 .5599971 .08627 .7314284 .258824 C 8.9123778 11.431374 8.9999962 11.678433 9 12 C 8.9999962 12.309804 8.9123749 12.554903 8.7371422 12.735294 C 8.5619017 12.911764 8.3180922 13 8.0057138 13 C 7.6857122 13 7.4380933 12.913723 7.2628571 12.741176 C 7.0876176 12.564706 6.9999987 12.317648 7 12" transform="translate(-.4)"/></g></svg>