<svg height="16" viewBox="0 0 16 16" width="16" xmlns="http://www.w3.org/2000/svg"><path d="m 16 8.0010954 a 8.0000001 8.0000001 0 0 1 -16.00000005 0 a 8.0000001 8.0000001 0 1 1 16.00000005 0 z" fill="#268bd2" fill-rule="evenodd"/><g fill="#fff" fill-opacity=".9"><path d="m 3.00002 3 l 9.99996 0 l 0 2 l -9.99996 0 z" transform="matrix(.8 0 0 .5 1.6 3)"/><path d="m 3.00002 7 l 9.99996 0 l 0 2 l -9.99996 0 z" transform="matrix(.8 0 0 .5 1.6 4)"/><path d="m 3.00002 11 l 9.99996 0 l 0 2 l -9.99996 0 z" transform="matrix(.8 0 0 .5 1.6 5)"/></g></svg>