<svg viewBox="0 0 16 16" xmlns="http://www.w3.org/2000/svg"><path d="m 6 10 l 10 0 l -5 6 z" fill="#cb4b16"/><g fill="#888" transform="scale(.98486615 1.0153664)"><path d="m 2.167 1.97 l -2.167 5.909 l 1 0 l .575 -1.6 l 2.125 0 l .583 1.6 l 1.058 0 l -2.167 -5.909 z m 1.209 3.375 l -1.475 0 l .742 -2.15 z"/><path d="m 7.933 2.955 c .933 0 1.175 .265 1.175 .707 c 0 .467 -.317 .733 -1.133 .733 c -.289 0 -.578 0 -.867 0 l 0 -1.44 z m -.083 2.299 c 1.234 0 1.692 .317 1.692 .842 c 0 .642 -.625 .799 -1.684 .799 l -.75 0 l 0 -1.632 z m -1.757 -3.284 l 0 5.909 l 1.874 0 c 2.184 0 2.6 -1 2.6 -1.659 c 0 -.575 -.4 -1.267 -1.217 -1.417 c .533 -.325 .758 -.767 .758 -1.284 c 0 -.525 -.309 -1.585 -1.992 -1.55 z"/><path d="m 14.387 1.97 c -1.875 0 -3.075 1.275 -3.075 2.942 c 0 1.642 1.142 2.967 3.02 2.967 c .533 0 1.159 -.125 1.767 -.383 l .15 -.058 l -.333 -.825 l -.15 .058 c -.442 .175 -.883 .267 -1.25 .267 c -1.35 0 -2.15 -.808 -2.15 -2.034 c 0 -1.1 .75 -2.025 2 -2.025 c .267 0 .675 0 1.309 .233 l .158 .058 l .333 -.817 l -.15 -.058 c -.608 -.242 -1.175 -.325 -1.625 -.325"/></g></svg>