<svg height="16" viewBox="0 0 16 16" width="16" xmlns="http://www.w3.org/2000/svg"><g fill-rule="evenodd"><path d="m 8.5941353 5.25 c -.140625 0 -.34375 .125 -.59375 .375 l -5 4 c -1.0036924 1.003692 -1 1 0 2 l 5 4 c .75 .75 .953125 .375 1 -1.125 c .015625 -.5 0 -1.125 0 -1.875 c .010546 .000044 .020692 0 .03125 0 C 14.000385 12.625 16.03125 6.03125 16 2 C 14.03125 4.03125 12.000385 8.625 9.0003853 8.5625 c .0009566 -.7169444 .015104 -1.3291667 0 -1.8125 c -.03125 -1 -.125 -1.5 -.40625 -1.5 z" fill="#859900"/><path d="m 8.5941353 5.25 c -.140625 0 -.34375 .125 -.59375 .375 l -5 4 c -1.0036924 1.003692 -1 1 0 2 l 5 4 c .75 .75 .953125 .375 1 -1.125 c .015625 -.5 0 -1.125 0 -1.875 c .010546 .000044 .020692 0 .03125 0 C 14.000385 12.625 16.03125 6.03125 16 2 C 14.03125 4.03125 12.000385 8.625 9.0003853 8.5625 c .0009566 -.7169444 .015104 -1.3291667 0 -1.8125 c -.03125 -1 -.125 -1.5 -.40625 -1.5 z" fill-opacity=".1"/><path d="M 8.59375 1.625 C 8.453125 1.625 8.25 1.75 8 2 L 3 6 C 1.9963076 7.0036924 2 7 3 8 l 5 4 C 8.75 12.75 8.953125 12.375 9 10.875 C 9.015625 10.375 9 9.75 9 9 C 9.010546 9.000044 9.020692 9 9.03125 9 C 14 9 16 6 15.96875 1.96875 C 14 4 12 5 9 4.9375 C 9.0009566 4.2205556 9.0151042 3.6083333 9 3.125 c -.03125 -1 -.125 -1.5 -.40625 -1.5 z" fill="#859900"/></g></svg>