<svg height="16" viewBox="0 0 4.5155557 4.5155557" width="16" xmlns="http://www.w3.org/2000/svg"><path d="m .282 .564 c -.282 0 -.282 0 -.282 .282 l 0 2.822 c 0 .282 0 .282 .282 .282 l 3.951 0 c .282 0 .282 0 .282 -.282 c 0 -.908 0 -2.297 0 -2.822 c 0 -.282 0 -.282 -.282 -.282 z" fill="#268bd2" transform="translate(0 .564)"/><g fill-opacity=".1" transform="translate(0 .564)"><path d="m .123 .566 c -.119 .013 -.123 .07 -.123 .282 l 2.258 1.409 l 2.258 -1.409 c 0 -.282 0 -.282 -.282 -.282 l -3.951 0 c -.071 0 -.119 -.004 -.159 0 z" fill="#fff"/><path d="m 4.516 .847 l -2.258 1.411 l 2.258 1.411 l 0 -2.822 z"/></g><g fill="#dc322f" fill-opacity="0" transform="matrix(.19956 -.19956 .19956 .19956 -.95 1.275)"><path d="m .625 14.03 l 1.414 1.414 l 3.536 -3.536 l -1.414 -1.414 z"/><path d="m 1.332 9.08 l 5.657 0 l 0 5.657 z"/></g><path d="m 1.976 .847 c -.564 2.54 .564 2.258 1.693 3.104 c .282 -.564 0 -.564 0 -.847 c 0 0 .282 -.282 .564 .282 c 0 -.282 .847 -1.693 -.564 -2.822 c -.009 .55 -.282 .564 -.282 .564 c -.282 -.282 -.282 -.282 -.282 -.564 c 0 -.252 .042 -.606 0 -.564 c -.384 .384 -.564 .82 -.564 1.129 l 0 .282 c 0 0 -.282 0 -.564 -.564 z" fill="#f27d0c"/></svg>