<svg height="16" viewBox="0 0 4.5155557 4.5155557" width="16" xmlns="http://www.w3.org/2000/svg"><g transform="translate(0 .56444)"><path d="M .28222223 .56447648 C 0 .56447648 0 .56444338 0 .84666568 L 0 3.668888 c 0 .2822222 -.00000005 .2822222 .28222223 .2822222 l 3.95111117 0 c .2822223 0 .2822223 0 .2822223 -.2822222 c 0 -.9083989 0 -2.2974207 0 -2.82222232 c 0 -.2822223 0 -.2821895 -.2822223 -.2821895 z" fill="#268bd2"/><g fill-opacity=".1"><path d="M .12347223 .56640108 C .00440972 .57961508 0 .63687508 0 .84829708 L 2.2577778 2.2577768 L 4.5155557 .84829708 c 0 -.281896 0 -.281896 -.2822223 -.281896 l -3.95111117 0 c -.0705556 0 -.1190625 -.0044 -.15875 0 z" fill="#fff"/><path d="m 4.5155557 .84666558 l -2.2577779 1.41111122 l 2.2577779 1.4111111 l 0 -2.82222232 z"/></g></g><g fill="#dc322f" fill-opacity="0" transform="matrix(.19956 -.19956 .19956 .19956 -.94954 1.27547)"><path d="M .62499842 14.032613 L 2.039212 15.446827 L 5.574746 11.911293 L 4.1605324 10.497079 z"/><path d="m 1.3321052 9.0828657 l 5.6568544 0 l 0 5.6568543 z"/></g><path d="M 4.0152901 1.2754829 C 4.2260883 2.1873584 4.1690203 2.0744601 3.3838537 1.6897321 C 2.5590795 2.1082938 2.5877562 2.1439389 2.7576935 1.2668741 C 2.0162212 .64907993 2.1010763 .70497783 3.0021414 .59128433 c .4055219 -.8178754 .3712779 -.7600265 .7772376 .00532 c .9499597 .1056446 .92757 .069357 .2359111 .67887817 z" fill="#cb4b16" fill-rule="evenodd"/></svg>