<svg height="16" viewBox="0 0 4.5155557 4.5155557" width="16" xmlns="http://www.w3.org/2000/svg"><path d="m .282 .564 c -.282 0 -.282 0 -.282 .282 l 0 2.822 c 0 .282 0 .282 .282 .282 l 3.951 0 c .282 0 .282 0 .282 -.282 c 0 -.908 0 -2.297 0 -2.822 c 0 -.282 0 -.282 -.282 -.282 z" fill="#268bd2" transform="translate(0 .564)"/><g fill-opacity=".1" transform="translate(0 .564)"><path d="m .123 .566 c -.119 .013 -.123 .07 -.123 .282 l 2.258 1.409 l 2.258 -1.409 c 0 -.282 0 -.282 -.282 -.282 l -3.951 0 c -.071 0 -.119 -.004 -.159 0 z" fill="#fff"/><path d="m 4.516 .847 l -2.258 1.411 l 2.258 1.411 l 0 -2.822 z"/></g><g fill="#dc322f" fill-opacity="0" transform="matrix(.19956 -.19956 .19956 .19956 -.95 1.275)"><path d="m .625 14.03 l 1.414 1.414 l 3.536 -3.536 l -1.414 -1.414 z"/><path d="m 1.332 9.08 l 5.657 0 l 0 5.657 z"/></g><path d="m 1.976 .847 c -.564 2.54 .564 2.258 1.693 3.104 c .282 -.564 0 -.564 0 -.847 c 0 0 .282 -.282 .564 .282 c 0 -.282 .847 -1.693 -.564 -2.822 c -.009 .55 -.282 .564 -.282 .564 c -.282 -.282 -.282 -.282 -.282 -.564 c 0 -.252 .042 -.606 0 -.564 c -.384 .384 -.564 .82 -.564 1.129 l 0 .282 c 0 0 -.282 0 -.564 -.564 z" fill="#f27d0c"/><path d="m 2.822 4.384 c 0 .036 .005 .077 .013 .124 c .065 .009 .12 .006 .17 0 c .016 0 .031 .002 .046 0 c .048 -.006 .096 -.024 .137 -.059 c .014 -.012 .026 -.023 .039 -.039 c .077 -.071 .149 -.148 .222 -.223 l .222 -.223 c .073 .075 .149 .148 .222 .223 c .074 .074 .147 .15 .222 .223 c .011 .015 .027 .028 .039 .039 c .015 .013 .029 .024 .046 .033 c .03 .016 .064 .022 .098 .026 c .021 .003 .043 .007 .065 .007 c .01 .001 .022 0 .033 0 c .038 -.001 .074 -.006 .111 -.007 c .005 -.038 .006 -.073 .007 -.105 c 0 -.006 0 -.014 0 -.02 c 0 -.015 -.005 -.026 -.007 -.039 c 0 -.002 0 -.004 0 -.007 c -.002 -.067 -.012 -.131 -.059 -.183 c -.012 -.014 -.023 -.026 -.039 -.039 l -.444 -.445 l .444 -.445 c .015 -.011 .028 -.027 .039 -.039 c .013 -.015 .024 -.029 .033 -.046 c .015 -.029 .022 -.059 .026 -.092 c .005 -.036 .008 -.073 .007 -.111 c 0 -.032 -.001 -.067 -.007 -.105 c -.069 -.012 -.123 -.013 -.17 -.007 c -.018 .001 -.035 .004 -.052 .007 c -.063 .01 -.125 .035 -.17 .098 c -.077 .071 -.149 .148 -.222 .223 l -.222 .223 l -.444 -.445 c -.013 -.016 -.025 -.028 -.039 -.039 c -.015 -.013 -.03 -.024 -.046 -.033 c -.027 -.014 -.055 -.022 -.085 -.026 c -.002 -.001 -.004 0 -.007 0 c -.061 -.014 -.129 -.012 -.216 0 c -.012 .069 -.012 .123 -.007 .17 c .002 .017 .002 .037 .007 .052 c .002 .006 .004 .013 .007 .02 c .012 .056 .035 .11 .092 .151 c .071 .077 .148 .149 .222 .223 c .075 .074 .147 .149 .222 .223 c -.075 .071 -.149 .143 -.222 .216 c -.001 .001 .001 .005 0 .007 c -.075 .074 -.151 .146 -.222 .223 c -.015 .011 -.028 .027 -.039 .039 c -.008 .009 -.014 .017 -.02 .026 c -.003 .005 -.01 .008 -.013 .013 c -.001 .002 .001 .005 0 .007 c -.014 .027 -.022 .055 -.026 .085 c -.001 .004 0 .009 0 .013 c -.006 .026 -.013 .054 -.013 .085 z" fill="#dc322f" fill-rule="evenodd"/></svg>