<svg height="16" viewBox="0 0 4.5155557 4.5155557" width="16" xmlns="http://www.w3.org/2000/svg"><path d="m .33448553 4.5155557 l 3.84658447 0 c .3344857 0 .3344857 0 .3344857 -.3225398 l 0 -2.7819047 L 2.2577779 .00000003 L 0 1.4111112 L -.00000002 4.1930159 c 0 .3225398 0 .3225398 .33448555 .3225398 z" fill="#268bd2"/><path d="m .33448553 4.5155557 l 3.84658447 0 c .3344857 0 .3344857 0 .3344857 -.3225398 l 0 -2.7819047 L 2.2577779 .00000003 L 0 1.4111112 L -.00000002 4.1930159 c -.00000001 .3225398 0 .3225398 .33448555 .3225398 z" fill-opacity=".1"/><path d="m .56444446 .56444446 l 0 3.38666674 l 3.38666674 0 l 0 -3.38666674 z" fill="#fff"/><g fill="#268bd2"><path d="m .28222223 4.5155557 l 3.95111127 0 c .2822222 0 .2822222 0 .2822222 -.2822222 l 0 -2.5400001 L 0 4.2333335 c 0 .2822222 0 .2822222 .28222223 .2822222 z"/><path d="m 4.2333335 4.5155557 l -3.95111127 0 C 0 4.5155557 0 4.5155557 0 4.2333335 L 0 1.6933334 L 4.5155557 4.2333335 c 0 .2822222 0 .2822222 -.2822222 .2822222 z"/></g><path d="m 4.18107 4.5155557 l -3.84658447 0 C -.00000002 4.5155557 -.00000002 4.5155557 -.00000002 4.1986752 L 0 1.6933334 L 4.5155557 4.1986752 c 0 .3168805 0 .3168805 -.3344857 .3168805 z" fill="#fff" fill-opacity=".1"/><path d="M 4.0152901 1.2754828 C 4.2260883 2.1873583 4.1690203 2.07446 3.3838537 1.689732 C 2.5590795 2.1082937 2.5877562 2.1439388 2.7576935 1.266874 C 2.0162212 .64907976 2.1010763 .70497771 3.0021414 .59128425 c .4055219 -.81787542 .3712779 -.76002658 .7772376 .005321 c .9499597 .10564462 .92757 .0693573 .2359111 .67887825 z" fill="#cb4b16" fill-rule="evenodd"/></svg>