<svg height="16" viewBox="0 0 16 16" width="16" xmlns="http://www.w3.org/2000/svg"><path d="m 7.3753602 2.625 c .140625 0 .34375 .125 .59375 .375 L 12.96911 7 c 1.003692 1.0036924 1 1 0 2 l -4.9999998 4 c -.75 .75 -.953125 .375 -1 -1.125 c -.01563 -.5 0 -1.125 0 -1.875 c -.01055 .000044 -.02069 0 -.03125 0 C 1.9691102 10 -.03088985 7 .00036015 2.96875 C 1.9691102 5 3.9691102 6 6.9691102 5.9375 c -.000956 -.7169444 -.0151 -1.3291667 0 -1.8125 c .03125 -1 .125 -1.5 .40625 -1.5 z" fill="#268bd2" fill-rule="evenodd"/></svg>