<svg height="16" viewBox="0 0 4.5155557 4.5155557" width="16" xmlns="http://www.w3.org/2000/svg"><path d="m .33448553 4.5155557 l 3.84658447 0 c .3344857 0 .3344857 0 .3344857 -.3225398 l 0 -2.7819047 L 2.2577779 .00000003 L 0 1.4111112 L -.00000002 4.1930159 c 0 .3225398 0 .3225398 .33448555 .3225398 z" fill="#268bd2"/><path d="m .33448553 4.5155557 l 3.84658447 0 c .3344857 0 .3344857 0 .3344857 -.3225398 l 0 -2.7819047 L 2.2577779 .00000003 L 0 1.4111112 L -.00000002 4.1930159 c -.00000001 .3225398 0 .3225398 .33448555 .3225398 z" fill-opacity=".1"/><path d="m .56444446 .56444446 l 0 3.38666674 l 3.38666674 0 l 0 -3.38666674 z" fill="#fff"/><g fill="#268bd2"><path d="m .28222223 4.5155557 l 3.95111127 0 c .2822222 0 .2822222 0 .2822222 -.2822222 l 0 -2.5400001 L 0 4.2333335 c 0 .2822222 0 .2822222 .28222223 .2822222 z"/><path d="m 4.2333335 4.5155557 l -3.95111127 0 C 0 4.5155557 0 4.5155557 0 4.2333335 L 0 1.6933334 L 4.5155557 4.2333335 c 0 .2822222 0 .2822222 -.2822222 .2822222 z"/></g><path d="m 4.18107 4.5155557 l -3.84658447 0 C -.00000002 4.5155557 -.00000002 4.5155557 -.00000002 4.1986752 L 0 1.6933334 L 4.5155557 4.1986752 c 0 .3168805 0 .3168805 -.3344857 .3168805 z" fill="#fff" fill-opacity=".1"/></svg>