<svg height="16" viewBox="0 0 16 16" width="16" xmlns="http://www.w3.org/2000/svg"><g fill-rule="evenodd"><path d="m 16 8.0010954 a 8.0000001 8.0000001 0 0 1 -16.00000005 0 a 8.0000001 8.0000001 0 1 1 16.00000005 0 z" fill="#dc322f"/><path d="m 4.0041219 4.0003112 l 0 1.3332814 c -.029146 .373662 .096266 .7554117 .3766174 1.0144533 L 6.0900033 8.02914 L 4.3807393 9.710234 C 4.1303886 9.960677 4.0041179 10.313633 4.0041219 10.666718 l 0 1.333282 l 1.3326463 0 c .3529174 0 .7057127 -.126327 .9560287 -.376797 l 1.7092639 -1.710078 l 1.709264 1.710078 C 9.9616408 11.87362 10.314421 11.999987 10.667353 12 L 12 12 L 12 10.666718 C 11.999989 10.313619 11.87373 9.960677 11.623382 9.710234 L 9.9430888 8.02914 L 11.652353 6.3480459 C 11.939245 6.0827223 12 5.7148676 12 5.3335926 l 0 -1.3332814 l -1.332647 0 c -.320376 .00932 -.573695 .1279836 -.9270578 .4347657 L 8.0020608 6.1161709 L 6.2927969 4.4350769 C 6.0564945 4.19029 5.7338727 4.015218 5.3947093 4.0003112 c -.013915 -.0006122 -.044146 -.0001598 -.057941 0 l -1.3326463 0 z" fill="#fff" fill-opacity=".9"/></g></svg>