<svg viewBox="0 0 16 16" xmlns="http://www.w3.org/2000/svg"><g display="block"><path d="m 11.4375 0 c -.132938 0 -.25 .1170605 -.25 .25 l 0 .625 C 10.891082 .9510977 10.631915 1.0978199 10.375 1.25 L 9.90625 .75 C 9.812248 .655998 9.6565025 .655998 9.5625 .75 L 8.75 1.5625 c -.094002 .094002 -.094002 .2497477 0 .34375 L 9.25 2.375 C 9.0978202 2.6319154 8.9510982 2.8910813 8.875 3.1875 l -.625 0 C 8.1170611 3.1875 8 3.3045605 8 3.4375 l 0 1.125 c 0 .1329396 .1170612 .25 .25 .25 l .625 0 C 8.951098 5.1089178 9.0978204 5.3680846 9.25 5.625 l -.5 .46875 c -.094002 .094 -.094002 .249748 0 .34375 L 9.5625 7.25 c .094003 .094 .2497475 .094 .34375 0 L 10.375 6.75 c .256915 .15218 .516082 .298903 .8125 .375 l 0 .625 c 0 .13294 .117062 .25 .25 .25 l 1.125 0 c .132939 0 .25 -.11706 .25 -.25 l 0 -.625 C 13.108918 7.0489 13.368084 6.90218 13.625 6.75 l .46875 .5 c .094 .094 .249748 .094 .34375 0 L 15.25 6.4375 c .094 -.094 .094 -.249748 0 -.34375 L 14.75 5.625 c .15218 -.2569154 .298902 -.5160822 .375 -.8125 l .625 0 c .13294 0 .25 -.1170604 .25 -.25 l 0 -1.125 c 0 -.1329395 -.117054 -.25 -.25 -.25 l -.625 0 C 15.048902 2.8910813 14.90218 2.6319154 14.75 2.375 l .5 -.46875 c .094 -.094002 .094 -.2497475 0 -.34375 L 14.4375 .75 c -.094 -.094002 -.249748 -.094002 -.34375 0 L 13.625 1.25 C 13.368084 1.0978199 13.108918 .951098 12.8125 .875 l 0 -.625 C 12.8125 .1170606 12.69544 0 12.5625 0 l -1.125 0 z M 12 3 c .552285 0 1 .4477152 1 1 c 0 .5522848 -.447715 1 -1 1 c -.552285 0 -1 -.4477152 -1 -1 c 0 -.5522848 .447715 -1 1 -1 z" fill="#888"/><path d="m 11.4375 0 c -.132938 0 -.25 .1170605 -.25 .25 l 0 .625 C 10.891082 .9510977 10.631915 1.0978199 10.375 1.25 L 9.90625 .75 C 9.812248 .655998 9.6565025 .655998 9.5625 .75 L 8.75 1.5625 c -.094002 .094002 -.094002 .2497477 0 .34375 L 9.25 2.375 C 9.0978202 2.6319154 8.9510982 2.8910813 8.875 3.1875 l -.625 0 C 8.1170611 3.1875 8 3.3045605 8 3.4375 l 0 1.125 c 0 .1329396 .1170612 .25 .25 .25 l .625 0 C 8.951098 5.1089178 9.0978204 5.3680846 9.25 5.625 l -.5 .46875 c -.094002 .094 -.094002 .249748 0 .34375 L 9.5625 7.25 c .094003 .094 .2497475 .094 .34375 0 L 10.375 6.75 c .256915 .15218 .516082 .298903 .8125 .375 l 0 .625 c 0 .13294 .117062 .25 .25 .25 l 1.125 0 c .132939 0 .25 -.11706 .25 -.25 l 0 -.625 C 13.108918 7.0489 13.368084 6.90218 13.625 6.75 l .46875 .5 c .094 .094 .249748 .094 .34375 0 L 15.25 6.4375 c .094 -.094 .094 -.249748 0 -.34375 L 14.75 5.625 c .15218 -.2569154 .298902 -.5160822 .375 -.8125 l .625 0 c .13294 0 .25 -.1170604 .25 -.25 l 0 -1.125 c 0 -.1329395 -.117054 -.25 -.25 -.25 l -.625 0 C 15.048902 2.8910813 14.90218 2.6319154 14.75 2.375 l .5 -.46875 c .094 -.094002 .094 -.2497475 0 -.34375 L 14.4375 .75 c -.094 -.094002 -.249748 -.094002 -.34375 0 L 13.625 1.25 C 13.368084 1.0978199 13.108918 .951098 12.8125 .875 l 0 -.625 C 12.8125 .1170606 12.69544 0 12.5625 0 l -1.125 0 z M 12 3 c .552285 0 1 .4477152 1 1 c 0 .5522848 -.447715 1 -1 1 c -.552285 0 -1 -.4477152 -1 -1 c 0 -.5522848 .447715 -1 1 -1 z" fill-opacity=".1"/><path d="m 3.4375 4 c -.1329384 0 -.25 .1170605 -.25 .25 l 0 .625 C 2.8910824 4.9510977 2.6319154 5.0978199 2.375 5.25 L 1.90625 4.75 C 1.812248 4.655998 1.6565025 4.655998 1.5625 4.75 L .75 5.5625 c -.094002 .094002 -.094002 .2497477 0 .34375 L 1.25 6.375 C 1.0978202 6.6319154 .9510982 6.8910813 .875 7.1875 l -.625 0 C .1170611 7.1875 0 7.3045605 0 7.4375 l 0 1.125 c 0 .1329396 .1170612 .25 .25 .25 l .625 0 C .951098 9.1089178 1.0978204 9.3680846 1.25 9.625 l -.5 .46875 c -.094002 .094 -.094002 .249748 0 .34375 L 1.5625 11.25 c .094003 .094 .2497475 .094 .34375 0 L 2.375 10.75 c .2569154 .15218 .5160824 .298903 .8125 .375 l 0 .625 c 0 .13294 .1170616 .25 .25 .25 l 1.125 0 c .132939 0 .25 -.11706 .25 -.25 l 0 -.625 C 5.108918 11.0489 5.368084 10.90218 5.625 10.75 l .46875 .5 c .094 .094 .249748 .094 .34375 0 L 7.25 10.4375 c .094 -.094 .094 -.249748 0 -.34375 L 6.75 9.625 C 6.90218 9.3680846 7.048902 9.1089178 7.125 8.8125 l .625 0 C 7.88294 8.8125 8 8.6954396 8 8.5625 L 8 7.4375 C 8 7.3045605 7.882946 7.1875 7.75 7.1875 l -.625 0 C 7.048902 6.8910813 6.90218 6.6319154 6.75 6.375 L 7.25 5.90625 C 7.344 5.812248 7.344 5.6565025 7.25 5.5625 L 6.4375 4.75 C 6.3435 4.655998 6.187752 4.655998 6.09375 4.75 L 5.625 5.25 C 5.368084 5.0978199 5.108918 4.951098 4.8125 4.875 l 0 -.625 C 4.8125 4.1170606 4.69544 4 4.5625 4 L 3.4375 4 z M 4 7 C 4.5522847 7 5 7.4477152 5 8 C 5 8.5522848 4.5522847 9 4 9 C 3.4477153 9 3 8.5522848 3 8 C 3 7.4477152 3.4477153 7 4 7 z" fill="#888"/><path d="m 3.4375 4 c -.132938 0 -.25 .1170605 -.25 .25 l 0 .625 C 2.891082 4.9510977 2.631915 5.0978199 2.375 5.25 L 1.90625 4.75 C 1.812248 4.655998 1.6565025 4.655998 1.5625 4.75 L .75 5.5625 c -.094002 .094002 -.094002 .2497477 0 .34375 L 1.25 6.375 C 1.0978202 6.6319154 .9510982 6.8910813 .875 7.1875 l -.625 0 C .1170611 7.1875 0 7.3045605 0 7.4375 l 0 1.125 c 0 .1329396 .1170612 .25 .25 .25 l .625 0 C .951098 9.1089178 1.0978204 9.3680846 1.25 9.625 l -.5 .46875 c -.094002 .094 -.094002 .249748 0 .34375 L 1.5625 11.25 c .094003 .094 .2497475 .094 .34375 0 L 2.375 10.75 c .256915 .15218 .516082 .298903 .8125 .375 l 0 .625 c 0 .13294 .117062 .25 .25 .25 l 1.125 0 c .132939 0 .25 -.11706 .25 -.25 l 0 -.625 C 5.108918 11.0489 5.368084 10.90218 5.625 10.75 l .46875 .5 c .094 .094 .249748 .094 .34375 0 L 7.25 10.4375 c .094 -.094 .094 -.249748 0 -.34375 L 6.75 9.625 C 6.90218 9.3680846 7.048902 9.1089178 7.125 8.8125 l .625 0 C 7.88294 8.8125 8 8.6954396 8 8.5625 L 8 7.4375 C 8 7.3045605 7.882946 7.1875 7.75 7.1875 l -.625 0 C 7.048902 6.8910813 6.90218 6.6319154 6.75 6.375 L 7.25 5.90625 C 7.344 5.812248 7.344 5.6565025 7.25 5.5625 L 6.4375 4.75 C 6.3435 4.655998 6.187752 4.655998 6.09375 4.75 L 5.625 5.25 C 5.368084 5.0978199 5.108918 4.951098 4.8125 4.875 l 0 -.625 C 4.8125 4.1170606 4.69544 4 4.5625 4 L 3.4375 4 z M 4 7 C 4.552285 7 5 7.4477152 5 8 C 5 8.5522848 4.552285 9 4 9 C 3.447715 9 3 8.5522848 3 8 C 3 7.4477152 3.447715 7 4 7 z" fill-opacity=".1"/><path d="m 9.8504333 6.0110563 c -.037072 -.00227 -.054951 .01517 -.09375 .03125 l -1.34375 .53125 c -.1551958 .06432 -.2205346 .282217 -.15625 .4375 l .28125 .78125 c -.3092475 .232302 -.523659 .47919 -.75 .78125 l -.78125 -.34375 c -.1551956 -.06432 -.3732154 .032224 -.4375 .1875 l -.53125 1.28125 c -.064285 .155281 .032301 .3419297 .1875 .4062497 l .78125 .34375 c -.053423 .373724 -.054498 .741943 0 1.125 l -.78125 .34375 c -.1551964 .06432 -.2205347 .188467 -.15625 .34375 l .5 1.34375 c .064285 .155282 .2823037 .220571 .4375 .15625 l .78125 -.3125 c .2321762 .309418 .5106068 .554784 .8125 .78125 l -.34375 .78125 c -.064284 .155284 .00106 .37318 .15625 .4375 l 1.34375 .53125 c .1551974 .06432 .2794657 -.03222 .3437497 -.1875 l .34375 -.78125 c .373519 .05345 .742157 .05452 1.125 0 l .3125 .78125 c .06429 .155283 .282304 .220571 .4375 .15625 l 1.28125 -.5 c .155197 -.06432 .251785 -.282217 .1875 -.4375 l -.34375 -.78125 c .309247 -.232302 .554909 -.47919 .78125 -.78125 l .8125 .3125 c .155199 .06432 .310715 -.000906 .375 -.15625 l .5625 -1.34375 c .06429 -.155284 -.000987 -.279431 -.15625 -.34375 l -.8125 -.34375 c .05342 -.373724 .05449 -.741946 0 -1.125 l .78125 -.34375 c .155197 -.06432 .251785 -.1884667 .1875 -.3437497 l -.5625 -1.34375 c -.06428 -.155282 -.251053 -.25182 -.40625 -.1875 l -.78125 .34375 c -.232176 -.309419 -.479356 -.554786 -.78125 -.78125 l .34375 -.84375 c .06429 -.155284 -.03231 -.310681 -.1875 -.375 l -1.28125 -.53125 c -.155197 -.06432 -.373215 .032224 -.4375 .1875 l -.3125 .78125 c -.373518 -.05345 -.742156 -.05452 -1.125 0 l -.34375 -.78125 C 10.052218 6.1133441 9.9616493 6.0178746 9.8504333 6.0110563 z m 1.1562497 3 c 1.10457 0 2 .8954305 2 1.9999997 c 0 1.10457 -.89543 2 -2 2 c -1.1045692 0 -1.9999997 -.89543 -1.9999997 -2 c 0 -1.1045692 .8954305 -1.9999997 1.9999997 -1.9999997 z" fill="#888"/></g></svg>