<svg height="16.0243" viewBox="0 0 16 16.0243" width="16" xmlns="http://www.w3.org/2000/svg"><path d="m 27.348944 -1.5001716 a 8.0000078 7.9999762 0 1 1 -16.000015 0 a 8.0000078 7.9999762 0 1 1 16.000015 0 z" fill="#859900" fill-rule="evenodd" transform="matrix(0 -1 1 0 9.50017 27.36109)"/><g fill="#fff" fill-opacity=".9"><rect height="8.004" rx=".837" ry="0" transform="matrix(0 .75 .74966 0 1.98203 14.01214)" width="2.667" x="-9.333" y=".04"/><path d="M 6 2.34375 C 3.6688332 3.1669998 2 5.387003 2 8 c 0 3.313708 2.6862918 6 6 6 c 3.313708 0 6 -2.686292 6 -6 C 14 5.387003 12.331167 3.1669999 10 2.34375 L 10 4.5625 C 11.193791 5.2545851 12 6.5207916 12 8 C 12 10.209139 10.209139 12 8 12 C 5.7908612 12 4 10.209139 4 8 C 4 6.5207915 4.8062088 5.2545851 6 4.5625 L 6 2.34375 z" fill-rule="evenodd" transform="matrix(0 -1 1 0 -.01213 16.01214)"/></g></svg>