<svg height="16" viewBox="0 0 16 16" width="16" xmlns="http://www.w3.org/2000/svg"><path d="M 11 0 C 10.693941 0 10.403541 .130465 10.1875 .34375 L 6.34375 4.0625 c -.4500871 .438255 -.4500871 1.155495 0 1.59375 c .4500856 .438258 1.1749139 .438258 1.625 0 L 10 3.6875 L 10 10 l 0 6 l 2 0 l 0 -6 l 0 -6.3125 l 2.03125 1.96875 c .330064 .33308 .843165 .431146 1.28125 .25 C 15.750584 5.725104 16.015 5.308302 16 4.84375 C 15.991 4.5515792 15.869291 4.264097 15.65625 4.0625 L 11.8125 .34375 C 11.596459 .130465 11.306059 0 11 0 z" fill="#dc322f" transform="matrix(1 0 0 -1 0 16)"/><g fill="#268bd2" fill-rule="evenodd" transform="matrix(1 0 0 -1 0 15)"><path d="M 6 2.5 C 6 3.8807119 4.8807119 5 3.5 5 C 2.1192881 5 1 3.8807119 1 2.5 C 1 1.1192881 2.1192881 0 3.5 0 C 4.8807119 0 6 1.1192881 6 2.5 z" transform="matrix(.8 0 0 .8 -.8 1)"/><path d="M 6 2.5 C 6 3.8807119 4.8807119 5 3.5 5 C 2.1192881 5 1 3.8807119 1 2.5 C 1 1.1192881 2.1192881 0 3.5 0 C 4.8807119 0 6 1.1192881 6 2.5 z" transform="matrix(.8 0 0 .8 -.8 6)"/><path d="M 6 2.5 C 6 3.8807119 4.8807119 5 3.5 5 C 2.1192881 5 1 3.8807119 1 2.5 C 1 1.1192881 2.1192881 0 3.5 0 C 4.8807119 0 6 1.1192881 6 2.5 z" transform="matrix(.8 0 0 .8 -.8 11)"/></g></svg>