<svg height="16" width="16" xmlns="http://www.w3.org/2000/svg"><g fill="#d3dae3"><path d="M 8 1 C 8.554 1 9 1.446 9 2 V 7 C 9 7.554 8.554 8 8 8 C 7.446 8 7 7.554 7 7 V 2 C 7 1.446 7.446 1 8 1 Z"/><path d="M 11 3 C 10.448 3 10 3.4477 10 4 C 10 4.2839 10.102 4.5767 10.329 4.748 C 11.358 5.525 11.998 6.7108 12 8 C 12 10.209 10.209 12 8 12 C 5.7909 12 4 10.209 4 8 C 4.0024 6.7105 4.644 5.5253 5.6719 4.7471 C 5.8981 4.5759 5.9994 4.2833 6 4 C 6 3.4477 5.5523 3 5 3 C 4.7151 3 4.4724 3.1511 4.2539 3.334 C 2.8611 4.4998 2.0063 6.1837 2 8 C 2 11.314 4.6863 14 8 14 C 11.314 14 14 11.314 14 8 C 13.996 6.1678 13.137 4.4602 11.714 3.2998 C 11.504 3.1282 11.267 3 11 3 Z"/></g></svg>