<svg xmlns="http://www.w3.org/2000/svg" xmlns:xlink="http://www.w3.org/1999/xlink" width="48" height="48">
  <defs>
    <linearGradient xlink:href="#a" id="r" gradientUnits="userSpaceOnUse" x1="24.3" y1="23" x2="24.3" y2="41"/>
    <linearGradient id="a">
      <stop offset="0" stop-color="#fff"/>
      <stop offset="1" stop-color="#fff" stop-opacity="0"/>
    </linearGradient>
    <linearGradient xlink:href="#b" id="q" gradientUnits="userSpaceOnUse" gradientTransform="matrix(0 .3705 -.36175 0 34 6)" x1="7.6" y1="26.4" x2="41.9" y2="26.4"/>
    <linearGradient id="b">
      <stop offset="0" stop-color="#fff"/>
      <stop offset="1" stop-color="#fff" stop-opacity="0"/>
    </linearGradient>
    <linearGradient xlink:href="#c" id="p" gradientUnits="userSpaceOnUse" gradientTransform="translate(0 1)" x1="24" y1="5" x2="24" y2="43"/>
    <linearGradient id="c">
      <stop offset="0" stop-color="#fff"/>
      <stop offset="1" stop-color="#fff" stop-opacity="0"/>
    </linearGradient>
    <linearGradient id="d">
      <stop offset="0" stop-color="#fafafa"/>
      <stop offset="1" stop-color="#e6e6e6"/>
    </linearGradient>
    <linearGradient id="e">
      <stop offset="0" stop-color="#a3c0d0"/>
      <stop offset="1" stop-color="#427da1"/>
    </linearGradient>
    <linearGradient xlink:href="#f" id="n" gradientUnits="userSpaceOnUse" gradientTransform="translate(0 1)" x1="14" y1="44.1" x2="14" y2="4"/>
    <linearGradient id="f">
      <stop offset="0" stop-color="#2e4a5a"/>
      <stop offset="1" stop-color="#6e8796"/>
    </linearGradient>
    <linearGradient id="g">
      <stop offset="0" stop-color="#181818"/>
      <stop offset="1" stop-color="#181818" stop-opacity="0"/>
    </linearGradient>
    <linearGradient id="h">
      <stop offset="0" stop-color="#181818"/>
      <stop offset="1" stop-color="#181818" stop-opacity="0"/>
    </linearGradient>
    <linearGradient x1="25.1" y1="47" x2="25.1" y2="40" id="l" xlink:href="#i" gradientUnits="userSpaceOnUse"/>
    <linearGradient id="i">
      <stop offset="0" stop-color="#181818" stop-opacity="0"/>
      <stop offset=".5" stop-color="#181818"/>
      <stop offset="1" stop-color="#181818" stop-opacity="0"/>
    </linearGradient>
    <radialGradient xlink:href="#d" id="o" gradientUnits="userSpaceOnUse" gradientTransform="matrix(0 1.0262 -1.65611 .00094 -56 -45)" cx="48.4" cy="-48" fx="48.4" fy="-48" r="38.2"/>
    <radialGradient xlink:href="#e" id="m" gradientUnits="userSpaceOnUse" gradientTransform="matrix(0 2.04788 -2.74105 0 47 -9)" cx="9.3" cy="8.4" fx="9.3" fy="8.4" r="20"/>
    <radialGradient cx="5" cy="43.5" r="2.5" fx="5" fy="43.5" id="j" xlink:href="#g" gradientUnits="userSpaceOnUse" gradientTransform="matrix(2.00378 0 0 1.4 28 -17)"/>
    <radialGradient cx="5" cy="43.5" r="2.5" fx="5" fy="43.5" id="k" xlink:href="#h" gradientUnits="userSpaceOnUse" gradientTransform="matrix(2.00378 0 0 1.4 -20 -104)"/>
  </defs>
  <g opacity=".4">
    <path fill="url(#j)" d="M38 40h5v7h-5z" transform="matrix(1.1579 0 0 .57143 -4 19)"/>
    <path transform="matrix(-1.1579 0 0 -.57143 -4 19)" fill="url(#k)" d="M-10-47h5v7h-5z"/>
    <path fill="url(#l)" d="M10 40h28v7H10z" transform="matrix(1.1579 0 0 .57143 -4 19)"/>
  </g>
  <rect y="5.5" x="4.5" ry="2.2" rx="2.2" height="39" width="39" fill="url(#m)" stroke="url(#n)" stroke-linecap="round" stroke-linejoin="round"/>
  <path style="marker:none" d="M21 7a2 2 0 00-2 2v4h-1a2 2 0 00-2 3l5 6v2l-1-1h-3l-1 2a2 2 0 00-1 2l1 2h-1-1l-1 2v2l1 2h2v1l-1 1v1l1 1 1 2a2 2 0 003 0l1-1v2h1l1 1h2l2-1 1-2 1 1h2l2-2a2 2 0 000-2v-2h2v-4-2h-2v-2l1-1-1-1-2-2a2 2 0 00-2 0l-1 1a3 3 0 00-1-2l5-6a2 2 0 00-2-3h-1V9a2 2 0 00-2-2h-6zm3 24l1 1-1 1v-1-1z" opacity=".1" overflow="visible"/>
  <path style="marker:none" d="M21 8a1 1 0 00-1 1v5h-2a1 1 0 00-1 2l6 6h-1v3l-1 1-1-2h-1-1l-1 2h-1v1l1 1 1 1v1h-2-1l-1 1v2a1 1 0 001 1h3v1l-1 1-1 1v1h1l1 2h2l1-2 1 1v3h3a1 1 0 002-1v-2-1l2 2h2l1-2v-1-1l-1-1v-1h3v-3a1 1 0 000-1h-3v-1l1-1v-1-1l-1-2h-1-1l-2 2v-2-1l-1-1h-1l6-6a1 1 0 00-1-2h-2V9a1 1 0 00-1-1h-6zm3 22a2 2 0 110 4 2 2 0 010-4z" opacity=".1" overflow="visible"/>
  <path style="marker:none" d="M21 9v6h-3l6 7 6-7h-3V9h-6zm2 14v3l-2 1-2-2-2 1v1l2 2-1 2h-2-1v2h3l1 2-2 2v1l2 1 2-2 2 1v3h2l1-1v-2l2-1 1 2h1l1-1v-1l-1-2v-2h3v-2h-3v-2l1-2v-1l-1-1h-1l-1 2-2-1v-2l-1-1h-2zm1 6c2 0 3 1 3 3s-1 3-3 3c-1 0-2-1-2-3s1-3 2-3z" fill="url(#o)" overflow="visible"/>
  <rect y="6.5" x="5.5" ry="1.4" rx="1.4" height="37" width="37" opacity=".4" fill="none" stroke="url(#p)" stroke-linecap="round" stroke-linejoin="round"/>
  <path style="marker:none" d="M29 15l-5 6-5-5h3V9h5v6h2z" fill="none" stroke="url(#q)" overflow="visible"/>
  <path style="marker:none" d="M23 23v3h0l-2 1h0l-2-2s0 0 0 0l-1 2s0 0 0 0l1 1v3h-3s0 0 0 0v2s0 0 0 0h3v3l-1 1s0 0 0 0l1 2s0 0 0 0l2-2h0l2 1h0v3h2v-3h1l1-1h1l2 2s0 0 0 0l1-2s0 0 0 0l-2-1v-1l1-2h3s0 0 0 0v-2s0 0 0 0h-3 0l-1-2v-1l2-1s0 0 0 0l-1-2s0 0 0 0l-2 2h-1l-1-1h-1v-2-1h-2zm1 6a3 3 0 110 6 3 3 0 010-6z" fill="none" stroke="url(#r)" overflow="visible"/>
</svg>