<?xml version="1.0" encoding="UTF-8" standalone="no"?>
<!-- Created with Inkscape (http://www.inkscape.org/) -->

<svg
   xmlns:dc="http://purl.org/dc/elements/1.1/"
   xmlns:cc="http://creativecommons.org/ns#"
   xmlns:rdf="http://www.w3.org/1999/02/22-rdf-syntax-ns#"
   xmlns:svg="http://www.w3.org/2000/svg"
   xmlns="http://www.w3.org/2000/svg"
   xmlns:sodipodi="http://sodipodi.sourceforge.net/DTD/sodipodi-0.dtd"
   xmlns:inkscape="http://www.inkscape.org/namespaces/inkscape"
   width="1920"
   height="350"
   viewBox="0 0 507.99999 92.604164"
   version="1.1"
   id="svg6749"
   inkscape:export-filename="/home/francesco/Scaricati/waveform_1.png"
   inkscape:export-xdpi="96.003792"
   inkscape:export-ydpi="96.003792"
   inkscape:version="0.92.4 5da689c313, 2019-01-14"
   sodipodi:docname="waveform_1.svg">
  <defs
     id="defs6743">
    <clipPath
       clipPathUnits="userSpaceOnUse"
       id="clipPath188">
      <path
         d="M 0,500 H 500 V 0 H 0 Z"
         id="path186"
         inkscape:connector-curvature="0" />
    </clipPath>
    <clipPath
       clipPathUnits="userSpaceOnUse"
       id="clipPath236">
      <path
         d="M 59.7151,381.603 H 461.155 V 337.441 H 59.7151 Z"
         id="path234"
         inkscape:connector-curvature="0" />
    </clipPath>
  </defs>
  <sodipodi:namedview
     id="base"
     pagecolor="#ffffff"
     bordercolor="#666666"
     borderopacity="1.0"
     inkscape:pageopacity="0.0"
     inkscape:pageshadow="2"
     inkscape:zoom="0.5"
     inkscape:cx="882.81521"
     inkscape:cy="359.07866"
     inkscape:document-units="px"
     inkscape:current-layer="layer1"
     showgrid="false"
     units="px"
     inkscape:pagecheckerboard="true"
     borderlayer="false"
     inkscape:showpageshadow="false"
     inkscape:window-width="1920"
     inkscape:window-height="1025"
     inkscape:window-x="0"
     inkscape:window-y="27"
     inkscape:window-maximized="1" />
  <metadata
     id="metadata6746">
    <rdf:RDF>
      <cc:Work
         rdf:about="">
        <dc:format>image/svg+xml</dc:format>
        <dc:type
           rdf:resource="http://purl.org/dc/dcmitype/StillImage" />
        <dc:title></dc:title>
      </cc:Work>
    </rdf:RDF>
  </metadata>
  <g
     inkscape:label="Livello 1"
     inkscape:groupmode="layer"
     id="layer1"
     transform="translate(0,-204.39582)">
    <rect
       style="fill:#ffffff;fill-opacity:1;stroke-width:0.42648661"
       id="rect864"
       width="508"
       height="92.604164"
       x="0"
       y="204.39581" />
    <g
       clip-path="url(#clipPath188)"
       id="g184"
       transform="matrix(1.3773828,0,0,-1.3780257,-91.785669,773.51381)">
      <g
         transform="translate(41.1838,341.1538)"
         id="g190">
        <path
           inkscape:connector-curvature="0"
           id="path192"
           style="fill:none;stroke:#124cb6;stroke-width:0.72500002;stroke-linecap:butt;stroke-linejoin:miter;stroke-miterlimit:10;stroke-dasharray:none;stroke-opacity:1"
           d="m 0,0 c 0.737,1.218 24.148,2.604 25.328,2.526 1.789,-0.118 34.784,-3.506 36.258,-3.422 1.451,0.082 33.691,3.421 34.983,3.422 1.346,0 36.729,-3.628 38.139,-3.667 1.459,-0.04 32.606,3.803 33.796,3.667 1.07,-0.123 29.657,-3.325 30.535,-3.341 0.805,-0.014 23.224,2.669 24.119,2.689 0.971,0.021 28.022,-3.121 29.231,-3.259 1.522,-0.173 39.274,4.599 40.514,4.399 1.123,-0.18 34.664,-4.237 35.775,-4.399 1.086,-0.158 31.494,3.615 32.916,3.585 0.971,-0.021 34.547,-1.808 35.168,-3.911" />
      </g>
      <g
         transform="translate(43.5226,344.6164)"
         id="g194">
        <path
           inkscape:connector-curvature="0"
           id="path196"
           style="fill:none;stroke:#175ab6;stroke-width:0.69999999;stroke-linecap:butt;stroke-linejoin:miter;stroke-miterlimit:10;stroke-dasharray:none;stroke-opacity:1"
           d="m 0,0 c 1.474,2.437 22.811,5.207 25.172,5.051 3.578,-0.236 33.317,-7.01 36.265,-6.843 2.9,0.164 32.358,6.843 34.941,6.843 2.693,10e-4 35.356,-7.254 38.176,-7.332 2.917,-0.081 30.887,7.605 33.269,7.332 2.139,-0.245 28.425,-6.649 30.181,-6.68 1.609,-0.029 21.927,5.338 23.718,5.377 1.943,0.042 26.319,-6.243 28.737,-6.518 3.043,-0.347 37.425,9.198 39.905,8.799 2.245,-0.361 32.523,-8.476 34.744,-8.799 2.173,-0.316 29.548,7.23 32.392,7.17 1.942,-0.042 33.341,-3.617 34.585,-7.822" />
      </g>
      <g
         transform="translate(45.8613,348.0789)"
         id="g198">
        <path
           inkscape:connector-curvature="0"
           id="path200"
           style="fill:none;stroke:#1b69b5;stroke-width:0.67500001;stroke-linecap:butt;stroke-linejoin:miter;stroke-miterlimit:10;stroke-dasharray:none;stroke-opacity:1"
           d="m 0,0 c 2.21,3.655 21.474,7.811 25.016,7.577 5.367,-0.354 31.849,-10.516 36.271,-10.266 4.351,0.247 31.026,10.265 34.901,10.266 4.039,0.001 33.981,-10.882 38.212,-10.999 4.375,-0.121 29.169,11.408 32.741,10.999 3.209,-0.367 27.195,-9.974 29.828,-10.021 2.414,-0.044 20.631,8.007 23.317,8.066 2.914,0.063 24.616,-9.364 28.243,-9.777 4.565,-0.52 35.575,13.797 39.296,13.198 3.368,-0.542 30.382,-12.713 33.714,-13.198 3.258,-0.474 27.601,10.845 31.866,10.754 2.914,-0.062 32.137,-5.424 34.002,-11.732" />
      </g>
      <g
         transform="translate(48.2001,351.5415)"
         id="g202">
        <path
           inkscape:connector-curvature="0"
           id="path204"
           style="fill:none;stroke:#1f77b5;stroke-width:0.64999998;stroke-linecap:butt;stroke-linejoin:miter;stroke-miterlimit:10;stroke-dasharray:none;stroke-opacity:1"
           d="M 0,0 C 2.947,4.874 20.137,10.414 24.86,10.103 32.016,9.63 55.242,-3.918 61.138,-3.585 c 5.8,0.329 29.693,13.686 34.86,13.688 5.385,10e-4 32.607,-14.51 38.247,-14.665 5.834,-0.162 27.451,15.209 32.214,14.665 4.28,-0.49 25.964,-13.299 29.475,-13.362 3.219,-0.058 19.335,10.676 22.916,10.754 3.885,0.085 22.913,-12.484 27.749,-13.035 6.087,-0.694 33.726,18.396 38.687,17.598 4.49,-0.723 28.24,-16.952 32.683,-17.598 4.344,-0.632 25.656,14.46 31.342,14.339 3.886,-0.083 30.932,-7.233 33.419,-15.643" />
      </g>
      <g
         transform="translate(50.5389,355.0041)"
         id="g206">
        <path
           inkscape:connector-curvature="0"
           id="path208"
           style="fill:none;stroke:#2386b4;stroke-width:0.625;stroke-linecap:butt;stroke-linejoin:miter;stroke-miterlimit:10;stroke-dasharray:none;stroke-opacity:1"
           d="m 0,0 c 3.684,6.092 18.8,13.018 24.703,12.628 8.946,-0.59 28.915,-17.526 36.285,-17.109 7.251,0.41 28.361,17.108 34.819,17.109 6.731,0.002 31.234,-18.136 38.284,-18.331 7.292,-0.201 25.733,19.012 31.687,18.331 5.349,-0.612 24.733,-16.623 29.121,-16.702 4.024,-0.072 18.039,13.346 22.515,13.443 4.857,0.106 21.21,-15.605 27.255,-16.294 7.608,-0.867 31.877,22.996 38.078,21.997 5.612,-0.903 26.099,-21.189 31.652,-21.997 5.431,-0.79 23.71,18.075 30.818,17.924 4.857,-0.104 29.726,-9.041 32.835,-19.554" />
      </g>
      <g
         transform="translate(52.8777,358.4666)"
         id="g210">
        <path
           inkscape:connector-curvature="0"
           id="path212"
           style="fill:none;stroke:#2895b3;stroke-width:0.60000002;stroke-linecap:butt;stroke-linejoin:miter;stroke-miterlimit:10;stroke-dasharray:none;stroke-opacity:1"
           d="m 0,0 c 4.421,7.311 17.463,15.622 24.547,15.154 10.735,-0.709 27.448,-21.032 36.291,-20.531 8.702,0.492 27.029,20.529 34.779,20.531 8.077,0.002 29.859,-21.764 38.32,-21.998 8.751,-0.241 24.015,22.815 31.159,21.998 6.419,-0.735 23.502,-19.947 28.768,-20.042 4.829,-0.087 16.742,16.014 22.114,16.131 5.828,0.127 19.507,-18.726 26.761,-19.553 9.13,-1.041 30.027,27.595 37.468,26.397 6.736,-1.084 23.958,-25.428 30.622,-26.397 6.517,-0.948 21.764,21.69 30.294,21.509 5.828,-0.124 28.521,-10.85 32.251,-23.464" />
      </g>
      <g
         transform="translate(55.2165,361.9292)"
         id="g214">
        <path
           inkscape:connector-curvature="0"
           id="path216"
           style="fill:none;stroke:#2ca3b3;stroke-width:0.57499999;stroke-linecap:butt;stroke-linejoin:miter;stroke-miterlimit:10;stroke-dasharray:none;stroke-opacity:1"
           d="m 0,0 c 5.157,8.529 16.126,18.225 24.391,17.679 12.524,-0.826 25.98,-24.536 36.298,-23.952 10.151,0.574 25.696,23.95 34.737,23.952 9.424,0.003 28.486,-25.391 38.356,-25.663 10.21,-0.282 22.297,26.617 30.632,25.663 7.489,-0.856 22.271,-23.271 28.415,-23.382 5.634,-0.101 15.446,18.683 21.713,18.82 6.799,0.148 17.804,-21.848 26.266,-22.812 10.653,-1.214 28.179,32.194 36.86,30.796 7.858,-1.265 21.817,-29.665 29.592,-30.796 7.603,-1.106 19.817,25.305 29.768,25.093 6.8,-0.144 27.317,-12.657 31.669,-27.374" />
      </g>
      <g
         transform="translate(57.5553,365.3918)"
         id="g218">
        <path
           inkscape:connector-curvature="0"
           id="path220"
           style="fill:none;stroke:#30b2b2;stroke-width:0.55000001;stroke-linecap:butt;stroke-linejoin:miter;stroke-miterlimit:10;stroke-dasharray:none;stroke-opacity:1"
           d="M 0,0 C 5.894,9.748 14.789,20.829 24.235,20.205 38.548,19.26 48.748,-7.837 60.539,-7.17 c 11.602,0.657 24.364,27.373 34.697,27.375 10.77,0.003 27.112,-29.018 38.392,-29.33 11.668,-0.322 20.579,30.42 30.105,29.33 8.558,-0.979 21.04,-26.596 28.061,-26.723 6.438,-0.116 14.15,21.353 21.312,21.509 7.771,0.169 16.101,-24.969 25.772,-26.071 12.175,-1.388 26.329,36.793 36.251,35.196 8.98,-1.446 19.676,-33.903 28.561,-35.196 8.689,-1.264 17.871,28.92 29.244,28.678 7.771,-0.165 26.111,-14.466 31.085,-31.285" />
      </g>
      <g
         transform="translate(59.8941,368.8543)"
         id="g222">
        <path
           inkscape:connector-curvature="0"
           id="path224"
           style="fill:none;stroke:#35c0b2;stroke-width:0.52499998;stroke-linecap:butt;stroke-linejoin:miter;stroke-miterlimit:10;stroke-dasharray:none;stroke-opacity:1"
           d="M 0,0 C 6.631,10.966 13.452,23.432 24.079,22.731 40.181,21.668 47.124,-8.817 60.39,-8.066 c 13.052,0.739 23.031,30.794 34.656,30.797 12.116,0.002 25.737,-32.646 38.428,-32.996 13.126,-0.363 18.86,34.222 29.577,32.996 9.628,-1.102 19.809,-29.921 27.708,-30.063 7.243,-0.131 12.853,24.021 20.912,24.197 8.741,0.19 14.397,-28.09 25.277,-29.33 13.696,-1.561 24.48,41.392 35.642,39.595 10.103,-1.626 17.534,-38.141 27.53,-39.595 9.776,-1.423 15.925,32.535 28.72,32.263 8.742,-0.186 24.906,-16.274 30.502,-35.196" />
      </g>
      <g
         transform="translate(62.2329,372.3169)"
         id="g226">
        <path
           inkscape:connector-curvature="0"
           id="path228"
           style="fill:none;stroke:#39cfb1;stroke-width:0.5;stroke-linecap:butt;stroke-linejoin:miter;stroke-miterlimit:10;stroke-dasharray:none;stroke-opacity:1"
           d="M 0,0 C 7.368,12.185 12.115,26.036 23.922,25.256 41.814,24.075 45.501,-9.796 60.24,-8.962 c 14.502,0.821 21.699,34.215 34.615,34.218 13.463,0.003 24.364,-36.273 38.464,-36.662 14.585,-0.403 17.143,38.025 29.05,36.662 10.698,-1.224 18.578,-33.245 27.355,-33.403 8.048,-0.145 11.557,26.69 20.511,26.886 9.712,0.211 12.694,-31.211 24.783,-32.589 15.218,-1.735 22.63,45.991 35.033,43.995 11.225,-1.807 15.393,-42.379 26.499,-43.995 10.862,-1.581 13.98,36.15 28.196,35.847 9.713,-0.206 23.701,-18.082 29.918,-39.106" />
      </g>
      <g
         id="g230">
        <g
           id="g232" />
        <g
           id="g284">
          <g
             style="opacity:0.41999799"
             id="g282"
             clip-path="url(#clipPath236)">
            <g
               id="g240"
               transform="translate(59.7151,337.6913)">
              <path
                 inkscape:connector-curvature="0"
                 id="path238"
                 style="fill:none;stroke:#0e3db7;stroke-width:0.5;stroke-linecap:butt;stroke-linejoin:miter;stroke-miterlimit:10;stroke-dasharray:none;stroke-opacity:1"
                 d="M 0,0 H 401.44" />
            </g>
            <g
               id="g244"
               transform="translate(60.396,340.3095)">
              <path
                 inkscape:connector-curvature="0"
                 id="path242"
                 style="fill:none;stroke:#124cb6;stroke-width:0.52499998;stroke-linecap:butt;stroke-linejoin:miter;stroke-miterlimit:10;stroke-dasharray:none;stroke-opacity:1"
                 d="m 0,0 c 0.737,-0.831 26.099,-1.776 27.28,-1.723 1.789,0.08 34.541,2.391 36.014,2.334 1.451,-0.056 29.656,-2.334 30.948,-2.334 1.346,0 30.835,2.475 32.245,2.501 1.459,0.028 32.702,-2.594 33.893,-2.501 1.07,0.083 23.522,2.268 24.4,2.279 0.805,0.01 20.671,-1.821 21.567,-1.835 0.971,-0.014 24.92,2.13 26.129,2.224 1.522,0.118 38.698,-3.138 39.938,-3.002 1.122,0.124 27.076,2.892 28.187,3.002 1.086,0.108 31.676,-2.466 33.097,-2.446 0.972,0.014 27.418,1.234 28.039,2.668 0,0 37.072,2.346 38.02,-2.495" />
            </g>
            <g
               id="g248"
               transform="translate(61.0769,342.9277)">
              <path
                 inkscape:connector-curvature="0"
                 id="path246"
                 style="fill:none;stroke:#175ab6;stroke-width:0.55000001;stroke-linecap:butt;stroke-linejoin:miter;stroke-miterlimit:10;stroke-dasharray:none;stroke-opacity:1"
                 d="m 0,0 c 1.473,-1.663 25.211,-3.553 27.572,-3.446 3.578,0.161 33.433,4.783 36.381,4.669 2.901,-0.112 28.439,-4.669 31.022,-4.669 2.693,-10e-4 29.451,4.949 32.272,5.002 2.916,0.055 31.638,-5.188 34.02,-5.002 2.139,0.167 22.307,4.536 24.062,4.558 1.61,0.02 19.659,-3.642 21.45,-3.669 1.942,-0.029 23.561,4.259 25.979,4.447 3.044,0.237 37.578,-6.276 40.059,-6.003 2.245,0.246 25.113,5.782 27.334,6.003 2.172,0.216 30.375,-4.933 33.218,-4.892 1.943,0.028 26.339,2.468 27.582,5.337 0,0 35.226,4.691 37.123,-4.991" />
            </g>
            <g
               id="g252"
               transform="translate(61.7578,345.5459)">
              <path
                 inkscape:connector-curvature="0"
                 id="path250"
                 style="fill:none;stroke:#1b69b5;stroke-width:0.57499999;stroke-linecap:butt;stroke-linejoin:miter;stroke-miterlimit:10;stroke-dasharray:none;stroke-opacity:1"
                 d="m 0,0 c 2.21,-2.494 24.322,-5.329 27.865,-5.17 5.367,0.242 32.325,7.175 36.747,7.004 4.351,-0.168 27.222,-7.003 31.097,-7.004 4.039,0 28.066,7.425 32.297,7.505 4.375,0.082 30.575,-7.783 34.147,-7.505 3.209,0.251 21.093,6.805 23.726,6.838 2.414,0.029 18.646,-5.464 21.332,-5.504 2.913,-0.043 22.203,6.389 25.83,6.671 4.565,0.355 36.458,-9.414 40.179,-9.005 3.367,0.37 23.149,8.674 26.481,9.005 3.258,0.323 29.074,-7.399 33.339,-7.338 2.914,0.043 25.26,3.702 27.125,8.005 0,0 33.381,7.037 36.226,-7.486" />
            </g>
            <g
               id="g256"
               transform="translate(62.4387,348.1641)">
              <path
                 inkscape:connector-curvature="0"
                 id="path254"
                 style="fill:none;stroke:#1f77b5;stroke-width:0.60000002;stroke-linecap:butt;stroke-linejoin:miter;stroke-miterlimit:10;stroke-dasharray:none;stroke-opacity:1"
                 d="m 0,0 c 2.947,-3.325 23.434,-7.106 28.157,-6.893 7.156,0.323 31.218,9.566 37.114,9.339 5.801,-0.224 26.005,-9.338 31.172,-9.339 5.385,-0.001 26.682,9.9 32.322,10.006 5.834,0.11 29.511,-10.378 34.275,-10.006 4.279,0.334 19.877,9.073 23.388,9.116 3.219,0.04 17.633,-7.284 21.215,-7.337 3.885,-0.058 20.845,8.518 25.68,8.894 6.087,0.473 35.339,-12.552 40.299,-12.007 4.491,0.493 21.186,11.566 25.629,12.007 4.344,0.431 27.773,-9.866 33.46,-9.783 3.885,0.056 24.182,4.934 26.669,10.672 0,0 31.535,9.383 35.328,-9.981" />
            </g>
            <g
               id="g260"
               transform="translate(63.1196,350.7823)">
              <path
                 inkscape:connector-curvature="0"
                 id="path258"
                 style="fill:none;stroke:#2386b4;stroke-width:0.625;stroke-linecap:butt;stroke-linejoin:miter;stroke-miterlimit:10;stroke-dasharray:none;stroke-opacity:1"
                 d="M 0,0 C 3.684,-4.157 22.546,-8.882 28.449,-8.616 37.395,-8.213 58.56,3.342 65.93,3.057 73.181,2.777 90.718,-8.615 97.176,-8.616 c 6.732,-0.001 25.298,12.374 32.348,12.507 7.292,0.137 28.448,-12.972 34.402,-12.507 5.349,0.418 18.663,11.341 23.051,11.395 4.024,0.05 16.621,-9.105 21.098,-9.171 4.856,-0.073 19.486,10.647 25.531,11.117 7.609,0.592 34.218,-15.69 40.419,-15.009 5.613,0.617 19.222,14.458 24.776,15.009 5.43,0.539 26.472,-12.332 33.58,-12.229 4.857,0.07 23.104,6.168 26.213,13.341 0,0 29.689,11.728 34.431,-12.478" />
            </g>
            <g
               id="g264"
               transform="translate(63.8005,353.4005)">
              <path
                 inkscape:connector-curvature="0"
                 id="path262"
                 style="fill:none;stroke:#2895b3;stroke-width:0.64999998;stroke-linecap:butt;stroke-linejoin:miter;stroke-miterlimit:10;stroke-dasharray:none;stroke-opacity:1"
                 d="M 0,0 C 4.421,-4.988 21.657,-10.658 28.742,-10.339 39.477,-9.856 57.745,4.01 66.588,3.669 75.29,3.333 90.16,-10.338 97.91,-10.339 c 8.077,-10e-4 23.913,14.849 32.373,15.008 8.751,0.165 27.385,-15.566 34.53,-15.008 6.418,0.501 17.448,13.61 22.714,13.674 4.829,0.06 15.607,-10.926 20.98,-11.006 5.827,-0.087 18.128,12.777 25.381,13.341 9.131,0.71 33.099,-18.828 40.54,-18.01 6.735,0.739 17.259,17.348 23.923,18.01 6.517,0.647 25.171,-14.799 33.701,-14.675 5.828,0.084 22.025,7.402 25.756,16.009 0,0 27.844,14.074 33.534,-14.973" />
            </g>
            <g
               id="g268"
               transform="translate(64.4814,356.0186)">
              <path
                 inkscape:connector-curvature="0"
                 id="path266"
                 style="fill:none;stroke:#2ca3b3;stroke-width:0.67500001;stroke-linecap:butt;stroke-linejoin:miter;stroke-miterlimit:10;stroke-dasharray:none;stroke-opacity:1"
                 d="M 0,0 C 5.157,-5.819 20.769,-12.435 29.034,-12.062 41.558,-11.498 56.93,4.679 67.247,4.28 77.399,3.888 89.602,-12.061 98.643,-12.062 c 9.424,-0.002 22.529,17.324 32.399,17.51 10.209,0.192 26.322,-18.161 34.657,-17.51 7.489,0.584 16.233,15.878 22.377,15.953 5.634,0.069 14.595,-12.747 20.863,-12.84 6.798,-0.102 16.769,14.906 25.232,15.564 10.652,0.828 31.979,-21.966 40.66,-21.012 7.858,0.863 15.295,20.24 23.07,21.012 7.603,0.755 23.87,-17.265 33.822,-17.121 6.799,0.099 20.947,8.636 25.299,18.677 0,0 25.999,16.42 32.637,-17.468" />
            </g>
            <g
               id="g272"
               transform="translate(65.1623,358.6369)">
              <path
                 inkscape:connector-curvature="0"
                 id="path270"
                 style="fill:none;stroke:#30b2b2;stroke-width:0.69999999;stroke-linecap:butt;stroke-linejoin:miter;stroke-miterlimit:10;stroke-dasharray:none;stroke-opacity:1"
                 d="m 0,0 c 5.894,-6.651 19.881,-14.211 29.327,-13.786 14.313,0.645 26.788,19.133 38.579,18.678 11.602,-0.448 21.138,-18.676 31.471,-18.678 10.77,-0.001 21.144,19.799 32.424,20.012 11.668,0.22 25.258,-20.755 34.785,-20.012 8.558,0.668 15.018,18.147 22.039,18.233 6.439,0.079 13.583,-14.568 20.746,-14.675 7.77,-0.116 15.411,17.036 25.082,17.788 12.174,0.946 30.859,-25.104 40.781,-24.014 8.98,0.987 13.331,23.132 22.217,24.014 8.689,0.862 22.569,-19.732 33.942,-19.567 7.771,0.113 19.869,9.87 24.843,21.346 0,0 24.153,18.765 31.74,-19.964" />
            </g>
            <g
               id="g276"
               transform="translate(65.8432,361.2551)">
              <path
                 inkscape:connector-curvature="0"
                 id="path274"
                 style="fill:none;stroke:#35c0b2;stroke-width:0.72500002;stroke-linecap:butt;stroke-linejoin:miter;stroke-miterlimit:10;stroke-dasharray:none;stroke-opacity:1"
                 d="m 0,0 c 6.631,-7.482 18.992,-15.988 29.619,-15.509 16.102,0.726 25.68,21.524 38.946,21.012 13.052,-0.504 19.921,-21.01 31.546,-21.012 12.116,-0.002 19.759,22.274 32.449,22.513 13.127,0.247 24.195,-23.349 34.912,-22.513 9.628,0.752 13.804,20.415 21.703,20.512 7.243,0.089 12.569,-16.39 20.628,-16.51 8.741,-0.13 14.053,19.166 24.933,20.012 13.696,1.065 29.739,-28.241 40.901,-27.015 10.103,1.109 11.368,26.022 21.363,27.015 9.776,0.97 21.269,-22.198 34.064,-22.013 8.742,0.127 18.79,11.104 24.386,24.014 0,0 22.308,21.111 30.843,-22.459" />
            </g>
            <g
               id="g280"
               transform="translate(66.5241,363.8733)">
              <path
                 inkscape:connector-curvature="0"
                 id="path278"
                 style="fill:none;stroke:#39cfb1;stroke-width:0.75;stroke-linecap:butt;stroke-linejoin:miter;stroke-miterlimit:10;stroke-dasharray:none;stroke-opacity:1"
                 d="m 0,0 c 7.368,-8.314 18.104,-17.764 29.911,-17.232 17.892,0.806 24.573,23.916 39.313,23.347 14.502,-0.56 18.704,-23.345 31.62,-23.347 13.463,-0.002 18.375,24.749 32.475,25.014 14.585,0.275 23.132,-25.943 35.04,-25.014 10.698,0.835 12.588,22.683 21.365,22.791 8.048,0.099 11.557,-18.211 20.511,-18.344 9.712,-0.144 12.694,21.295 24.783,22.235 15.218,1.183 28.62,-31.379 41.022,-30.017 11.225,1.233 9.404,28.914 20.51,30.017 10.862,1.078 19.969,-24.665 34.185,-24.458 9.714,0.14 17.712,12.336 23.929,26.681 0,0 20.463,23.458 29.945,-24.954" />
            </g>
          </g>
        </g>
      </g>
    </g>
  </g>
</svg>
