<svg viewBox="0 0 24 24" xmlns="http://www.w3.org/2000/svg"><g fill="#ececec"><path d="m 12.992 8.5 l -.999 1 c 1.233 1.276 1.233 3.224 0 4.5 l .999 1 c 1.952 -2.02 1.952 -4.479 0 -6.5 z"/><path d="m 14.491 8 c 2.025 2.027 2.025 5.973 0 8 l 1.499 1.5 c 2.902 -2.905 2.902 -8.095 0 -11 z" opacity=".4"/><path d="m 16.988 6 c 3.561 3.372 3.508 8.628 0 12 l 1.499 1.5 c 4.658 -4.5 4.71 -10.5 0 -15 z" opacity=".4"/><path d="m 9 6 l -3 3 l 0 6 l 3 3 l 0 -4 l 2 -2 l -2 -2 z"/><path d="m 3 9 c -.523 0 -.999 .498 -.999 1 l 0 4 c 0 .58 .433 1 .999 1 l 3.996 0 l 0 -6 z"/></g></svg>