<svg height="24" viewBox="0 0 24 24" width="24" xmlns="http://www.w3.org/2000/svg"><g fill-rule="evenodd"><path d="m 22.372881 11.644068 a 8.7966099 8.1864405 0 1 1 -17.5932198 0 a 8.7966099 8.1864405 0 1 1 17.5932198 0 z" fill="#dc322f" transform="matrix(1.1368 0 0 1.22153 -3.43353 -2.2236)"/><path d="m 7.0051524 7.000389 l 0 1.6666018 c -.036433 .4670775 .120332 .9442646 .4707718 1.2680666 l 2.13658 2.1013676 l -2.13658 2.101368 c -.3129384 .313053 -.4707768 .754248 -.4707718 1.195605 l 0 1.666602 l 1.6658079 0 c .4411467 0 .8821409 -.157909 1.1950359 -.470996 l 2.1365798 -2.137598 l 2.13658 2.137598 C 14.452051 16.842025 14.893027 16.999984 15.334192 17 L 17 17 L 17 15.333398 c -.000014 -.441374 -.157837 -.882552 -.470772 -1.195605 l -2.100367 -2.101368 l 2.13658 -2.1013676 C 16.924056 9.6034029 17 9.1435845 17 8.6669908 l 0 -1.6666018 l -1.665808 0 c -.40047 .011646 -.717119 .1599795 -1.158823 .5434571 L 12.002576 9.6452136 L 9.8659962 7.5438461 C 9.5706182 7.2378625 9.1673409 7.0190225 8.7433867 7.000389 c -.017394 -.0007653 -.055182 -.0001997 -.072426 0 l -1.6658079 0 z" fill="#fff"/><path d="m 7.0051524 7.000389 l 0 1.6666018 c -.036433 .4670775 .120332 .9442646 .4707718 1.2680666 l 2.13658 2.1013676 l -2.13658 2.101368 c -.3129384 .313053 -.4707768 .754248 -.4707718 1.195605 l 0 1.666602 l 1.6658079 0 c .4411467 0 .8821409 -.157909 1.1950359 -.470996 l 2.1365798 -2.137598 l 2.13658 2.137598 C 14.452051 16.842025 14.893027 16.999984 15.334192 17 L 17 17 L 17 15.333398 c -.000014 -.441374 -.157837 -.882552 -.470772 -1.195605 l -2.100367 -2.101368 l 2.13658 -2.1013676 C 16.924056 9.6034029 17 9.1435845 17 8.6669908 l 0 -1.6666018 l -1.665808 0 c -.40047 .011646 -.717119 .1599795 -1.158823 .5434571 L 12.002576 9.6452136 L 9.8659962 7.5438461 C 9.5706182 7.2378625 9.1673409 7.0190225 8.7433867 7.000389 c -.017394 -.0007653 -.055182 -.0001997 -.072426 0 l -1.6658079 0 z" fill="#dc322f" fill-opacity=".1"/></g></svg>