<svg width="150" height="150" viewBox="0 0 17 17">
  <path id="gear" d="M-9.7,0.1L-7.3,0.1
    L-6.9,2.6L-5.4,3.2
    L-3.4,1.7L-1.7,3.4
    L-3.2,5.4L-2.6,6.9
    L-0.1,7.3L-0.1,9.7
    L-2.6,10.1L-3.2,11.6
    L-1.7,13.6L-3.4,15.3
    L-5.4,13.8L-6.9,14.4
    L-7.3,16.9L-9.7,16.9

    L-10.1,14.4L-11.6,13.8
    L-13.6,15.3L-15.3,13.6
    L-13.8,11.6L-14.4,10.1
    L-16.9,9.7L-16.9,7.3
    L-14.4,6.9L-13.8,5.4
    L-15.3,3.4L-13.6,1.7
    L-11.6,3.2L-10.1,2.6
Z
    M-11.5,8.5 A3,3 0 0,0 -5.5,8.5 A3,3 0 0,0 -11.5,8.4Z
" fill="#F90"/>
  <use href="#gear" x="17" y="0"/>
</svg>
