<svg viewBox="0 0 16 16" xmlns="http://www.w3.org/2000/svg"><g transform="matrix(.8 0 0 .8 -1.6 -1.59999)"><path d="m 21.375 12 a 9.375 9.375 0 0 1 -18.75 0 a 9.375 9.375 0 1 1 18.75 0 z" fill="#ebebeb" fill-rule="evenodd"/><g fill="#aaa"><path d="m 11.984 5.484 c -.551 .008 -.992 .465 -.984 1.016 l 0 5.5 c 0 .234 .082 .461 .234 .641 l 2.5 3 c .223 .301 .59 .449 .957 .395 c .367 -.059 .672 -.313 .793 -.664 c .121 -.352 .035 -.742 -.219 -1.012 l -2.266 -2.719 l 0 -5.141 c .004 -.27 -.102 -.531 -.293 -.723 c -.191 -.191 -.453 -.297 -.723 -.293 z"/><path d="m 12 2 c -5.512 0 -10 4.488 -10 10 c 0 5.512 4.488 10 10 10 c 5.512 0 10 -4.488 10 -10 c 0 -5.512 -4.488 -10 -10 -10 z m 0 2 c 4.43 0 8 3.57 8 8 c 0 4.43 -3.57 8 -8 8 c -4.43 0 -8 -3.57 -8 -8 c 0 -4.43 3.57 -8 8 -8 z"/></g></g><g fill-rule="evenodd"><path d="m 8 12 a 4 4 0 0 1 -8 0 a 4 4 0 1 1 8 0 z" fill="#dc322f"/><path d="m 2 10 l 0 .667 c -.015 .187 .048 .378 .188 .507 l .855 .841 l -.855 .841 c -.125 .125 -.188 .302 -.188 .478 l 0 .667 l .666 0 c .176 0 .353 -.063 .478 -.188 l .855 -.855 l .855 .855 c .125 .125 .302 .188 .478 .188 l .666 0 l 0 -.667 c 0 -.177 -.063 -.353 -.188 -.478 l -.84 -.841 l .855 -.841 c .143 -.133 .174 -.317 .174 -.507 l 0 -.667 l -.666 0 c -.16 .005 -.287 .064 -.464 .217 l -.869 .841 l -.855 -.841 c -.118 -.122 -.279 -.21 -.449 -.217 c -.007 0 -.022 0 -.029 0 l -.666 0 z" fill="#fff" fill-opacity=".9"/></g></svg>