<svg viewBox="0 0 16 16" xmlns="http://www.w3.org/2000/svg"><g fill="#ececec"><path d="m 8.364 4.997 l -.736 .753 c .906 .955 .906 2.417 0 3.372 l .736 .753 c 1.436 -1.519 1.436 -3.36 0 -4.878 z"/><path d="m 9.468 4.622 c 1.492 1.523 1.492 4.479 0 6 l 1.104 1.124 c 2.137 -2.179 2.137 -6.07 0 -8.25 z"/><path d="m 11.308 3.124 c 2.624 2.53 2.584 6.469 0 8.999 l 1.104 1.124 c 3.431 -3.372 3.47 -7.875 0 -11.247 z"/><path d="m 6 3 l -2 2 l 0 5 l 2 2 l 0 -3 l 1.5 -1.497 l -1.5 -1.5 z"/><path d="m 1.75 5 c -.391 0 -.75 .416 -.75 .836 l 0 3.327 c 0 .483 .327 .836 .75 .836 l 2.25 0 l 0 -5 z"/></g></svg>