<svg viewBox="0 0 16 16" xmlns="http://www.w3.org/2000/svg"><path d="m 13 13.6 c -1.508 0 -2.875 -.943 -3.48 -2.4 l -4.72 0 C 3.198 11.2 2.4 10.401 2.4 9.6 C 2.4 8.799 3.198 8 4.8 8 L 5.6 6.4 L 6.4 8.8 L 8 6.4 L 8.8 8 L 9.52 8 C 10.121 6.543 11.489 5.604 13 5.6 c 2.098 0 3.8 1.793 3.8 4 c 0 2.211 -1.702 4 -3.8 4 z m 1.4 -3.2 c .441 0 .8 -.358 .8 -.8 c 0 -.441 -.359 -.8 -.8 -.8 c -.446 0 -.8 .359 -.8 .8 c 0 .442 .354 .8 .8 .8 z" fill="#6d6d6d" transform="matrix(.9090875 0 0 -.9090875 -.72724 16.72724)"/></svg>