<svg viewBox="0 0 16 16" xmlns="http://www.w3.org/2000/svg"><g fill-rule="evenodd"><path d="m 4.667 .004 l 6.667 0 c 1.667 0 1.667 -.167 1.667 1.666 l 0 6.664 c 0 1.666 0 1.666 -1.667 1.666 l -6.667 0 c -1.667 0 -1.667 0 -1.667 -1.666 l 0 -6.664 c 0 -1.666 0 -1.666 1.667 -1.666 z" fill="#aaa" fill-opacity=".94"/><path d="M 1.6 4 L 14.4 4 C 16 4 16 4 16 5.6 l 0 4.8 C 16 12 16 12 14.4 12 L 1.6 12 C 0 12 0 12 0 10.4 L 0 5.6 C 0 4 0 4 1.6 4 z" fill="#ccc"/></g><path d="m 6 11 l 12 0 l 0 10 l -12 0 z" fill="#dc322f" transform="matrix(.83333 0 0 .8 -2 -.8)"/><g fill="#fff"><path d="M 7 9 H 9 V 13 H 7 Z"/><path d="m 5 12 l 6 0 l -3 3 z"/></g></svg>