<svg viewBox="0 0 16 16" xmlns="http://www.w3.org/2000/svg"><g fill="#dedede"><path d="m 8 0 c -4.418 0 -8 3.134 -8 7 c 0 3.866 3.582 7 8 7 c 4.418 0 8 -3.134 8 -7 c 0 -3.866 -3.582 -7 -8 -7 z m -2.063 4 c .218 -.024 .445 .039 .594 .188 l 1.469 1.469 l 1.469 -1.469 c .297 -.297 .848 -.246 1.219 .125 c .371 .371 .422 .922 .125 1.219 l -1.469 1.469 l 1.469 1.469 c .297 .297 .246 .848 -.125 1.219 c -.371 .371 -.922 .422 -1.219 .125 l -1.469 -1.469 l -1.469 1.469 c -.297 .297 -.848 .246 -1.219 -.125 c -.371 -.371 -.422 -.922 -.125 -1.219 l 1.469 -1.469 l -1.469 -1.469 c -.297 -.297 -.246 -.848 .125 -1.219 c .185 -.185 .407 -.288 .625 -.313 z"/><path d="m 8.336 12 l 5.664 4 l -1 -6 z"/></g></svg>