<svg viewBox="0 0 16 16" xmlns="http://www.w3.org/2000/svg"><g fill="#4cd278"><path d="m 8 0 c -4.418 0 -8 3.134 -8 7 c 0 3.866 3.582 7 8 7 c 4.418 0 8 -3.134 8 -7 c 0 -3.866 -3.582 -7 -8 -7 z m 2.875 3 c .402 -.011 .809 .206 1 .531 c .191 .325 .169 .728 -.063 1.031 l -3.625 5.03 c -.178 .244 -.468 .384 -.781 .406 c -.313 .023 -.649 -.072 -.875 -.281 l -2.188 -2 c -.442 -.36 -.451 -1.054 -.031 -1.438 c .419 -.384 1.173 -.379 1.563 .031 l 1.25 1.125 l 2.875 -3.969 c .191 -.271 .523 -.458 .875 -.469 z"/><path d="m 8.336 12 l 5.664 4 l -1 -6 z"/></g></svg>