<svg viewBox="0 0 16 16" xmlns="http://www.w3.org/2000/svg"><g fill="#eedb58"><path d="m 8 0 c -4.418 0 -8 3.134 -8 7 c 0 3.866 3.582 7 8 7 c 4.418 0 8 -3.134 8 -7 c 0 -3.866 -3.582 -7 -8 -7 z m .031 3 c .265 0 .547 .11 .75 .313 l 2.906 2.906 c .016 .016 .016 .045 .031 .063 c .099 .113 .17 .237 .219 .375 c .035 .1 .063 .211 .063 .313 c 0 .011 0 .02 0 .031 c 0 .011 0 .021 0 .031 c 0 .01 .001 .021 0 .031 c 0 .01 .001 .021 0 .031 c -.014 .244 -.125 .5 -.313 .688 l -2.906 2.906 c -.406 .406 -1.063 .406 -1.469 0 c -.406 -.406 -.406 -1.063 0 -1.469 l 1.219 -1.219 l -3.531 0 c -.554 0 -1 -.446 -1 -1 c 0 -.554 .446 -1 1 -1 l 3.531 0 l -1.219 -1.219 c -.406 -.406 -.406 -1.063 0 -1.469 c .203 -.203 .454 -.313 .719 -.313 z"/><path d="m 8.336 12 l 5.664 4 l -1 -6 z"/></g></svg>