<svg viewBox="0 0 16 16" xmlns="http://www.w3.org/2000/svg"><g fill="#6891b8"><g transform="matrix(.28867514 .16666667 -.16666667 .28867514 2.916658 -2.255647)"><path d="m 18.05 5.787 c -.315 0 -.568 .253 -.568 .568 l 0 .968 c -1.116 .224 -2.141 .684 -3.056 1.294 l -.704 -.704 c -.223 -.223 -.581 -.223 -.803 0 l -1.607 1.607 c -.223 .223 -.223 .581 0 .803 l .704 .704 c -.609 .916 -1.065 1.941 -1.29 3.056 l -.97 0 c -.315 0 -.568 .253 -.568 .568 l 0 2.273 c 0 .315 .253 .568 .568 .568 l .985 0 c .227 1.113 .651 2.155 1.261 3.07 l -.69 .69 c -.223 .223 -.223 .581 0 .803 l 1.607 1.607 c .223 .223 .581 .223 .803 0 l .692 -.692 c .917 .611 1.951 1.058 3.067 1.283 l 0 .965 c 0 .315 .253 .568 .568 .568 l 2.273 0 c .315 0 .568 -.253 .568 -.568 l 0 -.985 c 1.113 -.227 2.155 -.651 3.07 -1.261 l .69 .69 c .223 .223 .581 .223 .803 0 l 1.607 -1.607 c .223 -.223 .223 -.581 0 -.803 l -.692 -.692 c .611 -.917 1.058 -1.951 1.283 -3.067 l .968 0 c .315 0 .568 -.253 .568 -.568 l 0 -2.273 c 0 -.315 -.253 -.568 -.568 -.568 l -.988 0 c -.227 -1.113 -.651 -2.155 -1.261 -3.07 l .69 -.69 c .223 -.223 .223 -.581 0 -.803 l -1.607 -1.607 c -.223 -.223 -.581 -.223 -.803 0 l -.692 .692 c -.917 -.611 -1.951 -1.058 -3.067 -1.283 l 0 -.968 c 0 -.315 -.253 -.568 -.568 -.568 l -2.273 0 z m 1.136 2.728 c 4.02 0 7.273 3.248 7.273 7.273 c 0 4.02 -3.248 7.273 -7.273 7.273 c -4.02 0 -7.273 -3.248 -7.273 -7.273 c 0 -4.02 3.248 -7.273 7.273 -7.273 z"/><circle cx="8.723" cy="23.267" r="1.989" transform="matrix(.8660254 -.5 .5 .8660254 0 0)"/></g><g transform="matrix(.37878077 0 0 .37878077 6.260249 .991872)"><path d="m 15.829 18.15 c -.196 -.196 -.511 -.196 -.707 0 l -.602 .602 c -.834 -.555 -1.758 -.907 -2.707 -1.097 l 0 -.876 c 0 -.277 -.223 -.5 -.5 -.5 l -2 0 c -.277 0 -.5 .223 -.5 .5 l 0 .876 c -.949 .191 -1.871 .545 -2.704 1.099 l -.604 -.604 c -.196 -.196 -.511 -.196 -.707 0 l -1.414 1.414 c -.196 .196 -.196 .511 0 .707 l .613 .613 c -.551 .834 -.936 1.746 -1.126 2.694 l -.859 0 c -.277 0 -.5 .223 -.5 .5 l 0 2 c 0 .277 .223 .5 .5 .5 l .862 0 c .19 .95 .555 1.872 1.11 2.707 l -.601 .601 c -.196 .196 -.196 .511 0 .707 l 1.414 1.414 c .196 .196 .511 .196 .707 0 l .613 -.613 c .834 .551 1.746 .936 2.694 1.126 l 0 .859 c 0 .277 .223 .5 .5 .5 l 2 0 c .277 0 .5 -.223 .5 -.5 l 0 -.862 c .95 -.19 1.872 -.555 2.707 -1.11 l .602 .602 c .196 .196 .511 .196 .707 0 l 1.414 -1.414 c .196 -.196 .196 -.511 0 -.707 l -.615 -.615 c .551 -.834 .936 -1.746 1.126 -2.694 l .859 0 c .277 0 .5 -.223 .5 -.5 l 0 -2 c 0 -.277 -.223 -.5 -.5 -.5 l -.862 0 c -.19 -.95 -.555 -1.872 -1.11 -2.707 l .602 -.602 c .196 -.196 .196 -.511 0 -.707 l -1.414 -1.414 z m -.99 2.404 c 2.505 2.505 2.505 6.547 0 9.05 c -2.505 2.505 -6.547 2.505 -9.05 0 c -2.505 -2.505 -2.505 -6.547 0 -9.05 c 2.505 -2.505 6.547 -2.505 9.05 0 z"/><circle cx="16.453" cy="21.555" r="1.75" transform="matrix(.96592583 .25881905 -.25881905 .96592583 0 0)"/></g></g></svg>