<svg viewBox="0 0 16 16" xmlns="http://www.w3.org/2000/svg"><path d="m 20 6 l 0 20.736 a 4.136 6.204 75 0 0 -5.158 -.285 a 4.136 6.204 75 0 0 -4.922 5.602 a 4.136 6.204 75 0 0 7.06 2.389 a 4.136 6.204 75 0 0 5.01 -4.807 l .004 0 l 0 -15.254 l 13 1.734 l 0 15.869 a 4.136 6.204 75 0 0 -5.158 -.285 a 4.136 6.204 75 0 0 -4.922 5.602 a 4.136 6.204 75 0 0 7.06 2.389 a 4.136 6.204 75 0 0 5.01 -4.809 l .004 .002 l 0 -26.605 l -17 -2.277 m 2 4.621 l 13 1.734 l 0 1.76 l -13 -1.734 l 0 -1.76 z" fill="#4c7686" transform="matrix(.33333769 0 0 .33333769 .00000532706 .00001105132)"/></svg>