<svg height="16" viewBox="0 0 12.8 12.8" width="16" xmlns="http://www.w3.org/2000/svg"><g fill-rule="evenodd"><path d="m 16.25 5.416 c -1.072 .013 -1.766 .084 -1.766 .084 l -.172 .02 l -.145 .096 c -.294 .196 -.448 .635 -.416 .908 c .032 .273 .132 .443 .223 .588 c .088 .14 .115 .153 .189 .238 l .154 4.262 l -4.199 16.486 c -.78 2.582 -.965 4.199 -.936 5.219 c .015 .512 .085 .876 .166 1.133 c .081 .257 .23 .475 .23 .475 l .053 .068 l .068 .055 c 2.619 2.028 5.675 2.305 8.371 2.1 c -.015 -.416 .002 -.874 .105 -1.43 c -2.497 .204 -5.217 -.017 -7.496 -1.721 c -.035 -.117 -.085 -.33 -.096 -.719 c -.023 -.809 .128 -2.298 .887 -4.803 l .004 -.016 l 4.25 -16.697 l -.172 -4.836 c .546 -.041 1.825 -.035 3.594 .113 l -.453 4.617 l 3.045 14.08 l .902 -2.471 l -2.531 -11.693 l .434 -4.398 c .099 -.157 .318 -.274 .338 -.408 c .046 -.32 -.031 -.576 -.031 -.576 l -.119 -.439 l -.449 -.07 c -1.511 -.233 -2.961 -.279 -4.03 -.266" fill="#5b93d7" transform="matrix(.266674488 0 0 .266674488 -.000058 .000525)"/><path d="m 11.986 28.5 l -.004 .023 c -.005 .02 -.01 .034 -.01 .049 c -.752 2.48 -.895 3.937 -.875 4.693 c .01 .278 .034 .439 .059 .547 c 2.16 1.539 4.72 1.704 7.113 1.484 c .189 -.808 .514 -1.755 1.037 -2.883 l 1.418 -3.891 c -3.855 1.74 -6.771 1.088 -8.738 -.023 z" fill="#adc3e2" transform="matrix(.266674488 0 0 .266674488 -.000058 .000525)"/><path d="m 7.115 2.029 l -.093 .02 l -.157 .359 l .117 .065 c .001 .008 .002 .018 .002 .018 l 0 .006 l .037 1.04 l .007 .021 c .011 .038 .015 .037 .02 .042 c 0 -.006 -.037 .076 -.074 .139 c -.04 .068 -.077 .127 -.077 .127 l -.011 .017 l -1.736 4.762 l .007 -.015 c -.321 .687 -.374 1.134 -.327 1.429 c .023 .148 .072 .256 .121 .329 c .046 .068 .101 .107 .107 .113 c 1.447 1.211 3.28 .823 4.125 .688 c .967 -.155 1.164 -1.077 1.164 -1.077 l .007 -.033 l -.006 -.034 c -.334 -1.91 -1.551 -6.409 -1.568 -6.474 l .116 -.939 l -.001 -.016 c -.004 -.086 .031 -.114 .031 -.114 l .064 -.066 l -.014 -.092 c -.021 -.14 -.138 -.238 -.222 -.267 c -.083 -.029 -.156 -.022 -.156 -.022 l -.001 0 c -.995 -.112 -1.481 -.025 -1.481 -.025 m .233 .369 c .077 -.014 .339 -.079 1.237 .029 l .006 .001 c -.037 .069 -.078 .083 -.072 .206 l .001 -.032 l -.123 .995 l .01 .035 c 0 0 1.225 4.548 1.561 6.435 c -.008 .044 -.119 .636 -.846 .753 l -.001 0 c -.872 .14 -2.535 .485 -3.834 -.609 l -.008 -.007 l -.008 -.006 c 0 0 .006 .009 -.012 -.019 c -.019 -.028 -.047 -.081 -.062 -.177 c -.03 -.193 -.004 -.568 .297 -1.213 l .004 -.007 l 1.726 -4.734 c .009 -.015 .035 -.054 .072 -.118 c .044 -.075 .089 -.138 .117 -.24 c .021 -.079 .011 -.158 -.01 -.211 c -.003 -.009 -.006 -.012 -.01 -.02 l -.035 -.968 l 0 .012 c 0 0 0 -.05 -.01 -.105 z" fill="#5b93d7"/><path d="m 5.897 8.222 l -.217 .595 c -.003 .009 -.007 .018 -.01 .027 c -.294 .629 -.311 .979 -.286 1.137 c .012 .077 .033 .109 .039 .118 c 1.227 1.035 2.779 .707 3.665 .565 c .538 -.086 .665 -.479 .693 -.596 c -.077 -.43 -.201 -.997 -.344 -1.617 c -1.594 .395 -2.757 .145 -3.539 -.229" fill="#adc3e2"/></g></svg>