<svg viewBox="0 0 16 16" xmlns="http://www.w3.org/2000/svg"><path d="m 6.313 4 c -.813 0 -1.146 .073 -1.405 .149 c -.404 .119 -.817 .331 -1.076 .663 c -1.516 1.946 -2.502 6.555 -2.229 7.06 c .273 .505 2.73 -.501 4.02 -2.439 c .098 -.145 .277 -.432 .277 -.432 l 4.205 0 c 0 0 .18 .287 .277 .432 c 1.288 1.938 3.745 2.944 4.02 2.439 c .273 -.503 -.712 -5.112 -2.229 -7.06 c -.259 -.332 -.672 -.545 -1.076 -.663 c -.26 -.076 -.592 -.149 -1.405 -.149 z m 4.197 1.284 c .219 .008 .407 .158 .464 .37 c .072 .267 -.086 .542 -.354 .613 c -.267 .071 -.541 -.087 -.612 -.355 c -.071 -.267 .087 -.541 .354 -.612 c .048 -.013 .098 -.019 .148 -.017 z m -5.51 -.284 l 1 0 l 0 1 l 1 0 l 0 1 l -1 0 l 0 1 l -1 0 l 0 -1 l -1 0 l 0 -1 l 1 0 z m 6.735 .991 c .219 .008 .407 .159 .464 .371 c .071 .267 -.087 .541 -.354 .612 c -.267 .072 -.542 -.086 -.613 -.354 c -.072 -.267 .087 -.542 .354 -.613 c .048 -.013 .098 -.019 .148 -.017 z m -1.933 .518 c .219 .008 .407 .159 .464 .371 c .071 .267 -.087 .541 -.354 .612 c -.267 .071 -.541 -.087 -.612 -.354 c -.071 -.267 .087 -.541 .354 -.612 c .048 -.013 .098 -.019 .148 -.018 z m 1.175 .708 c .238 -.015 .453 .14 .515 .37 c .071 .267 -.087 .541 -.354 .612 c -.267 .071 -.541 -.087 -.612 -.354 c -.071 -.267 .087 -.541 .354 -.612 c .032 -.009 .065 -.014 .099 -.017 z" fill="#d64c62"/></svg>