<svg viewBox="0 0 16 16" xmlns="http://www.w3.org/2000/svg" xmlns:xlink="http://www.w3.org/1999/xlink"><filter id="a" height="16" width="16" x="0" y="0"><feColorMatrix in="SourceGraphic" type="matrix" values="0 0 0 0 1 0 0 0 0 1 0 0 0 0 1 0 0 0 1 0"/></filter><linearGradient id="b" gradientTransform="matrix(.68089 0 0 .68085 19.21267 9.36186)" gradientUnits="userSpaceOnUse" x1="9.531" x2="11.468"><stop offset="0" stop-color="#fff"/><stop offset="1" stop-color="#fff" stop-opacity="0"/></linearGradient><mask id="c"><g filter="url(#a)"><path d="M 0 0 H 16 V 16 H 0 Z" fill-opacity=".102"/></g></mask><mask id="d"><g filter="url(#a)"><path d="M 0 0 H 16 V 16 H 0 Z" fill-opacity=".537"/></g></mask><g fill="#6fac63" fill-rule="evenodd"><g stroke="#6fac63" stroke-width=".681" transform="scale(.33333)"><path d="m 31.805 12.422 l 3.41 0 c 0 -.891 -2.191 -1.805 -3.41 -2.039 Z"/><g stroke-linecap="round"><path d="m 31.13 16.512 l 2.73 0 l 0 1.359 l -2.73 0 Z" stroke-miterlimit="10"/><path d="m 12.08 37.641 l 23.836 0 l 0 -3.41 l -2.73 0 c .012 -.105 0 -.27 0 -.375 c 0 -5.074 -4.113 -9.199 -9.188 -9.199 c -5.074 0 -9.188 4.125 -9.188 9.199 c 0 .105 .012 .27 .012 .375 l -2.742 0 m 6.129 -.375 c 0 -3.199 2.59 -5.789 5.789 -5.789 c 3.199 0 5.789 2.59 5.789 5.789 c 0 .105 0 .27 0 .375 l -11.578 0 c 0 -.105 0 -.27 0 -.375 Z" stroke-linejoin="round"/></g></g><path d="m 5.05 10.809 l .316 .094 c .02 -.074 .043 -.148 .066 -.223 l -.328 -.09 m .219 -.563 l .309 .184 c .035 -.063 .07 -.129 .113 -.191 l -.313 -.191 l -.105 .199 m .453 -.68 l .277 .289 c .051 -.055 .105 -.105 .16 -.156 l -.281 -.297 m .461 -.367 l .203 .383 c .063 -.039 .129 -.074 .191 -.105 l -.211 -.391 m .531 -.234 l .113 .445 c .07 -.02 .137 -.035 .207 -.047 l -.113 -.457 m .574 .398 c .035 0 .07 -.008 .105 -.008 c .035 0 .07 .008 .105 .008 l 0 -.477 l -.211 0 m .672 .535 c .07 .012 .137 .027 .207 .047 l .113 -.445 l -.207 -.059 m .527 .684 c .063 .031 .129 .066 .191 .105 l .203 -.383 l -.184 -.113 m .363 .777 c .055 .051 .109 .102 .164 .156 l .273 -.289 l -.156 -.164 m .191 .836 c .043 .063 .078 .129 .113 .191 l .309 -.184 l -.109 -.199 m 0 .852 c .023 .074 .047 .148 .066 .223 l .316 -.094 l -.055 -.219 Z"/><path d="m 4.824 12.434 l .227 0 l 0 -.453 l -.227 0 m .453 .453 l .227 0 l 0 -.684 l -.227 0 m .453 .684 l .227 0 l 0 -.453 l -.227 0 m .453 .453 l .227 0 l 0 -.684 l -.227 0 m .453 .684 l .227 0 l 0 -.453 l -.227 0 m .457 .453 l .227 0 l 0 -.684 l -.227 0 m .453 .684 l .227 0 l 0 -.453 l -.227 0 m .453 .453 l .227 0 l 0 -.684 l -.227 0 m .453 .684 l .227 0 l 0 -.453 l -.227 0 m .453 .453 l .23 0 l 0 -.684 l -.23 0 m .457 .684 l .227 0 l 0 -.453 l -.227 0 m .453 .453 l .227 0 l 0 -.684 l -.227 0 m .453 .684 l .227 0 l 0 -.453 l -.227 0 m .453 .453 l .227 0 l 0 -.684 l -.227 0 m .453 .684 l .23 0 l 0 -.453 l -.23 0 Z"/></g><g mask="url(#c)"><path d="m 27.727 25.441 l 0 3.984 c 1.254 1.066 2.063 2.648 2.063 4.43 c 0 .105 0 .27 0 .375 l -2.063 0 l 0 2.707 l 1.359 0 l 0 .703 l 1.406 0 l 0 -.703 l 1.313 0 l 0 -7.922 c -.961 -1.559 -2.391 -2.813 -4.078 -3.574 Z" fill="#6fac63" fill-rule="evenodd" stroke="#6fac63" stroke-linecap="round" stroke-width=".681" transform="scale(.33333)"/></g><g fill="#6fac63" fill-rule="evenodd"><g stroke="#6fac63" stroke-width=".681" transform="scale(.33333)"><path d="m 28.406 35.578 l 1.395 0 l 0 4.078 l -1.395 0 Z" stroke-linecap="round" stroke-linejoin="round"/><path d="m 31.13 6.34 l -4.758 0 c -1.395 0 -7.512 1.383 -7.512 1.383 c -.598 .34 -.668 .961 -.668 2.027 l 7.488 0 c 0 -.82 .527 -.691 1.371 -.691 l 0 25.2 l 4.078 0 l 0 -24.492 c 1.535 0 4.09 -1.02 4.09 -2.062 l -4.09 0 Z"/></g><path d="m 7.086 4.48 l 0 .234 c 0 .125 -.098 .223 -.219 .223 l -.543 0 c 0 0 -.148 -.105 -.148 -.223 l 0 -.234 Z"/><path d="m 33.504 15.832 l .703 0 c .176 0 .328 .141 .328 .328 l 0 2.063 c 0 .188 -.152 .328 -.328 .328 l -.703 0 c -.188 0 -.328 -.141 -.328 -.328 l 0 -2.063 c 0 -.188 .141 -.328 .328 -.328 Z" stroke="#6fac63" stroke-linecap="round" stroke-miterlimit="10" stroke-width=".681" transform="scale(.33333)"/><path d="m 8.902 5.391 l 0 .227 l .227 0 l 0 -.227 m -.227 .453 l 0 .227 l .227 0 l 0 -.227 m -.227 .453 l 0 .227 l .227 0 l 0 -.227 m -.227 .453 l 0 .23 l .227 0 l 0 -.23 Z" fill-opacity=".157"/><path d="m 10.262 5.391 l 0 .227 l .227 0 l 0 -.227 m -.227 .453 l 0 .227 l .227 0 l 0 -.227 m -.227 .453 l 0 .227 l .227 0 l 0 -.227 m -.227 .453 l 0 .23 l .227 0 l 0 -.23 Z" fill-opacity=".102"/></g><g mask="url(#d)"><path d="m 25.676 21.281 l 1.371 0" fill="none" stroke="url(#b)" stroke-linecap="round" stroke-width=".681" transform="scale(.33333)"/></g><g fill="#6fac63" fill-rule="evenodd"><path d="m 10.262 4.711 l .227 0 l 0 .227 l -.227 0 Z" fill-opacity=".533"/><path d="m 18.13 13.148 c 0 1.066 .07 1.676 .656 2.027 l 7.172 1.383 c .258 .117 .34 .34 .34 .68 l 0 3.398 l -.68 0 c -.375 0 -.68 .305 -.68 .68 c 0 .375 .305 .68 .68 .68 l 2.051 0 l 0 -8.168 l -1.371 0 c -.691 0 -.68 -.059 -.68 -.68 m 4.77 .68 l 0 8.168 l 1.359 0 l 0 -8.168 Z" stroke="#6fac63" stroke-linecap="round" stroke-miterlimit="10" stroke-width=".681" transform="scale(.33333)"/></g></svg>