<svg viewBox="0 0 16 16" xmlns="http://www.w3.org/2000/svg"><g fill="#4ea34d"><path d="m 7.871 5.441 c -2.535 .109 -5 1.348 -3.957 3.852 c 1.527 -.574 3.656 .285 2.773 .711 c 1.742 1.434 6.04 -.883 5.617 -2.855 c -.445 -1.199 -2.461 -1.797 -4.434 -1.707 m -.066 .707 c .527 0 .957 .141 .957 .316 c 0 .172 -.43 .313 -.957 .313 c -.531 0 -.957 -.141 -.957 -.313 c 0 -.176 .426 -.316 .957 -.316 m 2.367 .523 c .531 0 .957 .141 .957 .313 c 0 .176 -.426 .316 -.957 .316 c -.527 0 -.957 -.141 -.957 -.316 c 0 -.172 .43 -.313 .957 -.313 m -4.352 .477 c .527 0 .957 .141 .957 .316 c 0 .176 -.43 .316 -.957 .316 c -.531 0 -.961 -.141 -.961 -.316 c 0 -.176 .43 -.316 .961 -.316 m 4.328 .828 c .531 0 .961 .141 .961 .316 c 0 .176 -.43 .316 -.961 .316 c -.527 0 -.957 -.141 -.957 -.316 c 0 -.176 .43 -.316 .957 -.316 m -1.668 1.199 c .531 0 .957 .141 .957 .316 c 0 .172 -.426 .313 -.957 .313 c -.527 0 -.957 -.141 -.957 -.313 c 0 -.176 .43 -.316 .957 -.316 Z"/><path d="m 11.488 3.035 l -4.703 7.871 c -.367 -.008 -.711 -.184 -.957 -.535 l 5.04 -7.68 c .34 -.082 .547 .035 .621 .344 Z"/><path d="m 5.801 12.273 c .527 -.07 1.344 -.742 .965 -1.719 c -.918 -.262 -.707 -.395 -.707 -.395 c -1.258 .305 -2.211 1.738 -1.949 2.652 c .168 .578 .137 .52 .137 .52 c .352 -1.121 .355 -.914 1.555 -1.059 Z"/></g></svg>