<svg viewBox="0 0 16 16" xmlns="http://www.w3.org/2000/svg"><g fill="#52c8ff"><path d="m 2.75 5 l 0 1 l 10.5 0 l 0 -1 z"/><path d="m 2.25 7.5 l 0 1 l 11.5 0 l 0 -1 z"/><path d="m 7.5 2.25 l 0 11.5 l 1 0 l 0 -11.5 z"/></g><g fill="none" stroke="#52c8ff" stroke-width="2.02" transform="matrix(.49578981 0 0 .49578981 .150642 .150639)"><g stroke-width="16.305" transform="matrix(.1237 0 0 .1237 0 25.72917)"><path d="m 89.78 7.747 c -22.894 -52.51 -21.16 -118.39 0 -175.8"/><path d="m 166.23 7.747 c 22.863 -52.51 21.13 -118.39 0 -175.8"/></g><path d="m 33.06 27.316 c 0 5.03 -4.076 9.105 -9.105 9.105 c -5.03 0 -9.105 -4.076 -9.105 -9.105 c 0 -5.03 4.076 -9.105 9.105 -9.105 c 5.03 0 9.105 4.076 9.105 9.105 z" stroke-linecap="round" stroke-width="1.583" transform="matrix(1.2738 0 0 1.2738 -14.67832 -18.96324)"/></g><path d="m 2.75 10 l 0 1 l 10.5 0 l 0 -1 z" fill="#52c8ff"/></svg>