<svg viewBox="0 0 16 16" xmlns="http://www.w3.org/2000/svg"><path d="m 13.5 8 c 0 3.037 -2.463 5.5 -5.5 5.5 c -3.037 0 -5.5 -2.463 -5.5 -5.5 c 0 -3.037 2.463 -5.5 5.5 -5.5 c 3.037 0 5.5 2.463 5.5 5.5 z" fill="none" stroke="#2f8b96"/><g fill="#2f8b96"><path d="m 6 8 c 0 .553 -.447 1 -1 1 c -.553 0 -1 -.447 -1 -1 c 0 -.553 .447 -1 1 -1 c .553 0 1 .447 1 1"/><path d="m 9 8 c 0 .553 -.447 1 -1 1 c -.553 0 -1 -.447 -1 -1 c 0 -.553 .447 -1 1 -1 c .553 0 1 .447 1 1"/><path d="m 12 8 c 0 .553 -.447 1 -1 1 c -.553 0 -1 -.447 -1 -1 c 0 -.553 .447 -1 1 -1 c .553 0 1 .447 1 1 z"/></g></svg>