<svg viewBox="0 0 16 16" xmlns="http://www.w3.org/2000/svg"><g fill="#cf9545"><path d="m 4 8 l -1.801 1.352 l .295 .393 l 1.506 -1.13 l 0 4.386 l 7.999 0 l 0 -4.386 l 1.506 1.13 l .295 -.393 l -1.801 -1.352 z"/><path d="M 6.636 3.78 H 7.808 V 4.952 H 6.636 Z" transform="matrix(.95334222 .30189172 -.30189172 .95334222 0 0)"/><path d="M 4.751 5.076 H 6.678 V 7.003 H 4.751 Z" transform="matrix(.9598803 -.28041009 .28041009 .9598803 0 0)"/><path d="m 9.594 6.516 l -.552 .703 l -.884 -.126 l -.333 -.829 l .552 -.703 l .884 .126 z"/><path d="m 11.205 4.779 l -.564 .185 l -.167 .569 l -.35 -.479 l -.593 .017 l .348 -.481 l -.199 -.559 l .565 .182 l .47 -.362 l .001 .593 z"/></g></svg>