<svg viewBox="0 0 16 16" xmlns="http://www.w3.org/2000/svg"><g fill="#c0956e"><path d="m 5.836 2 c -.183 .022 -.337 .206 -.336 .403 l 0 3.196 c 0 .21 .178 .401 .374 .401 l 4.252 0 c .196 0 .374 -.191 .374 -.401 l 0 -3.196 c 0 -.21 -.178 -.403 -.374 -.403 z"/><path d="m 2.336 10 c -.182 .02 -.337 .205 -.336 .403 l 0 3.194 c 0 .21 .18 .403 .376 .403 l 4.248 0 c .196 0 .376 -.193 .376 -.403 l 0 -3.194 c 0 -.212 -.18 -.403 -.376 -.403 z"/><path d="m 9.337 10 c -.183 .02 -.337 .205 -.337 .403 l 0 3.194 c 0 .21 .18 .403 .376 .403 l 4.25 0 c .196 0 .374 -.193 .374 -.403 l 0 -3.194 c 0 -.212 -.178 -.403 -.374 -.403 z"/><path d="m 7.5 6.5 l 0 .5 l -3.5 0 l 0 2 l 1 0 l 0 -1 l 6 0 l 0 1 l 1 0 l 0 -2 l -3.5 0 l 0 -.5"/></g></svg>