<svg viewBox="0 0 32 32" xmlns="http://www.w3.org/2000/svg"><g fill="#555"><path d="m 12.05 6.441 c 0 -.383 -.224 -.691 -.5 -.691 c -.276 0 -.5 .307 -.5 .691 l 0 2.559 l 1 0 z"/><path d="m 11.05 25.555 c 0 .383 .224 .695 .5 .695 c .276 0 .5 -.311 .5 -.695 l 0 -2.555 l -1 0 z"/><path d="m 16.5 6.441 c 0 -.383 -.225 -.691 -.501 -.691 c -.277 0 -.499 .307 -.499 .691 l 0 2.559 l 1 0 z"/><path d="m 15.5 25.555 c 0 .383 .222 .695 .499 .695 c .277 0 .501 -.311 .501 -.695 l 0 -2.555 l -1 0 z"/><path d="m 21 6.441 c 0 -.383 -.222 -.691 -.501 -.691 c -.277 0 -.499 .307 -.499 .691 l 0 2.559 l 1 0"/><path d="m 20 25.555 c 0 .383 .222 .695 .501 .695 c .277 0 .499 -.311 .499 -.695 l 0 -2.555 l -1 0"/><path d="m 6.442 20 c -.384 0 -.692 .222 -.692 .499 c 0 .277 .308 .501 .692 .501 l 2.558 0 l 0 -1"/><path d="m 25.554 21 c .384 0 .696 -.225 .696 -.501 c 0 -.277 -.312 -.499 -.696 -.499 l -2.554 0 l 0 1 z"/><path d="m 6.442 15.5 c -.384 0 -.692 .224 -.692 .5 c 0 .273 .308 .5 .692 .5 l 2.558 0 l 0 -1 z"/><path d="m 25.554 16.5 c .384 0 .696 -.227 .696 -.5 c 0 -.276 -.312 -.5 -.696 -.5 l -2.554 0 l 0 1 z"/><path d="m 6.442 11 c -.384 0 -.692 .224 -.692 .5 c 0 .273 .308 .5 .692 .5 l 2.558 0 l 0 -1"/><path d="m 25.554 12 c .384 0 .696 -.227 .696 -.5 c 0 -.276 -.312 -.5 -.696 -.5 l -2.554 0 l 0 1 z"/><path d="m 19.643 21 c .745 0 1.357 -.605 1.357 -1.354 l 0 -7.291 c 0 -.75 -.612 -1.354 -1.357 -1.354 l -7.291 0 c -.745 0 -1.353 .605 -1.353 1.354 l 0 7.291 c 0 .75 .608 1.354 1.353 1.354"/></g></svg>