<svg viewBox="0 0 16 16" xmlns="http://www.w3.org/2000/svg"><path d="m 3.065 4.5 l 9.87 0 c .312 0 .565 .346 .565 .77 l 0 5.459 c 0 .425 -.254 .77 -.565 .77 l -9.87 0 c -.312 0 -.565 -.346 -.565 -.77 l 0 -5.459 c 0 -.425 .254 -.77 .565 -.77" fill="none" stroke="#6aaf53" stroke-linecap="round" stroke-linejoin="round"/><path d="m 4.193 6 c -.108 0 -.193 .089 -.193 .199 l 0 3.601 c 0 .11 .085 .199 .193 .199 l 4.616 0 c .105 0 .191 -.089 .191 -.199 l 0 -3.601 c 0 -.11 -.085 -.199 -.191 -.199" fill="#6aaf53"/></svg>