<svg viewBox="0 0 16 16" xmlns="http://www.w3.org/2000/svg"><path d="m 8.423 10.381 c -.03 -1.088 .216 -2.141 1.254 -2.892 c 1.091 -.849 2.145 -1.906 2.035 -3.153 c -.023 -1.205 -1.436 -2.149 -2.96 -2.285 c -1.713 -.235 -3.786 .345 -4.362 1.675 c -.292 .644 -.019 1.804 .959 1.804 c .568 0 .834 -.368 .875 -.701 c .034 -.254 -.072 -.481 -.133 -.69 c -.072 -.239 .227 -.701 .557 -.891 c .277 -.155 .561 -.212 .603 -.22 c .985 -.235 1.967 .284 2.376 .917 c .413 .629 -.042 1.588 -.686 2.52 c -.652 .932 -1.345 1.99 -1.345 3.115 c 0 .428 -.038 .572 -.011 .743 c .023 .14 .485 .125 .838 .057 z m -.447 1.467 c -.944 -.049 -1.595 1.01 -1.031 1.686 c .508 .743 1.925 .561 2.168 -.284 c .25 -.656 -.356 -1.414 -1.137 -1.402 z" fill="#9cc7cf"/></svg>