<svg height="16" width="16" xmlns="http://www.w3.org/2000/svg"><path d="M 3 2 C 1 2 1 4 1 4 V 12 C 1 12 1 14 3 14 H 13 C 13 14 15 14 15 12 V 4 C 15 2 13 2 13 2 Z M 5 6 C 6.1 6 7 6.9 7 8 C 7 8.36 6.89 8.71 6.72 9 H 9.28 C 9.11 8.71 9 8.36 9 8 C 9 6.9 9.9 6 11 6 C 12.1 6 13 6.9 13 8 C 13 9.1 12.1 10 11 10 H 5 C 3.9 10 3 9.1 3 8 C 3 6.9 3.9 6 5 6 Z M 5 7 C 4.45 7 4 7.45 4 8 C 4 8.55 4.45 9 5 9 C 5.55 9 6 8.55 6 8 C 6 7.45 5.55 7 5 7 Z M 11 7 C 10.45 7 10 7.45 10 8 C 10 8.55 10.45 9 11 9 C 11.55 9 12 8.55 12 8 C 12 7.45 11.55 7 11 7 Z" fill="#d3dae3"/></svg>