<svg height="240" viewBox="0 0 120 240.00001" width="120" xmlns="http://www.w3.org/2000/svg" xmlns:xlink="http://www.w3.org/1999/xlink"><linearGradient id="a" gradientTransform="matrix(.99495798 0 0 1.0323531 1.808406 -10.238362)" gradientUnits="userSpaceOnUse" x1="259.599" x2="259.599" y1="313.18961" y2="346.52463"><stop offset="0" stop-color="#b4b4b4"/><stop offset="1" stop-color="#fff"/></linearGradient><linearGradient id="b" gradientTransform="matrix(.99495798 0 0 1.0323531 1.8084 193.76143)" gradientUnits="userSpaceOnUse" x1="259.599" x2="259.599" y1="313.18961" y2="346.52463"><stop offset="0" stop-color="#8c8c8c"/><stop offset="1" stop-color="#505050"/></linearGradient><linearGradient id="c" gradientUnits="userSpaceOnUse" x1="262.10855" x2="262.10855" y1="341.349" y2="525.31409"><stop offset="0" stop-color="#6e6e6e"/><stop offset="1" stop-color="#e6e6e6"/></linearGradient><g transform="translate(-199.99999 -312.36219)"><rect fill="url(#b)" height="35.099998" rx="7.134573" ry="9.484746" width="118.4" x="200.8" y="517.26221"/><rect fill="url(#a)" height="35.099998" rx="7.134573" ry="9.484746" width="118.4" x="200.8" y="313.26221"/><path d="M 200.79999 341.36218 H 319.2 V 525.3622 H 200.79999 Z" fill="url(#c)"/><path d="M 200.8 351.36218 H 319.2 V 360.362181 H 200.8 Z" fill="#5a5a5a"/><path d="M 200.8 372.36221 H 319.2 V 381.362211 H 200.8 Z" fill="#646464"/><path d="M 200.8 398.36221 H 319.2 V 407.362211 H 200.8 Z" fill="#6e6e6e"/><path d="M 200.8 428.36221 H 319.2 V 437.362211 H 200.8 Z"/><path d="M 200.8 458.36215 H 319.2 V 467.362151 H 200.8 Z" fill="#828282"/><path d="M 200.8 484.36221 H 319.2 V 493.362211 H 200.8 Z" fill="#969696"/><path d="M 200.8 506.36221 H 319.2 V 515.362211 H 200.8 Z" fill="#aaa"/><rect fill="none" height="238.50475" rx="7.153275" ry="9.222955" stroke="#494949" stroke-linejoin="round" stroke-miterlimit="0" stroke-width="1.495265" width="118.50474" x="200.74762" y="313.10983"/></g></svg>