<svg viewBox="0 0 16 16" xmlns="http://www.w3.org/2000/svg"><rect fill="#d6d6d6" height="11" rx="3" ry="3.5" width="6" x="5"/><path d="m 5 8 l -1.5 .997 l .011 -1" fill="#373737"/><path d="m 11 8 l 1.5 .997 l -.011 -1" fill="#373737"/><path d="M 3.59 7.477 A .44 .44 0 0 0 3.157 7.924 c 0 1.729 .924 3.33 2.421 4.194 c .604 .349 1.266 .551 1.938 .618 C 7.275 14.229 6.353 15.197 5.359 16 l 5.282 0 C 9.647 15.197 8.724 14.229 8.484 12.736 c .672 -.067 1.334 -.269 1.937 -.618 c 1.498 -.865 2.421 -2.465 2.421 -4.194 a .44 .44 0 1 0 -.88 0 c 0 1.416 -.755 2.722 -1.981 3.431 c -1.226 .708 -2.737 .708 -3.963 0 C 4.792 10.646 4.04 9.34 4.04 7.924 A .44 .44 0 0 0 3.59 7.477" fill="#547181"/><path d="m 5 7.301 l 0 .199 c 0 1.939 1.338 3.5 3 3.5 c 1.662 0 3 -1.561 3 -3.5 l 0 -.199 l -6 0 z" fill="#547181"/><path d="m 5 7 l 0 .5 c 0 .171 .023 .335 .043 .5 l 5.914 0 c .02 -.165 .043 -.329 .043 -.5 l 0 -.5 l -6 0 z" fill="#373737"/><path d="m 8 0 l 0 11 c .353 0 .686 -.083 1 -.213 l 0 -10.574 c -.314 -.13 -.647 -.213 -1 -.213 z" fill="#fff" opacity=".2"/><path d="m 9 11.756 c -.328 .085 -.664 .129 -1 .129 l 0 4.115 l 1 0 l 0 -1.807 c -.244 -.426 -.427 -.905 -.516 -1.457 c .173 -.017 .345 -.045 .516 -.08 l 0 -.9 z" fill="#fff" opacity=".2"/><g fill="#828282"><path d="M 5 5 L 5 6 L 6 6 C 6.554 6 7 5.777 7 5.5 C 7 5.223 6.554 5 6 5 L 5 5 z"/><path d="M 5.0429688 3 C 5.0227574 3.1646827 5 3.3285923 5 3.5 L 5 4 L 6 4 C 6.554 4 7 3.777 7 3.5 C 7 3.223 6.554 3 6 3 L 5.0429688 3 z"/><path d="m 11 5 l 0 1 l -1 0 C 9.446 6 9 5.777 9 5.5 C 9 5.223 9.446 5 10 5 l 1 0 z"/><path d="m 10.957 3 c .02 .165 .043 .329 .043 .5 l 0 .5 l -1 0 c -.554 0 -1 -.223 -1 -.5 c 0 -.277 .446 -.5 1 -.5 l .957 0 z"/></g></svg>