<svg viewBox="0 0 16 16" xmlns="http://www.w3.org/2000/svg"><path d="m 16 11.03 l -14 0 l 0 -8 l 14 0 z" fill="#a6b44a"/><g fill="#073642"><path d="m 3 4.03 l 0 2 l 5 0 l 0 -2 z"/><path d="m 10 4.03 l 0 2 l 5 0 l 0 -2 z"/><path d="m 3 7.03 l 0 1 l 12 0 l 0 -1 z"/><path d="m 3 9.03 l 0 1 l 12 0 l 0 -1 z"/></g><path d="M 0 3.03 H 1 V 5.03 H 0 Z" fill="#859900"/><path d="M 0 6.03 H 1 V 8.03 H 0 Z" fill="#268bd2"/><path d="M 0 9.03 H 1 V 11.03 H 0 Z" fill="#dc322f"/><path d="m 2 .025 l -1 0 l 0 14 l -1 0 l 0 1 l 2 0 z" fill="#657b83"/><path d="M 13 3.03 H 15 V 11.03 H 13 Z" fill="#fdf6e3" fill-opacity=".337"/></svg>