<svg viewBox="0 0 16 16" xmlns="http://www.w3.org/2000/svg" xmlns:xlink="http://www.w3.org/1999/xlink"><linearGradient id="a" gradientTransform="matrix(.5 0 0 .5 -4 -4)" gradientUnits="userSpaceOnUse" x2="0" y1="-7" y2="23"><stop offset="0" stop-color="#839496"/><stop offset="1" stop-color="#667678"/></linearGradient><path d="m 7 0 c -.554 0 -1 .446 -1 1 l 0 1.01 l -1 0 c -.554 0 -1 .446 -1 1 l 0 11.992 c 0 .554 .446 1 1 1 l 6 0 c .554 0 1 -.446 1 -1 l 0 -11.992 c 0 -.554 -.447 -1.028 -1 -1 l -1 0 l 0 -1.01 c 0 -.554 -.446 -1 -1 -1 z" fill="url(#a)"/><path d="M 8 0 H 9 V 2 H 8 Z" fill="#fff" opacity=".2"/><rect fill="#6fa7ce" height="14" rx="1" width="8" x="4" y="2"/><rect fill="#6fa7ce" height="14" opacity=".2" rx="1" width="8" x="4" y="2"/><path d="M 9 2 H 11 V 16 H 9 Z" fill="#fff" opacity=".2"/></svg>