<svg viewBox="0 0 16 16" xmlns="http://www.w3.org/2000/svg"><g fill="none" stroke="#fff"><g stroke-width=".5" transform="matrix(.5 0 0 .5 -5.699209 -5.359918)"><path d="m 15 16.875 l -2.185 14.218 l 19.935 0 l -2.75 -14.226 z"/><path d="m 12.741 31.581 l 0 3.03 l 20.08 0 l 0 -3.03 z"/></g><g stroke-width=".4" transform="matrix(.5 0 0 .5 -6.307464 -506.671968)"><path d="m 24.86 1036.35 l -9.148 0 l 0 -.928 c 2.966 0 6.427 0 9.148 0 z"/><path d="m 26.584 1036.35 l 4.508 0 l 0 -.647 l -4.508 0 z"/></g></g><rect fill="#657b83" height="2" rx="1" width="3" x=".985" y="1.983"/><rect fill="#586e75" height="10" rx=".909" width="16" y="3.01"/><path d="M 13.492 3.02 H 14.992 V 13.013 H 13.492 Z" fill="#eee8d5" fill-opacity=".289"/><path d="m -3 24 a 8 8 0 1 1 -16 0 a 8 8 0 1 1 16 0 z" fill="#073642" transform="matrix(.75 0 0 .75 16.25 -9.983267)"/><path d="m 30 25 a 6 6 0 1 1 -12 0 a 6 6 0 1 1 12 0 z" fill="#eee8d5" transform="matrix(.66587291 0 0 .66666663 -7.961971 -8.656601)"/><path d="m 10.151 4.635 c .651 .712 1.04 1.647 1.04 2.688 c 0 2.209 -1.789 4 -3.995 4 c -.777 0 -1.488 -.22 -2.102 -.604 c .73 .79 1.774 1.292 2.934 1.292 c 2.207 0 3.995 -1.791 3.995 -4 c 0 -1.423 -.754 -2.666 -1.873 -3.375 z" fill="#839496" fill-opacity=".59"/><path d="m 3 17 a 2 2 0 1 1 -4 0 a 2 2 0 1 1 4 0 z" fill="#eee8d5" transform="matrix(.37288136 0 0 .37288136 14.124566 -1.829042)"/></svg>