<svg viewBox="0 0 16 16" xmlns="http://www.w3.org/2000/svg"><circle cx="8" cy="6" fill="#586e75" r="6"/><path d="M 6 13 H 10 V 14 H 6 Z" fill="#073642"/><path d="M 3.077 15 H 13.077 V 16 H 3.077 Z" fill="#586e75"/><circle cx="8" cy="6" fill="#073642" r="4"/><circle cx="8" cy="6" fill="#eee8d5" r="3"/><path d="m 11 .811 l 0 10.377 a 6 6 0 0 0 2 -1.879 l 0 -6.619 a 6 6 0 0 0 -2 -1.879 z" fill="#fdf6e3" fill-opacity=".281"/><path d="m 9.906 3.688 c .402 .511 .641 1.159 .641 1.859 c 0 1.657 -1.343 3 -3 3 c -.7 0 -1.349 -.238 -1.859 -.641 c .55 .667 1.381 1.094 2.313 1.094 c 1.657 0 3 -1.343 3 -3 c 0 -.932 -.427 -1.762 -1.094 -2.313 z" fill="#768e9e" fill-opacity=".691"/></svg>