<svg viewBox="0 0 16 16" xmlns="http://www.w3.org/2000/svg"><rect fill="#839496" height="12" rx="1" width="12" x="2"/><g fill="#eee8d5" transform="matrix(.74999325551 0 0 .749993304 -3.99915964897 -4.99980835708)"><path d="M 9.684 24 A 7 7 0 0 0 16 28 A 7 7 0 0 0 22.314 24 L 9.684 24"/><path d="M 9.684 24 A 7 7 0 0 0 16 28 A 7 7 0 0 0 22.314 24 L 9.684 24"/></g><circle cx="11.5" cy="10.5" fill="#fdf6e3" r=".5"/><path d="m 12 0 l 0 12 l 1 0 l 0 -12 l -1 0 z" fill="#fdf6e3" fill-opacity=".458"/><path d="M 9.684 24 A 7 7 0 0 0 16 28 A 7 7 0 0 0 22.314 24 L 9.684 24" fill="#eee8d5" transform="matrix(.74999325551 0 0 .749993304 -3.99915964897 -4.99980835708)"/><path d="m 4.251 13 l 6.264 2.355 a 5.25 5.25 0 0 0 2.222 -2.355 l -8.486 0 z" fill="#657b83" fill-opacity=".275"/></svg>