<svg viewBox="0 0 16 16" xmlns="http://www.w3.org/2000/svg"><rect fill="#839496" height="16" rx="1" width="12" x="2"/><path d="M 10.98 0 H 12.98 V 16 H 10.98 Z" fill="#fdf6e3" opacity=".464"/><path d="m 8.02 2.98 c -.645 -.007 -1.299 .14 -1.91 .463 c -1.953 1.035 -2.678 3.453 -1.643 5.406 c .858 1.618 2.66 2.401 4.367 2.036 l -.744 -2.626 c -.024 .001 -.045 .014 -.07 .014 c -.744 0 -1.348 -.604 -1.348 -1.348 c 0 -.744 .604 -1.348 1.348 -1.348 c .744 0 1.348 .604 1.348 1.348 c 0 .333 -.123 .635 -.323 .871 l 1.727 2.064 c 1.252 -1.208 1.614 -3.146 .758 -4.76 c -.711 -1.342 -2.091 -2.106 -3.51 -2.12 z" fill="#073642"/><path d="m 8.957 9.493 l 1.5 4.5 l 1.5 0 l 0 -1 z" fill="#073642"/><path d="m 4.218 8.161 c .358 1.124 1.217 2.056 2.364 2.505 l .941 -2.508 c -.136 -.054 -.258 -.13 -.375 -.231 c -.189 -.163 -.327 -.367 -.401 -.588 l -2.528 .822 z" fill="#93a1a1" opacity=".495"/><path d="m 4.104 6.104 c -.252 1.152 .026 2.389 .795 3.351 l 2.069 -1.701 c -.091 -.115 -.159 -.242 -.209 -.388 c -.082 -.236 -.1 -.482 -.054 -.71 l -2.601 -.552 z" fill="#268bd2" opacity=".246"/><path d="m 11.773 5.648 c -.366 -1.121 -1.232 -2.048 -2.382 -2.488 l -.923 2.515 c .136 .053 .259 .128 .377 .229 c .19 .162 .33 .365 .406 .585 l 2.522 -.84 z" fill="#93a1a1" opacity=".495"/><path d="m 11.902 7.705 c .243 -1.154 -.043 -2.389 -.819 -3.345 l -2.057 1.716 c .092 .114 .16 .241 .212 .387 c .084 .235 .103 .481 .059 .709 l 2.605 .533 z" fill="#268bd2" opacity=".19"/></svg>