<svg viewBox="0 0 16 16" xmlns="http://www.w3.org/2000/svg"><rect fill="#93a1a1" height="6" rx=".5" width="1" x="11" y="3"/><rect fill="#b6bdbd" height="6" rx="1" width="12" x="2" y="7"/><path d="m 3 8 l 0 1 l 1 0 l 0 -1 m .5 0 l 0 1 l 1 0 l 0 -1 z m 1.5 0 l 0 1 l 1 0 l 0 -1 m .5 0 l 0 1 l 1 0 l 0 -1 z m 1.5 0 l 0 1 l 1 0 l 0 -1 m .5 0 l 0 1 l 1 0 l 0 -1 z m 1.5 0 l 0 1 l .5 0 l 0 1.5 l .5 0 l 0 -2.5 z m -9 1.5 l 0 1 l 1.5 0 l 0 -1 z m 2 0 l 0 1 l 1 0 l 0 -1 z m 1.5 0 l 0 1 l 1 0 l 0 -1 z m 1.5 0 l 0 1 l 1 0 l 0 -1 z m 1.5 0 l 0 1 l 1 0 l 0 -1 z m 1.5 0 l 0 1 l 1 0 l 0 -1 z m -8 1.5 l 0 1 l 1 0 l 0 -1 z m 1.5 0 l 0 1 l 5 0 l 0 -1 z m 5.5 0 l 0 1 l 1 0 l 0 -1 z m 1.5 0 l 0 1 l 1.5 0 l 0 -1 z" fill="#6f8a93"/><path d="m 11.5 7 l 0 6 l 1.5 0 l 0 -6 l -1.5 0 z" fill="#fdf6e3" opacity=".329"/><g fill="#93a1a1"><rect height="1" rx=".5" width="3" x="9" y="3"/><rect height="3" rx=".5" width="1" x="9" y="3"/><rect height="1" rx=".5" width="4" x="6" y="5"/><path d="M 7 4 L 7 5.5 C 7 5.777 6.777 6 6.5 6 C 6.223 6 6 5.777 6 5.5 L 6 4 Z"/></g></svg>