<svg viewBox="0 0 16 16" xmlns="http://www.w3.org/2000/svg"><rect fill="#586e75" height="15.186" rx="4.568" ry="4.746" width="9.136" x="3.508" y=".559"/><path d="m 23 1012.36 l 0 15 l -9 0 l 0 -5.708 c 0 -4.813 4.079 -8.685 9 -9.292 z m 2 0 c 4.837 .675 9 4.535 9 9.292 l 0 5.708 l -9 0 z m -11 17 l 20 0 l 0 5.583 c 0 5.24 -4.436 9.417 -10 9.417 c -5.564 0 -10 -4.177 -10 -9.417" fill="#839496" transform="matrix(.5 0 0 .5 -4 -506.1811)"/><path d="m 11 1 l 0 6.5 l 1 0 l 0 -5.563 c -.285 -.35 -.625 -.668 -1 -.938 m 0 7.5 l 0 6.563 c .38 -.267 .716 -.58 1 -.938 l 0 -5.625 l -1 0 z" fill="#fdf6e3" opacity=".246"/></svg>