<svg viewBox="0 0 16 16" xmlns="http://www.w3.org/2000/svg"><rect fill="#073642" height="10" rx=".8" width="14" y="3"/><path d="M 1.25 4.25 H 12.75 V 11.75 H 1.25 Z" fill="#93a1a1"/><rect fill="#586e75" height=".75" rx=".15" width=".75" x="13" y="4"/><path d="M 11 3 H 13 V 13 H 11 Z" fill="#fdf6e3" fill-opacity=".217"/><path d="m 16 12.25 l -1 -1.5 l 0 -6.514 c 0 0 0 -.486 .5 -.486 c .5 0 .5 .486 .5 .486 l 0 6.514" fill="#073642"/><g fill="#586e75"><path d="M -10.75 15.5 H -8.75 V 16 H -10.75 Z" transform="rotate(-90)"/><rect height=".75" rx=".15" width=".75" x="13" y="5.5"/><rect height=".75" rx=".15" width=".75" x=".25" y="4"/><rect height=".75" rx=".15" width=".75" x=".25" y="5.5"/></g></svg>