<svg viewBox="0 0 16 16" xmlns="http://www.w3.org/2000/svg"><path d="m 3.835 2.463 c -.443 .018 -.807 .208 -1.058 .398 c -1.483 1.125 -2.778 5.816 -2.778 8.299 c 0 2.483 .571 2.377 1.066 2.377 c .495 0 1.118 -.341 1.662 -.82 c 1.503 -1.323 2.195 -2.718 3.689 -2.718 l 3.166 0 c 1.494 0 2.186 1.395 3.689 2.718 c .544 .479 1.167 .82 1.662 .82 c .495 0 1.066 .106 1.066 -2.377 c 0 -2.483 -1.295 -7.175 -2.778 -8.299 c -.401 -.304 -1.092 -.608 -1.933 -.208 c -.564 .268 -1.068 .347 -1.804 .347 l -2.971 0 c -.736 0 -1.24 -.079 -1.804 -.347 c -.315 -.15 -.609 -.201 -.875 -.19" fill="#deddc9" fill-rule="evenodd"/><ellipse cx="3.75" cy="6.25" fill="#3b3b3b" rx="1.25" ry="1.25"/><ellipse cx="12.75" cy="5.25" fill="#df8003" rx=".5" ry=".5"/><ellipse cx="14" cy="6.5" fill="#e45146" rx=".5" ry=".5"/><ellipse cx="12.75" cy="7.75" fill="#68bf45" rx=".5" ry=".5"/><ellipse cx="11.5" cy="6.5" fill="#5b6dc1" rx=".5" ry=".5"/><circle cx="8" cy="6.5" fill="none" r=".5" stroke="#3b3b3b" stroke-linecap="round" stroke-width=".5"/><ellipse cx="6.5" cy="6.5" fill="#3b3b3b" rx=".5" ry=".5"/><circle cx="9.5" cy="6.5" fill="#3b3b3b" r=".5"/><path d="m 12 2.479 l 0 8.979 c .377 .4 .776 .825 1.271 1.262 c .234 .206 .482 .379 .729 .518 l 0 -9.416 c -.25 -.404 -.508 -.755 -.777 -.959 c -.28 -.213 -.708 -.41 -1.223 -.383 z" fill="#fff" opacity=".4"/></svg>