<svg enable-background="new 0 0 1024 1024" image-rendering="optimizeSpeed" viewBox="0 0 16 16" xmlns="http://www.w3.org/2000/svg"><rect fill="#8e8e8e" height="1.8" rx=".244" width=".8" x="13.2" y="4.2"/><path d="m 4 0 l 9.5 0 c .277 0 .5 .223 .5 .5 l 0 3.5 l -.5 0 l 0 4 l .5 0 l 0 7.5 c 0 .277 -.223 .5 -.5 .5 l -4.5 0 l -.2 -.5 l -1.6 0 l -.2 .5 l -4.5 0 c -.277 0 -.5 -.223 -.5 -.5 l 0 -9.5 l .5 0 l 0 -1 l -.5 0 l 0 -3 z" fill="#464646"/><g fill="#ffd642"><rect height="3" rx=".2" width="1" x="3.5" y="2"/><rect height="4" rx=".2" width="1" x="5.5" y="1"/><rect height="4" rx=".2" width="1" x="7.5" y="1"/><rect height="4" rx=".2" width="1" x="9.5" y="1"/><rect height="4" rx=".2" width="1" x="11.5" y="1"/></g><path d="M 11 0 H 12 V 16 H 11 Z" fill="#faf2f2" opacity=".2"/></svg>