<svg viewBox="0 0 16 16" xmlns="http://www.w3.org/2000/svg"><path d="m 24 8 c -8.837 0 -16 7.163 -16 16 c 0 8.837 7.163 16 16 16 c 8.837 0 16 -7.163 16 -16 c 0 -8.837 -7.163 -16 -16 -16 z m 0 11 c 2.756 0 5 2.244 5 5 c 0 2.756 -2.244 5 -5 5 c -2.756 0 -5 -2.244 -5 -5 c 0 -2.756 2.244 -5 5 -5 z m 0 1 c -2.215 0 -4 1.785 -4 4 c 0 2.215 1.785 4 4 4 c 2.215 0 4 -1.785 4 -4 c 0 -2.215 -1.785 -4 -4 -4 z m 0 1.5 c 1.381 0 2.5 1.119 2.5 2.5 c 0 1.381 -1.119 2.5 -2.5 2.5 c -1.381 0 -2.5 -1.119 -2.5 -2.5 c 0 -1.381 1.119 -2.5 2.5 -2.5 z" fill="#eee8d5" transform="matrix(.5 0 0 .5 -4 -4)"/><path d="m 7.134 7.106 c .195 -.189 .445 -.315 .715 -.349 l -.097 -.735 c -.432 .054 -.826 .243 -1.137 .544 l .519 .539 z m -.866 -.894 c .388 -.373 .889 -.615 1.426 -.683 l -.696 -5.458 c -1.719 .219 -3.327 .987 -4.567 2.187 l 3.837 3.954 z" fill="#657b83" opacity=".483"/><path d="m 9.167 8.433 c -.094 .254 -.266 .476 -.495 .623 l .404 .621 c .367 -.234 .641 -.575 .791 -.981 l -.7 -.263 z m 1.167 .433 c -.189 .504 -.538 .938 -.992 1.231 l 2.98 4.626 c 1.457 -.939 2.577 -2.324 3.178 -3.941 l -5.166 -1.915 z" fill="#fffefb" opacity=".464"/><path d="m 8.896 8.863 c -.188 .195 -.434 .331 -.703 .373 l .123 .731 c .43 -.068 .817 -.271 1.117 -.583 l -.537 -.521 z m .896 .863 c -.375 .386 -.868 .645 -1.401 .732 l .884 5.431 c 1.711 -.279 3.291 -1.101 4.488 -2.344 l -3.971 -3.819 z" fill="#657b83" opacity=".483"/><path d="m 6.842 7.545 c .099 -.252 .275 -.471 .507 -.614 l -.392 -.629 c -.371 .227 -.652 .563 -.81 .966 l .695 .276 z m -1.158 -.455 c .199 -.5 .555 -.928 1.016 -1.212 l -2.892 -4.681 c -1.474 .911 -2.621 2.275 -3.252 3.881 l 5.129 2.01 z" fill="#fffefb" opacity=".426"/><path d="m 8 5 c -1.657 0 -3 1.343 -3 3 c 0 1.657 1.343 3 3 3 c 1.657 0 3 -1.343 3 -3 c 0 -1.657 -1.343 -3 -3 -3 z m 0 1 c 1.105 0 2 .895 2 2 c 0 1.105 -.895 2 -2 2 c -1.105 0 -2 -.895 -2 -2 c 0 -1.105 .895 -2 2 -2 z" fill="#4d4d4d"/></svg>