<svg viewBox="0 0 16 16" xmlns="http://www.w3.org/2000/svg"><circle cx="5.75" cy="8.5" fill="#262626" r="2.625"/><circle cx="10.25" cy="8.5" fill="#262626" r="2.25"/><circle cx="5.75" cy="8.5" fill="#fff" r="1.125"/><circle cx="10.25" cy="8.5" fill="#fff" r="1.125"/><path d="m .441 3 c -.244 0 -.441 .203 -.441 .457 l 0 9.04 c 0 .277 .223 .5 .5 .5 l 15 0 c .277 0 .5 -.223 .5 -.5 l 0 -9.04 c 0 -.254 -.197 -.457 -.441 -.457 l -15.12 0 z m 1.486 3 l 3.072 0 l 0 5 l -3.072 0 l -.158 -.277 c -.702 -1.375 -.702 -3.07 0 -4.445 c .05 -.095 .102 -.187 .158 -.277 z m 9.07 0 l 3.072 0 l .158 .277 c .702 1.375 .702 3.07 0 4.445 c -.05 .095 -.102 .187 -.158 .277 l -3.072 0 l 0 -5 z" fill="#838488"/><path d="m 0 5 l 1 0 l 0 -1 l 14 0 l 0 1 l 1 0 l 0 -2 l -16 0" fill="#383838" fill-rule="evenodd"/><rect fill="#fffcd3" height="4.5" rx=".25" width="4" x="6" y="6.5"/><rect fill="#f57979" height="1" rx=".25" width="4" x="6" y="6"/><path d="m 13 3 l 0 3 l 1 0 l 0 -3 z m 0 8 l 0 2 l 1 0 l 0 -2 z" fill="#bcbcbc" opacity=".514"/></svg>