<svg viewBox="0 0 16 16" xmlns="http://www.w3.org/2000/svg"><g transform="translate(0 -32)"><path d="M 1.919 34.527 H 13.919 V 45.527 H 1.919 Z" fill="#292929"/><g fill="#ffcb3b" transform="scale(1 -1)"><path d="M 9 -39 H 10 V -36 H 9 Z"/><path d="M 6 -39 H 7 V -36 H 6 Z"/></g></g><path d="M 2.5 14 C 1 14 1 14 1 13 L 1 3 C 1 2 1 2 2.5 2 l 11 0 C 15 2 15 2 15 3 l 0 10 c 0 1 0 1 -1.5 1 z m 2.5 -3 l 1 0 l 0 2 l 4 0 l 0 -2 l 1 0 l 0 -2 l 2 0 l 0 -5 C 13 3 13 3 12.5 3 l -9 0 C 3 3 3 3 3 4 l 0 5 l 2 0 z" fill="#909ea9"/></svg>