<svg viewBox="0 0 16 16" xmlns="http://www.w3.org/2000/svg"><g transform="translate(0 -1036.3622)"><path d="m 8 1042.81 l -.156 .5 l -2.844 8.05 l 1 0 l 2 -1.75 l 2 1.75 l 1 0 l -2.844 -8.05 z m 0 1.094 l .365 1.156 l -.365 .292 l -.365 -.292 z m -.469 1.49 l .208 .167 l -.354 .281 z m .938 0 l .146 .458 l -.354 -.292 z m -.469 .375 l .729 .583 l -.729 .552 l -.729 -.552 z m -.875 .896 l .594 .448 l -.969 .729 z m 1.76 0 l .365 1.177 l -.969 -.729 z m -.885 .656 l 1.365 1.031 l -1.365 .792 l -1.365 -.792 z m -1.51 1.323 l 1.177 .688 l -1.667 1.031 z m 3.02 0 l .49 1.719 l -1.667 -1.031 z" fill="#2d2d2d"/><g fill-rule="evenodd"><path d="m 28 13 a 3 3 0 1 1 -6 0 a 3 3 0 1 1 6 0 z" fill="#2d2d2d" transform="matrix(.33333334 0 0 .33333334 -.333333 1038.6956)"/><path d="m 8 1040.7 c -1.289 0 -2.333 1.045 -2.333 2.333 c 0 .759 .365 1.438 .927 1.865 l .229 -.688 c -.302 -.302 -.49 -.717 -.49 -1.177 c 0 -.92 .746 -1.667 1.667 -1.667 c .92 0 1.667 .746 1.667 1.667 c 0 .46 -.188 .876 -.49 1.177 l .229 .688 c .562 -.426 .927 -1.105 .927 -1.865 c 0 -1.289 -1.045 -2.333 -2.333 -2.333 z" fill="#a6e3ff" fill-opacity=".558"/><path d="m 8 1039.36 c -2.025 0 -3.667 1.642 -3.667 3.667 c 0 1.357 .737 2.543 1.833 3.177 l .208 -.656 c -.826 -.534 -1.375 -1.464 -1.375 -2.521 c 0 -1.657 1.343 -3 3 -3 c 1.657 0 3 1.343 3 3 c 0 1.057 -.549 1.986 -1.375 2.521 l .208 .656 c 1.096 -.634 1.833 -1.82 1.833 -3.177 c 0 -2.025 -1.642 -3.667 -3.667 -3.667 z" fill="#a6e3ff" fill-opacity=".558"/><path d="m 8 1038.03 c -2.761 0 -5 2.239 -5 5 c 0 1.948 1.114 3.633 2.74 4.458 l .208 -.646 c -1.355 -.732 -2.281 -2.164 -2.281 -3.813 c 0 -2.393 1.94 -4.333 4.333 -4.333 c 2.393 0 4.333 1.94 4.333 4.333 c 0 1.649 -.926 3.08 -2.281 3.813 l .208 .646 c 1.626 -.825 2.74 -2.51 2.74 -4.458 c 0 -2.761 -2.239 -5 -5 -5 z" fill="#a6e3ff" fill-opacity=".558"/></g></g></svg>