<svg viewBox="0 0 16 16" xmlns="http://www.w3.org/2000/svg"><path d="M 3.152 .97 H 12.849 V 11.637 H 3.152 Z" fill="#5aa9e1"/><rect fill="#a9aeb7" height="3.879" rx="1" width="9.697" x="3.152" y="11.394"/><path d="m 10.5 .5 l -5.894 11.136 l 8.242 0 l 0 -11.136 z" fill="#fdf6e3" fill-opacity=".188" fill-rule="evenodd"/><path d="m 3.729 0 c -.395 0 -.729 .332 -.729 .727 l 0 14.06 c 0 .033 .037 .328 .197 .5 c .16 .172 .378 .284 .697 .379 c .639 .189 1.752 .334 3.955 .334 l .301 0 c 1.964 0 3.081 -.154 3.758 -.334 c .338 -.09 .567 -.182 .742 -.303 c .175 -.121 .35 -.251 .35 -.576 l 0 -14.06 c 0 -.395 -.334 -.727 -.729 -.727 l -8.543 0 z m .271 1 l 8 0 l 0 10 l -8 0 l 0 -10 z m .5 10.5 a .5 .5 0 0 1 .5 .5 a .5 .5 0 0 1 -.5 .5 a .5 .5 0 0 1 -.5 -.5 a .5 .5 0 0 1 .5 -.5 z m 1.25 0 a .5 .5 0 0 1 .5 .5 a .5 .5 0 0 1 -.5 .5 a .5 .5 0 0 1 -.5 -.5 a .5 .5 0 0 1 .5 -.5 z m 1.25 0 a .5 .5 0 0 1 .5 .5 a .5 .5 0 0 1 -.5 .5 a .5 .5 0 0 1 -.5 -.5 a .5 .5 0 0 1 .5 -.5 z m 2 0 a .5 .5 0 0 1 .5 .5 a .5 .5 0 0 1 -.5 .5 a .5 .5 0 0 1 -.5 -.5 a .5 .5 0 0 1 .5 -.5 z m 1.25 0 a .5 .5 0 0 1 .5 .5 a .5 .5 0 0 1 -.5 .5 a .5 .5 0 0 1 -.5 -.5 a .5 .5 0 0 1 .5 -.5 z m 1.25 0 a .5 .5 0 0 1 .5 .5 a .5 .5 0 0 1 -.5 .5 a .5 .5 0 0 1 -.5 -.5 a .5 .5 0 0 1 .5 -.5 z m -7 1.5 a .5 .5 0 0 1 .5 .5 a .5 .5 0 0 1 -.5 .5 a .5 .5 0 0 1 -.5 -.5 a .5 .5 0 0 1 .5 -.5 z m 1.25 0 a .5 .5 0 0 1 .5 .5 a .5 .5 0 0 1 -.5 .5 a .5 .5 0 0 1 -.5 -.5 a .5 .5 0 0 1 .5 -.5 z m 2.25 0 c .552 0 1 .448 1 1 c 0 .552 -.448 1 -1 1 c -.552 0 -1 -.448 -1 -1 c 0 -.552 .448 -1 1 -1 z m 2.25 0 a .5 .5 0 0 1 .5 .5 a .5 .5 0 0 1 -.5 .5 a .5 .5 0 0 1 -.5 -.5 a .5 .5 0 0 1 .5 -.5 z m 1.25 0 a .5 .5 0 0 1 .5 .5 a .5 .5 0 0 1 -.5 .5 a .5 .5 0 0 1 -.5 -.5 a .5 .5 0 0 1 .5 -.5 z" fill="#073642" transform="matrix(.99999999 0 0 .99999999 -.0000004 -.00000460054)"/><path d="m 11 15.836 c .359 -.051 .673 -.107 .908 -.17 c .036 -.01 .058 -.02 .092 -.029 c 0 -5.212 0 -10.424 0 -15.637 l -1 0 c 0 5.279 0 10.557 0 15.836 z" fill="#eee8d5" fill-opacity=".149"/></svg>