<svg viewBox="0 0 16 16" xmlns="http://www.w3.org/2000/svg"><g transform="matrix(.53846154 0 0 .53846154 -.615385 -.615385)"><rect fill="#5aa9e1" height="23.13" rx="1.595" width="12.25" x="9.875" y="4.631"/><path d="m 12.5 27.375 l 7 -22.75 l 2.625 0 l 0 22.75 z" fill="#fdf6e3" fill-opacity=".189"/><rect fill="#002b36" height="2.11" rx="1.055" width="3.5" x="14.25" y="26.29"/><rect fill="#002b36" height="1.447" rx=".482" width="7" x="12.5" y="3.803"/><path d="m 10.868 3 c -1.255 0 -2.297 1.014 -2.297 2.27 l 0 21.434 c 0 1.255 1.042 2.297 2.297 2.297 l 10.265 0 c 1.255 0 2.297 -1.042 2.297 -2.297 l 0 -21.434 c 0 -1.255 -1.042 -2.27 -2.297 -2.27 z m 3.632 .893 l 3 0 c .277 0 .5 .223 .5 .5 c 0 .277 -.223 .5 -.5 .5 l -3 0 c -.277 0 -.5 -.223 -.5 -.5 c 0 -.277 .223 -.5 .5 -.5 z m -4.071 1.893 l 11.143 0 l 0 20.429 l -11.143 0 z m 5.571 21.07 c .414 0 .75 .336 .75 .75 c 0 .414 -.336 .75 -.75 .75 c -.414 0 -.75 -.336 -.75 -.75 c 0 -.414 .336 -.75 .75 -.75 z" fill="#073642" transform="matrix(1.00000003641 0 0 1.00000003641 -.00000056755 .00001880624)"/><path d="M 19.714 3 H 21.571 V 29 H 19.714 Z" fill="#eee8d5" fill-opacity=".149"/></g></svg>