<svg viewBox="0 0 16 16" xmlns="http://www.w3.org/2000/svg"><path d="M .5 1.465 H 15.5 V 12.465 H .5 Z" fill="#67a6d2"/><path d="m 10 1.465 l -3.828 11 l 9.328 0 l 0 -11 l -5.5 0 z" fill="#eee8d5" opacity=".232"/><path d="m .538 .986 c -.293 .031 -.539 .306 -.537 .6 l 0 10.8 c 0 .314 .286 .6 .6 .6 l 5.4 0 l 0 1.012 l 4 0 l 0 -1.012 l 5.4 0 c .314 0 .6 -.286 .6 -.6 l 0 -10.8 c 0 -.314 -.286 -.6 -.6 -.6 l -14.8 0 z m .794 1.012 c .025 -.005 .05 -.005 .075 0 l 13.186 0 c .209 0 .4 .191 .4 .4 l 0 9.206 c 0 .209 -.191 .4 -.4 .4 l -13.186 0 c -.209 0 -.4 -.191 -.4 -.4 l 0 -9.206 c -.003 -.187 .142 -.365 .325 -.4 z m 2.181 12.951 l 0 1.013 l 9.5 0 l 0 -1.013 z" fill="#1e404d"/><g fill="#fdf6e3" stroke="#fdf6e3" stroke-linecap="round" stroke-width="1.082"><path d="m 2.528 4.529 l 0 -1.082 l 1.082 0"/><path d="m 12.397 3.447 l 1.082 0 l 0 1.082"/><path d="m 13.479 9.302 l 0 1.082 l -1.082 0"/><path d="m 3.61 10.384 l -1.082 0 l 0 -1.082"/></g></svg>