<svg height="16" width="16" xmlns="http://www.w3.org/2000/svg"><path d="M 12 0 C 10.34 0 9 1.35 9 3 C 9 3.23 9.04 3.44 9.09 3.66 L 5.87 5.66 C 5.36 5.25 4.71 5 4 5 C 2.34 5 1 6.35 1 8 C 1 9.66 2.34 11 4 11 C 4.71 11 5.36 10.76 5.88 10.35 L 9.09 12.35 C 9.04 12.56 9 12.77 9 13 C 9 14.66 10.34 16 12 16 C 13.66 16 15 14.66 15 13 C 15 11.35 13.66 10 12 10 C 11.29 10 10.64 10.25 10.13 10.66 L 6.91 8.66 C 6.96 8.44 7 8.23 7 8 C 7 7.77 6.96 7.56 6.91 7.35 L 10.13 5.35 C 10.64 5.76 11.29 6 12 6 C 13.66 6 15 4.66 15 3 C 15 1.35 13.66 0 12 0 Z" fill="#d3dae3"/></svg>