<svg height="22" width="22" xmlns="http://www.w3.org/2000/svg"><rect fill="#30a3db" height="20" rx="10" transform="matrix(0 -1 -1 0 0 0)" width="20" x="-21" y="-21"/><path d="m 545 -355 h 2 v 9.0039 h -2 z m 0 11.004 h 2 v 1.9961 h -2 z" opacity=".2" transform="matrix(1 0 0 -1 -535 -336.5)"/><path d="m 545 -355 h 2 v 9.0039 h -2 z m 0 11.004 h 2 v 1.9961 h -2 z" fill="#fff" transform="matrix(1 0 0 -1 -535 -337)"/><path d="m 11 1 c -5.54 0 -10 4.46 -10 10 c 0 .084 .004 .166 .0058 .25 c .1324 -5.423 4.5382 -9.75 9.9942 -9.75 c 5.4558 0 9.862 4.327 9.994 9.75 c .002 -.08343 .0059 -.16606 .0059 -.25 c 0 -5.54 -4.46 -10 -10 -10 z" fill="#fff" opacity=".2"/><path d="m 1.0058 11.25 c -.002 .084 -.0058 .166 -.0058 .25 c 0 5.54 4.46 10 10 10 s 10 -4.46 10 -10 c 0 -.084 -.004 -.1665 -.006 -.25 c -.132 5.423 -4.538 9.75 -9.994 9.75 s -9.862 -4.327 -9.994 -9.75 z" opacity=".3"/></svg>