<svg height="16" width="16" xmlns="http://www.w3.org/2000/svg"><g fill="#d3dae3"><path d="M 11 11 V 12 C 11 12.28 11.1 12.54 11.28 12.72 L 12.06 13.5 L 11.28 14.28 C 11.1 14.47 11 14.73 11 15 V 16 H 12 C 12.28 16 12.54 15.9 12.72 15.72 L 13.5 14.94 L 14.28 15.72 C 14.46 15.9 14.73 16 15 16 H 16 V 15 C 16 14.73 15.9 14.47 15.72 14.28 L 14.94 13.5 L 15.72 12.72 C 15.9 12.54 16 12.28 16 12 V 11 H 15 C 14.73 11 14.46 11.1 14.28 11.28 L 13.5 12.07 L 12.72 11.28 C 12.54 11.1 12.28 11 12 11 Z"/><path d="M 10 9 L 15.5 4.5 L 10 0 C 10 .01 10 1.34 10 2 C 9 2 8 2 7 2 C 7 3.67 7 5.34 7 7 C 8 7 9 7 10 7 C 10 7.67 10 9 10 9 Z" opacity=".3"/><path d="M 6 6 L .5 10.5 L 6 15 V 13 H 9 V 8 H 6 Z" opacity=".3"/></g></svg>